<?xml version="1.0" encoding="utf-8"?>
<!-- Generator: Adobe Illustrator 20.0.0, SVG Export Plug-In . SVG Version: 6.00 Build 0)  -->
<!DOCTYPE svg PUBLIC "-//W3C//DTD SVG 1.1//EN" "http://www.w3.org/Graphics/SVG/1.1/DTD/svg11.dtd">
<svg version="1.1" id="Layer_3" xmlns="http://www.w3.org/2000/svg" xmlns:xlink="http://www.w3.org/1999/xlink" x="0px" y="0px"
	 viewBox="0 0 183.2 59.5" style="enable-background:new 0 0 183.2 59.5;" xml:space="preserve">
<style type="text/css">
	.st0{enable-background:new    ;}
	.st1{fill:#311AE0;}
	.st2{fill:url(#SVGID_1_);}
	.st3{fill:url(#SVGID_2_);}
</style>
<title>goins-realty-group-logo-final</title>
<g class="st0">
	<path class="st1" d="M66.7,30.7c0.2,0,0.4,0,0.6,0s0.4-0.1,0.5-0.1c0.2,0,0.3-0.1,0.5-0.1c0.1-0.1,0.3-0.1,0.4-0.2v-1.8h-1.2
		c-0.1,0-0.1,0-0.2-0.1c0,0-0.1-0.1-0.1-0.2v-0.6h2.5v3.1c-0.2,0.1-0.4,0.3-0.6,0.4c-0.2,0.1-0.5,0.2-0.7,0.3
		c-0.2,0.1-0.5,0.1-0.8,0.2s-0.6,0.1-0.9,0.1c-0.6,0-1.1-0.1-1.6-0.3c-0.5-0.2-0.9-0.5-1.3-0.8c-0.4-0.4-0.6-0.8-0.8-1.3
		c-0.2-0.5-0.3-1.1-0.3-1.7c0-0.6,0.1-1.2,0.3-1.7c0.2-0.5,0.5-0.9,0.8-1.3s0.8-0.6,1.3-0.8s1.1-0.3,1.7-0.3c0.3,0,0.6,0,0.9,0.1
		c0.3,0,0.5,0.1,0.8,0.2c0.2,0.1,0.4,0.2,0.6,0.3s0.4,0.3,0.6,0.4l-0.3,0.5C69.3,25,69.2,25,69.1,25c-0.1,0-0.1,0-0.2-0.1
		c-0.1-0.1-0.2-0.1-0.3-0.2s-0.3-0.1-0.4-0.2c-0.2-0.1-0.4-0.1-0.6-0.2c-0.2,0-0.5-0.1-0.8-0.1c-0.5,0-0.9,0.1-1.2,0.2
		c-0.4,0.1-0.7,0.4-0.9,0.6c-0.3,0.3-0.5,0.6-0.6,1c-0.1,0.4-0.2,0.8-0.2,1.3c0,0.5,0.1,1,0.2,1.4c0.1,0.4,0.3,0.7,0.6,1
		c0.3,0.3,0.6,0.5,0.9,0.6C65.9,30.6,66.3,30.7,66.7,30.7z"/>
	<path class="st1" d="M73.5,25.7c0.4,0,0.8,0.1,1.1,0.2s0.6,0.3,0.8,0.6c0.2,0.3,0.4,0.6,0.5,0.9c0.1,0.4,0.2,0.8,0.2,1.2
		c0,0.4-0.1,0.8-0.2,1.2c-0.1,0.4-0.3,0.7-0.5,0.9c-0.2,0.3-0.5,0.4-0.8,0.6s-0.7,0.2-1.1,0.2c-0.4,0-0.8-0.1-1.1-0.2
		c-0.3-0.1-0.6-0.3-0.9-0.6c-0.2-0.3-0.4-0.6-0.5-0.9s-0.2-0.8-0.2-1.2c0-0.4,0.1-0.8,0.2-1.2s0.3-0.7,0.5-0.9
		c0.2-0.3,0.5-0.4,0.9-0.6C72.7,25.8,73.1,25.7,73.5,25.7z M73.5,30.8c0.6,0,1-0.2,1.3-0.6s0.4-0.9,0.4-1.6c0-0.7-0.1-1.2-0.4-1.6
		s-0.7-0.6-1.3-0.6c-0.3,0-0.5,0-0.7,0.1c-0.2,0.1-0.4,0.2-0.5,0.4c-0.1,0.2-0.2,0.4-0.3,0.7c-0.1,0.3-0.1,0.6-0.1,0.9
		s0,0.6,0.1,0.9c0.1,0.3,0.2,0.5,0.3,0.7c0.1,0.2,0.3,0.3,0.5,0.4S73.2,30.8,73.5,30.8z"/>
	<path class="st1" d="M78.7,24c0,0.1,0,0.2-0.1,0.3s-0.1,0.2-0.2,0.2c-0.1,0.1-0.1,0.1-0.2,0.2c-0.1,0-0.2,0.1-0.3,0.1
		c-0.1,0-0.2,0-0.3-0.1c-0.1,0-0.2-0.1-0.2-0.2c-0.1-0.1-0.1-0.1-0.2-0.2s-0.1-0.2-0.1-0.3c0-0.1,0-0.2,0.1-0.3
		c0-0.1,0.1-0.2,0.2-0.2c0.1-0.1,0.1-0.1,0.2-0.2c0.1,0,0.2-0.1,0.3-0.1c0.1,0,0.2,0,0.3,0.1c0.1,0,0.2,0.1,0.2,0.2s0.1,0.1,0.2,0.2
		C78.7,23.8,78.7,23.9,78.7,24z M78.5,25.8v5.7h-1v-5.7H78.5z"/>
	<path class="st1" d="M80.3,31.5v-5.7h0.6c0.1,0,0.2,0.1,0.3,0.2l0.1,0.6c0.2-0.3,0.5-0.5,0.8-0.7c0.3-0.2,0.7-0.3,1.1-0.3
		c0.3,0,0.6,0.1,0.8,0.2c0.2,0.1,0.4,0.2,0.6,0.4c0.2,0.2,0.3,0.4,0.4,0.7c0.1,0.3,0.1,0.6,0.1,0.9v3.6h-1v-3.6c0-0.4-0.1-0.8-0.3-1
		s-0.5-0.4-0.9-0.4c-0.3,0-0.6,0.1-0.8,0.2c-0.3,0.1-0.5,0.3-0.7,0.6v4.2H80.3z"/>
	<path class="st1" d="M89.7,26.7c0,0.1-0.1,0.1-0.2,0.1c-0.1,0-0.1,0-0.2-0.1s-0.2-0.1-0.3-0.1c-0.1-0.1-0.2-0.1-0.4-0.1
		c-0.1,0-0.3-0.1-0.5-0.1c-0.2,0-0.3,0-0.5,0.1c-0.1,0-0.2,0.1-0.3,0.2c-0.1,0.1-0.2,0.2-0.2,0.3s-0.1,0.2-0.1,0.3
		c0,0.1,0,0.3,0.1,0.4c0.1,0.1,0.2,0.2,0.3,0.3c0.1,0.1,0.3,0.1,0.5,0.2c0.2,0.1,0.4,0.1,0.5,0.2c0.2,0.1,0.4,0.1,0.5,0.2
		c0.2,0.1,0.3,0.2,0.5,0.3c0.1,0.1,0.2,0.2,0.3,0.4c0.1,0.2,0.1,0.4,0.1,0.6c0,0.3,0,0.5-0.1,0.7c-0.1,0.2-0.2,0.4-0.4,0.6
		c-0.2,0.2-0.4,0.3-0.7,0.4c-0.3,0.1-0.6,0.1-0.9,0.1c-0.4,0-0.8-0.1-1.1-0.2c-0.3-0.1-0.6-0.3-0.8-0.5l0.2-0.4c0,0,0.1-0.1,0.1-0.1
		c0,0,0.1,0,0.2,0s0.1,0,0.2,0.1c0.1,0.1,0.2,0.1,0.3,0.2c0.1,0.1,0.2,0.1,0.4,0.2c0.2,0.1,0.3,0.1,0.6,0.1c0.2,0,0.4,0,0.5-0.1
		c0.1,0,0.3-0.1,0.4-0.2c0.1-0.1,0.2-0.2,0.2-0.3c0-0.1,0.1-0.2,0.1-0.4c0-0.2,0-0.3-0.1-0.4c-0.1-0.1-0.2-0.2-0.3-0.3
		c-0.1-0.1-0.3-0.1-0.5-0.2s-0.4-0.1-0.5-0.2s-0.4-0.1-0.5-0.2s-0.3-0.2-0.5-0.3c-0.1-0.1-0.2-0.3-0.3-0.4c-0.1-0.2-0.1-0.4-0.1-0.6
		c0-0.2,0-0.4,0.1-0.6s0.2-0.4,0.4-0.5c0.2-0.2,0.4-0.3,0.6-0.4c0.2-0.1,0.5-0.1,0.9-0.1c0.4,0,0.7,0.1,1,0.2
		c0.3,0.1,0.6,0.3,0.8,0.5L89.7,26.7z"/>
	<path class="st1" d="M94.8,28.1v3.3h-1.1v-8H96c0.5,0,0.9,0.1,1.3,0.2c0.4,0.1,0.7,0.2,0.9,0.4s0.4,0.4,0.5,0.7s0.2,0.6,0.2,0.9
		c0,0.3,0,0.5-0.1,0.8c-0.1,0.2-0.2,0.5-0.4,0.7c-0.2,0.2-0.4,0.4-0.6,0.5c-0.2,0.1-0.5,0.2-0.8,0.3c0.1,0.1,0.3,0.2,0.4,0.3
		l2.3,3.2h-1c-0.2,0-0.3-0.1-0.4-0.2l-2.1-2.9c-0.1-0.1-0.1-0.2-0.2-0.2c-0.1,0-0.2-0.1-0.3-0.1H94.8z M94.8,27.3H96
		c0.3,0,0.6,0,0.8-0.1c0.2-0.1,0.4-0.2,0.6-0.3s0.3-0.3,0.4-0.5c0.1-0.2,0.1-0.4,0.1-0.6c0-0.5-0.2-0.8-0.5-1.1s-0.8-0.4-1.4-0.4
		h-1.2V27.3z"/>
	<path class="st1" d="M102.9,25.7c0.3,0,0.7,0.1,0.9,0.2c0.3,0.1,0.5,0.3,0.7,0.5c0.2,0.2,0.4,0.5,0.5,0.8s0.2,0.7,0.2,1.1
		c0,0.2,0,0.3,0,0.3c0,0.1-0.1,0.1-0.2,0.1h-3.8c0,0.4,0.1,0.7,0.1,0.9c0.1,0.3,0.2,0.5,0.4,0.7s0.3,0.3,0.6,0.4
		c0.2,0.1,0.5,0.1,0.7,0.1c0.2,0,0.5,0,0.6-0.1s0.3-0.1,0.5-0.2c0.1-0.1,0.2-0.1,0.3-0.2c0.1-0.1,0.2-0.1,0.2-0.1
		c0.1,0,0.1,0,0.2,0.1l0.3,0.4c-0.1,0.1-0.3,0.3-0.4,0.4c-0.2,0.1-0.4,0.2-0.5,0.3c-0.2,0.1-0.4,0.1-0.6,0.2c-0.2,0-0.4,0.1-0.6,0.1
		c-0.4,0-0.8-0.1-1.1-0.2c-0.3-0.1-0.6-0.3-0.9-0.6c-0.2-0.3-0.4-0.6-0.6-0.9s-0.2-0.8-0.2-1.3c0-0.4,0.1-0.8,0.2-1.1
		c0.1-0.3,0.3-0.6,0.5-0.9c0.2-0.3,0.5-0.4,0.8-0.6C102.1,25.8,102.5,25.7,102.9,25.7z M102.9,26.5c-0.5,0-0.9,0.1-1.1,0.4
		s-0.4,0.7-0.5,1.2h3.1c0-0.2,0-0.4-0.1-0.6s-0.2-0.4-0.3-0.5c-0.1-0.1-0.3-0.2-0.4-0.3C103.4,26.5,103.2,26.5,102.9,26.5z"/>
	<path class="st1" d="M110.7,31.5h-0.4c-0.1,0-0.2,0-0.2,0c-0.1,0-0.1-0.1-0.1-0.2l-0.1-0.5c-0.1,0.1-0.3,0.3-0.4,0.4
		c-0.1,0.1-0.3,0.2-0.4,0.3c-0.2,0.1-0.3,0.1-0.5,0.2s-0.4,0.1-0.6,0.1c-0.2,0-0.4,0-0.6-0.1c-0.2-0.1-0.4-0.2-0.5-0.3
		s-0.3-0.3-0.3-0.5s-0.1-0.4-0.1-0.7c0-0.2,0.1-0.4,0.2-0.6c0.1-0.2,0.3-0.4,0.6-0.6c0.3-0.2,0.6-0.3,1.1-0.4c0.4-0.1,1-0.2,1.6-0.2
		v-0.4c0-0.4-0.1-0.8-0.3-1c-0.2-0.2-0.5-0.3-0.8-0.3c-0.2,0-0.4,0-0.6,0.1c-0.2,0.1-0.3,0.1-0.4,0.2c-0.1,0.1-0.2,0.1-0.3,0.2
		c-0.1,0.1-0.2,0.1-0.3,0.1c-0.1,0-0.1,0-0.2-0.1c0,0-0.1-0.1-0.1-0.1l-0.2-0.3c0.3-0.3,0.7-0.5,1-0.7c0.4-0.1,0.8-0.2,1.2-0.2
		c0.3,0,0.6,0.1,0.8,0.2c0.2,0.1,0.5,0.2,0.6,0.4c0.2,0.2,0.3,0.4,0.4,0.7c0.1,0.3,0.1,0.6,0.1,0.9V31.5z M108.1,30.9
		c0.2,0,0.3,0,0.5-0.1c0.1,0,0.3-0.1,0.4-0.2c0.1-0.1,0.3-0.1,0.4-0.2s0.2-0.2,0.3-0.3v-1.2c-0.5,0-0.8,0-1.2,0.1
		c-0.3,0.1-0.6,0.1-0.8,0.2s-0.3,0.2-0.4,0.3c-0.1,0.1-0.1,0.3-0.1,0.4c0,0.1,0,0.3,0.1,0.4c0,0.1,0.1,0.2,0.2,0.3
		c0.1,0.1,0.2,0.1,0.3,0.2C107.8,30.8,108,30.9,108.1,30.9z"/>
	<path class="st1" d="M113.3,23.2v8.2h-1v-8.2H113.3z"/>
	<path class="st1" d="M116.8,31.6c-0.4,0-0.8-0.1-1-0.4c-0.2-0.2-0.4-0.6-0.4-1.1v-3.5h-0.7c-0.1,0-0.1,0-0.2-0.1
		c0,0-0.1-0.1-0.1-0.2V26l0.9-0.1l0.2-1.7c0-0.1,0-0.1,0.1-0.1s0.1-0.1,0.2-0.1h0.5v1.9h1.6v0.7h-1.6V30c0,0.2,0.1,0.4,0.2,0.5
		c0.1,0.1,0.3,0.2,0.4,0.2c0.1,0,0.2,0,0.3,0c0.1,0,0.1-0.1,0.2-0.1c0.1,0,0.1-0.1,0.1-0.1c0,0,0.1,0,0.1,0c0.1,0,0.1,0,0.1,0.1
		l0.3,0.5c-0.2,0.2-0.4,0.3-0.6,0.4C117.3,31.5,117,31.6,116.8,31.6z"/>
	<path class="st1" d="M120.9,33.1c0,0.1-0.1,0.1-0.1,0.2c0,0-0.1,0.1-0.2,0.1h-0.7l1-2.2l-2.3-5.3h0.9c0.1,0,0.2,0,0.2,0.1
		c0,0,0.1,0.1,0.1,0.1l1.5,3.6c0,0.1,0.1,0.2,0.1,0.2s0,0.2,0.1,0.3c0-0.1,0.1-0.2,0.1-0.3c0-0.1,0.1-0.2,0.1-0.3l1.5-3.6
		c0-0.1,0.1-0.1,0.1-0.1c0.1,0,0.1-0.1,0.2-0.1h0.8L120.9,33.1z"/>
	<path class="st1" d="M130.8,30.7c0.2,0,0.4,0,0.6,0s0.4-0.1,0.5-0.1c0.2,0,0.3-0.1,0.5-0.1c0.1-0.1,0.3-0.1,0.4-0.2v-1.8h-1.2
		c-0.1,0-0.1,0-0.2-0.1c0,0-0.1-0.1-0.1-0.2v-0.6h2.5v3.1c-0.2,0.1-0.4,0.3-0.6,0.4c-0.2,0.1-0.5,0.2-0.7,0.3
		c-0.2,0.1-0.5,0.1-0.8,0.2c-0.3,0-0.6,0.1-0.9,0.1c-0.6,0-1.1-0.1-1.6-0.3c-0.5-0.2-0.9-0.5-1.3-0.8s-0.6-0.8-0.8-1.3
		c-0.2-0.5-0.3-1.1-0.3-1.7c0-0.6,0.1-1.2,0.3-1.7c0.2-0.5,0.5-0.9,0.8-1.3s0.8-0.6,1.3-0.8c0.5-0.2,1.1-0.3,1.7-0.3
		c0.3,0,0.6,0,0.9,0.1c0.3,0,0.5,0.1,0.8,0.2c0.2,0.1,0.4,0.2,0.6,0.3s0.4,0.3,0.6,0.4l-0.3,0.5c-0.1,0.1-0.1,0.2-0.2,0.2
		c-0.1,0-0.1,0-0.2-0.1c-0.1-0.1-0.2-0.1-0.3-0.2s-0.3-0.1-0.4-0.2c-0.2-0.1-0.4-0.1-0.6-0.2c-0.2,0-0.5-0.1-0.8-0.1
		c-0.5,0-0.9,0.1-1.2,0.2c-0.4,0.1-0.7,0.4-0.9,0.6c-0.3,0.3-0.5,0.6-0.6,1c-0.1,0.4-0.2,0.8-0.2,1.3c0,0.5,0.1,1,0.2,1.4
		c0.1,0.4,0.3,0.7,0.6,1s0.6,0.5,0.9,0.6C130,30.6,130.4,30.7,130.8,30.7z"/>
	<path class="st1" d="M135.3,31.5v-5.7h0.6c0.1,0,0.2,0,0.2,0.1c0,0,0.1,0.1,0.1,0.2l0.1,0.9c0.2-0.4,0.4-0.7,0.7-0.9
		c0.3-0.2,0.6-0.3,1-0.3c0.2,0,0.3,0,0.4,0.1c0.1,0,0.2,0.1,0.4,0.1l-0.1,0.7c0,0.1-0.1,0.1-0.2,0.1c-0.1,0-0.1,0-0.2-0.1
		c-0.1,0-0.3-0.1-0.5-0.1c-0.3,0-0.6,0.1-0.9,0.3s-0.4,0.5-0.6,0.9v3.6H135.3z"/>
	<path class="st1" d="M142.1,25.7c0.4,0,0.8,0.1,1.1,0.2s0.6,0.3,0.8,0.6c0.2,0.3,0.4,0.6,0.5,0.9s0.2,0.8,0.2,1.2
		c0,0.4-0.1,0.8-0.2,1.2s-0.3,0.7-0.5,0.9s-0.5,0.4-0.8,0.6s-0.7,0.2-1.1,0.2c-0.4,0-0.8-0.1-1.1-0.2s-0.6-0.3-0.9-0.6
		s-0.4-0.6-0.5-0.9c-0.1-0.4-0.2-0.8-0.2-1.2c0-0.4,0.1-0.8,0.2-1.2c0.1-0.4,0.3-0.7,0.5-0.9c0.2-0.3,0.5-0.4,0.9-0.6
		S141.7,25.7,142.1,25.7z M142.1,30.8c0.6,0,1-0.2,1.3-0.6s0.4-0.9,0.4-1.6c0-0.7-0.1-1.2-0.4-1.6s-0.7-0.6-1.3-0.6
		c-0.3,0-0.5,0-0.7,0.1c-0.2,0.1-0.4,0.2-0.5,0.4c-0.1,0.2-0.2,0.4-0.3,0.7c-0.1,0.3-0.1,0.6-0.1,0.9s0,0.6,0.1,0.9
		c0.1,0.3,0.2,0.5,0.3,0.7s0.3,0.3,0.5,0.4C141.5,30.7,141.8,30.8,142.1,30.8z"/>
	<path class="st1" d="M146.9,25.8v3.6c0,0.4,0.1,0.8,0.3,1s0.5,0.4,0.9,0.4c0.3,0,0.6-0.1,0.8-0.2s0.5-0.3,0.7-0.6v-4.2h1v5.7H150
		c-0.1,0-0.2-0.1-0.3-0.2l-0.1-0.6c-0.2,0.3-0.5,0.5-0.8,0.7c-0.3,0.2-0.7,0.2-1,0.2c-0.3,0-0.6-0.1-0.8-0.2
		c-0.2-0.1-0.4-0.2-0.6-0.4c-0.2-0.2-0.3-0.4-0.4-0.7c-0.1-0.3-0.1-0.6-0.1-0.9v-3.6H146.9z"/>
	<path class="st1" d="M152.2,33.4v-7.6h0.6c0.1,0,0.2,0.1,0.3,0.2l0.1,0.7c0.2-0.3,0.5-0.5,0.8-0.7s0.7-0.3,1.1-0.3
		c0.3,0,0.6,0.1,0.9,0.2c0.3,0.1,0.5,0.3,0.7,0.6c0.2,0.2,0.3,0.5,0.4,0.9c0.1,0.4,0.2,0.8,0.2,1.2c0,0.4-0.1,0.8-0.2,1.2
		s-0.3,0.7-0.5,0.9c-0.2,0.3-0.5,0.5-0.8,0.6c-0.3,0.2-0.6,0.2-1,0.2c-0.3,0-0.6-0.1-0.9-0.2c-0.2-0.1-0.5-0.3-0.7-0.5v2.5H152.2z
		 M154.7,26.5c-0.3,0-0.6,0.1-0.9,0.2c-0.2,0.1-0.5,0.4-0.7,0.6v2.7c0.2,0.2,0.4,0.4,0.6,0.5s0.5,0.2,0.7,0.2c0.5,0,0.9-0.2,1.2-0.6
		c0.3-0.4,0.4-0.9,0.4-1.6c0-0.4,0-0.7-0.1-0.9c-0.1-0.3-0.2-0.5-0.3-0.7c-0.1-0.2-0.3-0.3-0.5-0.4S154.9,26.5,154.7,26.5z"/>
	<path class="st1" d="M158.1,30.8c0-0.1,0-0.2,0-0.2c0-0.1,0.1-0.1,0.1-0.2c0.1-0.1,0.1-0.1,0.2-0.1s0.2,0,0.3,0
		c0.1,0,0.2,0,0.3,0.1c0.1,0,0.2,0.1,0.2,0.2s0.1,0.2,0.1,0.3c0,0.1,0,0.2,0,0.3c0,0.2,0,0.3-0.1,0.5c0,0.2-0.1,0.4-0.2,0.5
		c-0.1,0.2-0.2,0.3-0.3,0.5c-0.1,0.2-0.3,0.3-0.4,0.5l-0.2-0.2c0,0-0.1-0.1-0.1-0.2c0,0,0-0.1,0.1-0.2c0,0,0.1-0.1,0.1-0.2
		c0.1-0.1,0.1-0.1,0.2-0.2c0.1-0.1,0.1-0.2,0.2-0.3c0-0.1,0.1-0.2,0.1-0.3h-0.1c-0.1,0-0.2,0-0.3,0c-0.1,0-0.1-0.1-0.2-0.1
		c-0.1-0.1-0.1-0.1-0.1-0.2C158.1,31,158.1,30.9,158.1,30.8z"/>
	<path class="st1" d="M164.1,30.6h3.5v0.9H163v-8h1.1V30.6z"/>
</g>
<g class="st0">
	<path class="st1" d="M169.9,30.6h3.5v0.9h-4.5v-8h1.1V30.6z"/>
</g>
<g class="st0">
	<path class="st1" d="M179.7,29.8c0.1,0,0.1,0,0.2,0.1l0.4,0.5c-0.3,0.4-0.7,0.7-1.2,0.9c-0.5,0.2-1,0.3-1.7,0.3
		c-0.6,0-1.1-0.1-1.6-0.3s-0.9-0.5-1.2-0.8c-0.3-0.4-0.6-0.8-0.8-1.3c-0.2-0.5-0.3-1.1-0.3-1.7s0.1-1.2,0.3-1.7
		c0.2-0.5,0.5-0.9,0.8-1.3c0.4-0.4,0.8-0.6,1.3-0.8s1-0.3,1.6-0.3c0.6,0,1.1,0.1,1.5,0.3c0.4,0.2,0.8,0.4,1.1,0.7l-0.4,0.5
		c0,0-0.1,0.1-0.1,0.1c0,0-0.1,0-0.1,0c0,0-0.1,0-0.2-0.1c-0.1,0-0.1-0.1-0.2-0.1c-0.1-0.1-0.2-0.1-0.3-0.2s-0.2-0.1-0.4-0.2
		c-0.1-0.1-0.3-0.1-0.5-0.1c-0.2,0-0.4-0.1-0.6-0.1c-0.4,0-0.8,0.1-1.2,0.2c-0.4,0.1-0.7,0.4-0.9,0.6c-0.3,0.3-0.5,0.6-0.6,1
		c-0.1,0.4-0.2,0.8-0.2,1.3c0,0.5,0.1,0.9,0.2,1.3c0.1,0.4,0.3,0.7,0.6,1c0.2,0.3,0.5,0.5,0.9,0.6c0.3,0.1,0.7,0.2,1.1,0.2
		c0.2,0,0.5,0,0.6,0c0.2,0,0.4-0.1,0.5-0.1s0.3-0.1,0.5-0.2c0.1-0.1,0.3-0.2,0.4-0.3C179.6,29.8,179.7,29.8,179.7,29.8z"/>
</g>
<circle class="st1" cx="29" cy="28.3" r="27.6"/>
<radialGradient id="SVGID_1_" cx="20.21" cy="-449.4567" r="318.14" gradientTransform="matrix(0.48 0 0 -0.48 -49.7 -207.91)" gradientUnits="userSpaceOnUse">
	<stop  offset="0" style="stop-color:#231F20"/>
	<stop  offset="5.000000e-02" style="stop-color:#5D5E61"/>
	<stop  offset="0.3" style="stop-color:#C4C6C8"/>
	<stop  offset="0.35" style="stop-color:#E6E7E8"/>
	<stop  offset="0.4" style="stop-color:#E9E9EA"/>
	<stop  offset="0.45" style="stop-color:#E6E7E8"/>
	<stop  offset="0.55" style="stop-color:#A3A5A8"/>
	<stop  offset="0.7" style="stop-color:#5D5E61"/>
	<stop  offset="0.88" style="stop-color:#828282"/>
	<stop  offset="0.95" style="stop-color:#5D5E61"/>
	<stop  offset="1" style="stop-color:#231F20"/>
</radialGradient>
<circle class="st2" cx="29" cy="28.3" r="25.6"/>
<radialGradient id="SVGID_2_" cx="20.21" cy="-449.4567" r="318.14" gradientTransform="matrix(0.48 0 0 -0.48 -49.7 -207.91)" gradientUnits="userSpaceOnUse">
	<stop  offset="0" style="stop-color:#231F20"/>
	<stop  offset="5.000000e-02" style="stop-color:#5D5E61"/>
	<stop  offset="0.3" style="stop-color:#C4C6C8"/>
	<stop  offset="0.35" style="stop-color:#E6E7E8"/>
	<stop  offset="0.4" style="stop-color:#E9E9EA"/>
	<stop  offset="0.45" style="stop-color:#E6E7E8"/>
	<stop  offset="0.55" style="stop-color:#A3A5A8"/>
	<stop  offset="0.7" style="stop-color:#5D5E61"/>
	<stop  offset="0.88" style="stop-color:#828282"/>
	<stop  offset="0.95" style="stop-color:#5D5E61"/>
	<stop  offset="1" style="stop-color:#231F20"/>
</radialGradient>
<path class="st3" d="M0.8,28.3c0,15.6,12.6,28.2,28.2,28.2s28.2-12.6,28.2-28.2C57.1,12.8,44.6,0.1,29,0.1
	C13.4,0.1,0.8,12.7,0.8,28.3z M1.8,28.3C1.8,13.3,14,1.2,29,1.2c15,0,27.1,12.2,27.1,27.2c0,15-12.1,27.1-27.1,27.1
	C14,55.5,1.8,43.3,1.8,28.3L1.8,28.3z"/>
<g class="st0">
	<path class="st1" d="M29.4,48c2.4,0,4.4-0.7,5.9-2c1.5-1.3,2.3-3.3,2.3-5.9v-7.5h-3.8v-0.2h11.2v0.2h-3v16h-0.2v-0.7
		c0-1.3-0.1-2.3-0.4-2.9c-0.3-0.6-0.8-0.9-1.6-0.9c-0.7,0-1.3,0.2-1.9,0.6c-0.6,0.4-1.3,0.9-2,1.4c-0.7,0.5-1.6,1-2.6,1.4
		c-1,0.4-2.2,0.6-3.7,0.6c-2.3,0-4.4-0.5-6.3-1.5c-1.9-1-3.6-2.3-5-4c-1.4-1.7-2.5-3.7-3.3-5.9c-0.8-2.3-1.2-4.7-1.2-7.3
		c0-2.7,0.4-5.3,1.2-7.6c0.8-2.3,2-4.3,3.4-6c1.5-1.7,3.2-3,5.2-4c2-1,4.2-1.5,6.6-1.5c1.1,0,2.1,0.1,2.8,0.3s1.5,0.4,2.1,0.7
		c0.6,0.2,1.2,0.4,1.7,0.7c0.5,0.2,1.1,0.3,1.7,0.3c0.6,0,1.1-0.2,1.4-0.5c0.3-0.3,0.5-0.8,0.5-1.4h0.2v11h-0.2
		c-0.3-1.6-0.7-3-1.2-4.3c-0.5-1.3-1.1-2.4-1.9-3.4c-0.8-0.9-1.8-1.7-2.9-2.2c-1.2-0.5-2.5-0.8-4.2-0.8c-2.1,0-3.9,0.5-5.4,1.5
		c-1.5,1-2.7,2.3-3.6,4c-0.9,1.7-1.6,3.6-2,5.9c-0.4,2.3-0.6,4.7-0.6,7.2c0,2.6,0.2,5,0.7,7.3c0.5,2.3,1.1,4.3,2,6
		c0.9,1.7,2.1,3.1,3.4,4C25.9,47.5,27.5,48,29.4,48z"/>
</g>
</svg>
