<svg id="Layer_1" data-name="Layer 1" xmlns="http://www.w3.org/2000/svg" viewBox="0 0 100 50"><title>Artboard 1</title><path d="M39.3,40.8a1.74,1.74,0,0,1-.8-1.3v-.3c.2-.4.7-1.8,1.5-3.6l-4-1.9.7-1.6c.1-.2.2-.2.4-.2l3.6.4a.75.75,0,0,0,.8-.5c.6-1.5,1.3-3.1,2-4.7L32,24.6,33.2,22a.52.52,0,0,1,.4-.2l11.4.4a.62.62,0,0,0,.6-.4c.6-1.4,2.6-6.2,2.7-6.4.9-2.2,2.4-3.5,4.2-2.6s1.8,2.8.6,4.9c-.1.2-2.5,4.8-3.2,6.2a.62.62,0,0,0,.1.7l7.6,8.6a.6.6,0,0,1,.1.4l-1.2,2.6-9.2-7.3c-.8,1.5-1.6,3.1-2.4,4.5a.65.65,0,0,0,.2.9l2.6,2.5c.1.1.2.3.1.4L47,38.7l-4-1.9c-.9,1.8-1.6,3.1-1.8,3.5-.1.1-.1.2-.2.2a2.28,2.28,0,0,1-1.7.3" style="fill:#2ec4b6"/><path d="M14.7,40.7h0L7,40.8v-.1h.2a2.3,2.3,0,0,0,1.4-.4,5.7,5.7,0,0,0,1.1-1.1c.3-.5.6-1,.9-1.6a10.66,10.66,0,0,0,.7-1.9L21,9.2h1.7L35,40.7h2.5v.1H28v-.1h3L25.7,27.3H14.6l-3.1,8.5a7.19,7.19,0,0,0-.4,1.9,2.88,2.88,0,0,0,.3,1.6,2.35,2.35,0,0,0,1.1,1.1,3.58,3.58,0,0,0,1.9.4h.3Zm-.1-13.6H25.7L20,12.4Z" style="fill:#e3e3e3"/><path d="M85.4,9.3V9.2H93v.1h-.2a3,3,0,0,0-2.6,1.5,12.48,12.48,0,0,0-1.6,3.5L81.2,40.9H79.5L72.2,16,64.7,40.9H63L53.9,9.3H51.4V9.2h9.4v.1h-3L65.7,37l6.4-21.4L70.2,9.3H67.7V9.2h9.2v.1h-3L82,37.1l6.4-22.9a6.8,6.8,0,0,0,.3-1.9,4.14,4.14,0,0,0-.2-1.6,2.13,2.13,0,0,0-1-1.1,3.58,3.58,0,0,0-1.9-.4h-.2Z" style="fill:#e3e3e3"/></svg>