<?xml version="1.0" encoding="utf-8"?>
<!-- Generator: Adobe Illustrator 19.2.1, SVG Export Plug-In . SVG Version: 6.00 Build 0)  -->
<!DOCTYPE svg PUBLIC "-//W3C//DTD SVG 1.1//EN" "http://www.w3.org/Graphics/SVG/1.1/DTD/svg11.dtd">
<svg version="1.1" xmlns="http://www.w3.org/2000/svg" xmlns:xlink="http://www.w3.org/1999/xlink" x="0px" y="0px"
	 viewBox="0 0 327.1 43.3" style="enable-background:new 0 0 327.1 43.3;" xml:space="preserve">
<style type="text/css">
	.st0{fill:#343434;}
	.st1{fill:#E92BFF;}
</style>
<g id="Layer_1">
</g>
<g id="Layer_2">
</g>
<g id="Layer_3">
	<path class="st0" d="M1.2,41.9V1.3h3.9v37.1h23.5v3.5H1.2z"/>
	<path class="st0" d="M53.9,42.2c-2.8,0-5.4-0.6-7.8-1.7c-2.3-1.2-4.4-2.7-6-4.6c-1.7-1.9-3-4.1-3.9-6.6c-0.9-2.5-1.4-5-1.4-7.6
		c0-2.7,0.5-5.3,1.5-7.8c1-2.5,2.3-4.7,4-6.6c1.7-1.9,3.7-3.4,6.1-4.5C48.7,1.6,51.3,1,54,1c2.8,0,5.4,0.6,7.8,1.8
		c2.3,1.2,4.3,2.8,6,4.7c1.7,1.9,2.9,4.1,3.9,6.6s1.4,5,1.4,7.5c0,2.7-0.5,5.3-1.5,7.8c-1,2.5-2.3,4.7-4,6.6c-1.7,1.9-3.7,3.4-6,4.5
		C59.1,41.7,56.6,42.2,53.9,42.2z M38.9,21.6c0,2.2,0.4,4.3,1.1,6.4c0.7,2,1.8,3.9,3.1,5.4c1.3,1.6,2.9,2.8,4.7,3.8
		c1.8,0.9,3.9,1.4,6.1,1.4c2.3,0,4.4-0.5,6.2-1.5c1.9-1,3.5-2.3,4.7-3.9c1.3-1.6,2.3-3.4,3-5.4c0.7-2,1.1-4.1,1.1-6.2
		c0-2.2-0.4-4.3-1.1-6.4c-0.7-2-1.8-3.8-3.1-5.4C63.4,8.3,61.8,7,60,6.1c-1.8-0.9-3.9-1.4-6.1-1.4c-2.3,0-4.4,0.5-6.2,1.5
		c-1.9,1-3.5,2.3-4.7,3.9s-2.3,3.4-3,5.4C39.2,17.5,38.9,19.5,38.9,21.6z"/>
	<path class="st0" d="M118.1,41.9V1.3h13.7c3.2,0,6.1,0.5,8.5,1.6c2.4,1.1,4.5,2.5,6.1,4.3c1.6,1.8,2.8,4,3.6,6.4
		c0.8,2.5,1.2,5.1,1.2,7.9c0,3.1-0.5,5.9-1.4,8.4c-0.9,2.5-2.2,4.6-3.9,6.4c-1.7,1.8-3.7,3.1-6.1,4.1c-2.4,1-5.1,1.5-8.1,1.5H118.1z
		 M147.3,21.6c0-2.4-0.3-4.7-1-6.7c-0.7-2-1.7-3.8-3-5.3c-1.3-1.5-2.9-2.6-4.8-3.5c-1.9-0.8-4.1-1.2-6.6-1.2h-9.8v33.5h9.8
		c2.5,0,4.7-0.4,6.7-1.3c1.9-0.9,3.5-2,4.8-3.5c1.3-1.5,2.3-3.3,2.9-5.3C146.9,26.2,147.3,24,147.3,21.6z"/>
	<path class="st0" d="M175.4,1.3L190,37l14.4-35.6h4.2l-16.9,40.6h-3.5L171.3,1.3H175.4z"/>
	<path class="st0" d="M214.8,41.9V1.4h3.9v40.6H214.8z"/>
	<path class="st0" d="M255.4,31.5c0,1.5-0.3,2.9-0.9,4.2S253,38.1,252,39c-1,0.9-2.2,1.7-3.6,2.2c-1.4,0.5-2.8,0.8-4.4,0.8h-19.1
		V1.3h19.5c1.4,0,2.7,0.3,3.8,0.9c1.1,0.6,2.1,1.4,2.9,2.4c0.8,1,1.4,2.1,1.9,3.3c0.4,1.2,0.7,2.5,0.7,3.7c0,2.1-0.5,3.9-1.5,5.6
		c-1,1.7-2.5,3-4.3,3.8c2.3,0.7,4.2,2,5.5,3.8C254.7,26.8,255.4,29,255.4,31.5z M228.8,4.8v15h14c1,0,1.9-0.2,2.8-0.6
		c0.9-0.4,1.6-1,2.2-1.7c0.6-0.7,1.1-1.5,1.5-2.4c0.3-0.9,0.5-1.8,0.5-2.8c0-1-0.2-2-0.5-2.9c-0.3-0.9-0.8-1.7-1.4-2.4
		c-0.6-0.7-1.3-1.2-2.1-1.6c-0.8-0.4-1.7-0.6-2.7-0.6H228.8z M251.4,30.8c0-1-0.2-2-0.5-2.9c-0.3-0.9-0.8-1.8-1.5-2.5
		c-0.6-0.7-1.4-1.3-2.2-1.7c-0.9-0.4-1.8-0.7-2.8-0.7h-15.6v15.4H244c1,0,2-0.2,2.9-0.6c0.9-0.4,1.7-1,2.3-1.7
		c0.6-0.7,1.2-1.5,1.5-2.5C251.2,32.7,251.4,31.8,251.4,30.8z"/>
	<path class="st0" d="M288.8,38.4v3.5h-27.3V1.3h26.8v3.5h-22.8v14.6h19.9v3.4h-19.9v15.5H288.8z"/>
	<path class="st0" d="M322,8.9c-1.1-1.3-2.7-2.3-4.6-3.1s-4.1-1.2-6.5-1.2c-3.6,0-6.3,0.7-7.9,2s-2.5,3.2-2.5,5.5
		c0,1.2,0.2,2.2,0.7,3c0.4,0.8,1.1,1.5,2.1,2c0.9,0.6,2.1,1.1,3.5,1.5c1.4,0.4,3.1,0.8,5.1,1.3c2.2,0.5,4.1,1,5.8,1.5
		c1.7,0.6,3.2,1.3,4.4,2.1c1.2,0.9,2.2,1.9,2.8,3.1c0.6,1.2,1,2.8,1,4.6c0,1.9-0.4,3.5-1.1,4.9c-0.7,1.4-1.7,2.5-3,3.4
		c-1.3,0.9-2.8,1.6-4.6,2c-1.8,0.4-3.7,0.7-5.8,0.7c-6.4,0-11.8-2-16.3-5.9l1.9-3.3c1.5,1.6,3.5,2.9,6,4c2.5,1.1,5.3,1.6,8.4,1.6
		c3.2,0,5.8-0.6,7.6-1.7c1.8-1.2,2.7-2.9,2.7-5.3c0-1.3-0.3-2.3-0.8-3.2c-0.5-0.9-1.3-1.6-2.3-2.2c-1-0.6-2.3-1.2-3.9-1.6
		c-1.5-0.5-3.3-0.9-5.3-1.4c-2.1-0.5-4-1-5.6-1.5c-1.6-0.5-2.9-1.2-4-2c-1.1-0.8-1.9-1.8-2.5-2.9c-0.6-1.1-0.8-2.5-0.8-4.1
		c0-1.9,0.4-3.5,1.1-5c0.7-1.5,1.7-2.7,3-3.7c1.3-1,2.8-1.7,4.6-2.2c1.8-0.5,3.7-0.8,5.9-0.8c2.7,0,5.1,0.4,7.2,1.2
		c2.1,0.8,4,2,5.7,3.5L322,8.9z"/>
	<g>
		<path class="st0" d="M99.8,27.8h-8.5c-1.9,0-3.4-1.5-3.4-3.4V5.2c0-1.9,1.5-3.4,3.4-3.4h8.5c1.9,0,3.4,1.5,3.4,3.4v19.2
			C103.2,26.2,101.7,27.8,99.8,27.8z M98.9,37.8v-4.8h-6.7v4.8H86v4.5h19v-4.5H98.9z"/>
		<g>
			<path class="st1" d="M95.5,34.7c-7.6,0-14.3-5.6-16.3-13.6c-0.3-1.1,0.4-2.3,1.5-2.6c1.1-0.3,2.3,0.4,2.6,1.5
				c1.6,6.2,6.6,10.5,12.2,10.5c5.6,0,10.7-4.3,12.2-10.5c0.3-1.1,1.4-1.8,2.6-1.5c1.1,0.3,1.8,1.4,1.5,2.6
				C109.8,29.1,103.1,34.7,95.5,34.7z"/>
		</g>
	</g>
	<g>
		<path class="st0" d="M87.5,119.9h-8.5c-1.9,0-3.4-1.5-3.4-3.4V97.3c0-1.9,1.5-3.4,3.4-3.4h8.5c1.9,0,3.4,1.5,3.4,3.4v19.2
			C90.9,118.3,89.4,119.9,87.5,119.9z M86.6,129.9V125h-6.7v4.8h-6.1v4.5h19v-4.5H86.6z"/>
		<g>
			<path class="st1" d="M83.2,126.8c-7.6,0-14.3-5.6-16.3-13.6c-0.3-1.1,0.4-2.3,1.5-2.6c1.1-0.3,2.3,0.4,2.6,1.5
				c1.6,6.2,6.6,10.5,12.2,10.5c5.6,0,10.7-4.3,12.2-10.5c0.3-1.1,1.4-1.8,2.6-1.5s1.8,1.4,1.5,2.6
				C97.5,121.2,90.8,126.8,83.2,126.8z"/>
		</g>
	</g>
</g>
</svg>
