<svg id="Layer_1" data-name="Layer 1" xmlns="http://www.w3.org/2000/svg" viewBox="0 0 700 300"><title>wp-header</title><path d="M15.12,158a6.59,6.59,0,0,0-.27,1.81c0,2.24,1.53,3.18,3.5,3.18,2.32,0,4.75-1.37,7.15-8.05l1.14-3.14h1.53l-1.69,5.07c-2.36,7-6.13,9.12-11,9.12s-7.19-2.59-7.19-6.68a17.42,17.42,0,0,1,.75-4.6l8.53-29.63H10.29l.39-1.61H18l3.5-12.22a24.52,24.52,0,0,0,7.23-1.14L24.91,123.5H35.56l-.23,1.61H24.48Z" style="fill:#98d6d2"/><path d="M69.51,157.72c-2.32,6.76-6.44,8.29-9.75,8.29-4.12,0-5.66-1.89-5.66-4.95a20.51,20.51,0,0,1,1.34-6.33l7.62-23a12.91,12.91,0,0,0,.87-4c0-1.49-.63-2.75-2.63-2.75-5.94,0-13.68,12-19.65,29.83l-2.95,10.1h-7L47.62,111.2A8.43,8.43,0,0,0,48,109c0-2.12-1.53-3.1-5.54-3.1l.47-1.69a31.38,31.38,0,0,0,14.5-3.3L45.77,140.79c6-13.4,11.47-18.39,18.2-18.39,4.87,0,6.48,2.63,6.48,6.09a20.38,20.38,0,0,1-1.18,6.05L61.45,158a11.59,11.59,0,0,0-.59,3.07c0,1.18.47,1.92,1.89,1.92,2,0,3.93-1.77,6.21-8.21l1-3h1.53Z" style="fill:#98d6d2"/><path d="M85,147.11a34.69,34.69,0,0,0-.91,7.78c0,5.46,2.16,7.74,5.54,7.74,3.89,0,8.29-2,12.42-8.06l1.3.63C100.2,160.59,94,166,87.16,166c-6.52,0-10.61-3.89-10.61-11.36,0-11.67,11.24-32.26,26.53-32.26,3.3,0,6,1.77,6,5.3C109,137.53,94.27,144,85,147.11Zm.35-1.53c4.72-1.65,8.61-3.3,11-5.19a16,16,0,0,0,6.29-12.85c0-3.07-.47-3.62-1.3-3.62C96,123.93,88.33,134,85.35,145.58Z" style="fill:#98d6d2"/><path d="M169.48,107.66a5.6,5.6,0,0,1-5.38,5.54c-2,0-3.3-.94-3.22-2.71,0-2.67,1.93-4.6,4.6-5.42,0-.94-1.61-1.93-3.7-1.93a6.94,6.94,0,0,0-4.68,2.08c-2.91,2.75-4.44,10.26-6.52,18.19l0,.08h9.55l-.51,1.61h-9.47l-14.42,53.76a25.93,25.93,0,0,0-7.23,1.14l14.7-54.9h-7.31l.51-1.61h7.19l0-.08c2.24-8.53,4.6-13.91,8.21-17.45a14.36,14.36,0,0,1,10.06-4C166.77,101.92,169.48,104.44,169.48,107.66Z" style="fill:#98d6d2"/><path d="M192.83,127a5.83,5.83,0,0,1-5.66,5.82,2.86,2.86,0,0,1-3.18-2.91,5.41,5.41,0,0,1,3.62-5.15,1.16,1.16,0,0,0-.9-.31c-5.86,0-13,13.91-19,33.76L166,164.88h-7l9.63-34.54a11.77,11.77,0,0,0,.59-3.14c0-1.3-.59-1.85-1.69-1.85-2.36,0-4.21,2.28-6.29,8.21l-1.06,3h-1.53l2-5.86c2.32-6.76,6.4-8.29,9.71-8.29,3.58,0,4.64,2,4.64,4.68a30.58,30.58,0,0,1-1.14,6.56l-2.59,10.22c5.82-15.72,10.45-21.45,16.74-21.45A4.39,4.39,0,0,1,192.83,127Z" style="fill:#98d6d2"/><path d="M198.37,147.11a34.69,34.69,0,0,0-.91,7.78c0,5.46,2.16,7.74,5.54,7.74,3.89,0,8.29-2,12.42-8.06l1.3.63c-3.14,5.39-9.36,10.81-16.19,10.81-6.53,0-10.61-3.89-10.61-11.36,0-11.67,11.24-32.26,26.53-32.26,3.3,0,6,1.77,6,5.3C222.42,137.53,207.64,144,198.37,147.11Zm.35-1.53c4.72-1.65,8.61-3.3,11-5.19A16,16,0,0,0,216,127.54c0-3.07-.47-3.62-1.3-3.62C209.41,123.93,201.71,134,198.72,145.58Z" style="fill:#98d6d2"/><path d="M232.91,147.11a34.69,34.69,0,0,0-.91,7.78c0,5.46,2.16,7.74,5.54,7.74,3.89,0,8.29-2,12.42-8.06l1.3.63c-3.14,5.39-9.35,10.81-16.19,10.81-6.52,0-10.61-3.89-10.61-11.36,0-11.67,11.24-32.26,26.53-32.26,3.3,0,6,1.77,6,5.3C257,137.53,242.19,144,232.91,147.11Zm.35-1.53c4.72-1.65,8.61-3.3,11-5.19a16,16,0,0,0,6.29-12.85c0-3.07-.47-3.62-1.3-3.62C244,123.93,236.25,134,233.26,145.58Z" style="fill:#98d6d2"/><path d="M266.24,158a11.12,11.12,0,0,0-.51,2.83c0,1.37.59,2.16,1.89,2.16,2.08,0,3.85-2.08,6-8.21l1.06-3h1.53l-2,5.89c-2.12,6.09-5.58,8.29-9.67,8.29-4.28,0-5.54-2.28-5.54-5.23a22.59,22.59,0,0,1,1.1-6.05l13.12-43.54a8.87,8.87,0,0,0,.4-2.24c0-2.08-1.46-3.06-5.46-3.06l.55-1.69a31.32,31.32,0,0,0,14.35-3.3Z" style="fill:#98d6d2"/><path d="M318.46,151.75l-2,5.89c-2.36,6.44-6.13,8.37-9.27,8.37a5.1,5.1,0,0,1-4.44-2.12,5.59,5.59,0,0,1-.67-2.83,26.63,26.63,0,0,1,1.26-6.41l1.45-5.85C299.48,161.22,294.18,166,288.6,166c-5.07,0-7.58-4-7.58-9.75,0-12.89,11.59-33.87,23.77-33.87,2.83,0,4.83,2.16,5.15,6l1.26-4.91a27.75,27.75,0,0,0,7.43-1.1L308.56,158a11.85,11.85,0,0,0-.59,3c0,1.1.43,2,1.81,2,2.08,0,4.16-2,6.17-8.21l1-3Zm-11.08-13.2,1.49-5.86c0-.63.08-1.22.08-1.77,0-4.24-1.57-7-4.44-7-7.07,0-16.39,19.06-16.39,33.28,0,4.6,1,6.21,2.79,6.21C295.43,163.42,303.37,151.95,307.38,138.55Z" style="fill:#98d6d2"/><path d="M363,157.72c-2.32,6.76-6.44,8.29-9.75,8.29-2.56,0-4.17-.9-5.07-2.36a5,5,0,0,1-.63-2.63,20.8,20.8,0,0,1,1.38-6.29l7.62-23a13.1,13.1,0,0,0,.83-4c0-1.53-.59-2.79-2.6-2.79-6.33,0-15.56,14.81-21.18,34.31l-1.41,5.62h-7l9.63-34.54a11.11,11.11,0,0,0,.59-3c0-1.1-.39-2-1.77-2-2.36,0-4,2-6.21,8.21l-1.06,3h-1.53l2-5.86c2.32-6.76,6.09-8.29,9.55-8.29,3.69,0,4.76,2,4.76,4.75a28.49,28.49,0,0,1-1.1,6.48l-2.79,11c7-16.51,12.85-22.24,20.16-22.24,4.87,0,6.49,2.59,6.49,6a20.87,20.87,0,0,1-1.18,6.09L355,158a10.21,10.21,0,0,0-.63,3,1.72,1.72,0,0,0,1.93,2c2,0,4-1.77,6.21-8.21l1.06-3H365Z" style="fill:#98d6d2"/><path d="M378,154.9c0,5.46,2.28,7.74,5.66,7.74,3.85,0,7.94-2,12.06-8.06l1.61.63C394.19,160.59,388,166,381.14,166c-6.44,0-10.61-4-10.61-11.83,0-12.42,9.24-31.79,24.29-31.79,4.75,0,8.72,2.55,8.72,6.84,0,3.07-2.2,6.44-5.73,6.44a3,3,0,0,1-3.3-3.14c0-3.14,2.91-5.5,6-6-1.06-1.53-2.75-2.48-5.46-2.48C386.88,124,378,138.55,378,154.9Z" style="fill:#98d6d2"/><path d="M413.29,147.11a34.84,34.84,0,0,0-.9,7.78c0,5.46,2.16,7.74,5.54,7.74,3.89,0,8.29-2,12.42-8.06l1.3.63c-3.14,5.39-9.35,10.81-16.19,10.81-6.52,0-10.61-3.89-10.61-11.36,0-11.67,11.24-32.26,26.52-32.26,3.3,0,6,1.77,6,5.3C437.34,137.53,422.56,144,413.29,147.11Zm.36-1.53c4.72-1.65,8.6-3.3,11-5.19a16,16,0,0,0,6.29-12.85c0-3.07-.47-3.62-1.3-3.62C424.33,123.93,416.63,134,413.64,145.58Z" style="fill:#98d6d2"/><path d="M467,158a11.12,11.12,0,0,0-.51,2.83c0,1.37.59,2.16,1.89,2.16,2.08,0,3.85-2.08,6-8.21l1.06-3h1.53l-2,5.89c-2.12,6.09-5.58,8.29-9.67,8.29-4.28,0-5.54-2.28-5.54-5.23a22.59,22.59,0,0,1,1.1-6.05L474,111.2a8.87,8.87,0,0,0,.4-2.24c0-2.08-1.46-3.06-5.46-3.06l.55-1.69a31.32,31.32,0,0,0,14.35-3.3Z" style="fill:#98d6d2"/><path d="M493.77,130.33a9.6,9.6,0,0,0,.59-2.95c0-1.34-.59-2-1.73-2-2.52,0-4.28,2.67-6.37,8.21l-1.14,3h-1.49l2.08-5.86c2.4-6.76,6.68-8.29,10-8.29,4,0,5.34,2.2,5.34,5a20.26,20.26,0,0,1-1.34,6.21L491.1,158a8.85,8.85,0,0,0-.63,2.95c0,1.3.63,2,1.93,2,2.16,0,3.93-2,6.29-8.21l1.1-3h1.53l-2.08,5.89C497,164,493,166,489.33,166c-4.21,0-5.62-2-5.62-4.91a19.77,19.77,0,0,1,1.41-6.37Zm8.37-26.6a4,4,0,0,1,4.09,4.21,6.33,6.33,0,0,1-6.05,6.09,4,4,0,0,1-4-4.13A6.37,6.37,0,0,1,502.14,103.73Z" style="fill:#98d6d2"/><path d="M542.81,133.72c0,12.18-8.53,32.3-23.58,32.3a6.86,6.86,0,0,1-6.76-5.38l-6.84,5.54-1.22-.59a16.9,16.9,0,0,0,1.53-4.64l14.11-49.75a9.47,9.47,0,0,0,.31-2.16c0-2.12-1.34-3.14-5.39-3.14l.4-1.69a29.89,29.89,0,0,0,14.15-3.3l-10.42,38c5.11-11.71,9.9-16.51,15.33-16.51C539.51,122.4,542.81,126.09,542.81,133.72Zm-6.92-1.77c0-4.72-1.45-7-3.77-7-4.44,0-11.16,11-15.91,24.64l-2.79,10.1c1.38,3.34,3.26,4.48,5.74,4.48C528.28,164.17,535.9,144,535.9,131.95Z" style="fill:#98d6d2"/><path d="M582.43,127a5.83,5.83,0,0,1-5.66,5.82,2.86,2.86,0,0,1-3.18-2.91,5.41,5.41,0,0,1,3.62-5.15,1.16,1.16,0,0,0-.91-.31c-5.85,0-13,13.91-19,33.76l-1.69,6.72h-7l9.63-34.54a11.75,11.75,0,0,0,.59-3.14c0-1.3-.59-1.85-1.69-1.85-2.36,0-4.2,2.28-6.29,8.21l-1.06,3h-1.53l2-5.86c2.32-6.76,6.41-8.29,9.71-8.29,3.57,0,4.63,2,4.63,4.68a30.74,30.74,0,0,1-1.14,6.56l-2.59,10.22c5.82-15.72,10.45-21.45,16.74-21.45A4.38,4.38,0,0,1,582.43,127Z" style="fill:#98d6d2"/><path d="M616.69,151.75l-2,5.89c-2.36,6.44-6.13,8.37-9.27,8.37A5.11,5.11,0,0,1,601,163.9a5.59,5.59,0,0,1-.67-2.83,26.63,26.63,0,0,1,1.26-6.41l1.45-5.85c-5.3,12.42-10.61,17.21-16.19,17.21-5.07,0-7.58-4-7.58-9.75,0-12.89,11.59-33.87,23.77-33.87,2.83,0,4.83,2.16,5.15,6l1.26-4.91a27.71,27.71,0,0,0,7.43-1.1L606.79,158a11.86,11.86,0,0,0-.59,3c0,1.1.43,2,1.81,2,2.08,0,4.17-2,6.17-8.21l1-3Zm-11.08-13.2,1.49-5.86c0-.63.08-1.22.08-1.77,0-4.24-1.57-7-4.44-7-7.07,0-16.39,19.06-16.39,33.28,0,4.6,1,6.21,2.79,6.21C593.67,163.42,601.6,151.95,605.61,138.55Z" style="fill:#98d6d2"/><path d="M657.17,127a5.83,5.83,0,0,1-5.66,5.82,2.86,2.86,0,0,1-3.18-2.91,5.41,5.41,0,0,1,3.62-5.15,1.16,1.16,0,0,0-.9-.31c-5.86,0-13,13.91-19,33.76l-1.69,6.72h-7L633,130.33a11.77,11.77,0,0,0,.59-3.14c0-1.3-.59-1.85-1.69-1.85-2.36,0-4.21,2.28-6.29,8.21l-1.06,3H623l2-5.86c2.32-6.76,6.4-8.29,9.71-8.29,3.58,0,4.64,2,4.64,4.68a30.58,30.58,0,0,1-1.14,6.56l-2.59,10.22c5.82-15.72,10.45-21.45,16.74-21.45A4.39,4.39,0,0,1,657.17,127Z" style="fill:#98d6d2"/><path d="M691.75,128.92c0,10.85-8.21,26.13-15.84,35.72-2.59,3.22-8.14,9.67-15.88,13.36a17.25,17.25,0,0,1-7,2c-2.16,0-4-1.14-4-3.3,0-2.32,2.12-3.62,4.36-3.62,2.52,0,4.68,1.53,6.68,3.14a44.1,44.1,0,0,0,12.07-9.63l-5.94-36.08c-.59-3.3-1.22-4.44-2.59-4.44-1.22,0-2.56,1.3-4.76,7.39l-1,3h-1.53l2-5.85c2.24-6.52,5.78-8.21,9.27-8.21,3.3,0,5,1.69,5.78,7.39L677.45,160c5.54-7.66,10.29-17,12.14-26.13-2.52-1.34-6.13-3.89-6.13-7.43a3.83,3.83,0,0,1,4.09-4.09C690.46,122.4,691.75,124.64,691.75,128.92Z" style="fill:#98d6d2"/><line x1="8.25" y1="186.32" x2="691.75" y2="186.32" style="fill:none;stroke:#231f20;stroke-miterlimit:10;stroke-width:3.3423823927579974px"/><line x1="8.25" y1="192.71" x2="691.75" y2="192.71" style="fill:none;stroke:#231f20;stroke-miterlimit:10;stroke-width:1.6711911963789987px"/><line x1="8.25" y1="199.1" x2="691.75" y2="199.1" style="fill:none;stroke:#231f20;stroke-miterlimit:10;stroke-width:0.8355955981894994px"/></svg>