<?xml version="1.0" encoding="utf-8"?>
<!-- Generator: Adobe Illustrator 19.2.1, SVG Export Plug-In . SVG Version: 6.00 Build 0)  -->
<!DOCTYPE svg PUBLIC "-//W3C//DTD SVG 1.1//EN" "http://www.w3.org/Graphics/SVG/1.1/DTD/svg11.dtd">
<svg version="1.1" xmlns="http://www.w3.org/2000/svg" xmlns:xlink="http://www.w3.org/1999/xlink" x="0px" y="0px"
	 viewBox="0 0 728 101" style="enable-background:new 0 0 728 101;" xml:space="preserve">
<style type="text/css">
	.st0{fill:#222222;}
	.st1{fill:#343434;}
	.st2{fill:#343434;stroke:#000000;stroke-width:0.1238;stroke-miterlimit:10;}
	.st3{fill:#ECFF2E;}
	.st4{stroke:#000000;stroke-width:0.1238;stroke-miterlimit:10;}
	.st5{fill:#343434;stroke:#000000;stroke-width:1.4456;stroke-miterlimit:10;}
</style>
<g id="Layer_1">
	<g>
		<path class="st0" d="M65.5-392.5h6c-3.7,8.8-7.5,17.6-11.2,26.4c-3.7,8.7-7.4,17.5-11.2,26.4l-12.7-30c-0.1-0.4-0.2-0.9-0.4-1.3
			c-0.1-0.4-0.3-0.8-0.4-1.3c-0.7,2.7-1.5,5.4-2.6,8.2c-1.1,2.8-2.2,5.5-3.5,8.2c-1.2,2.7-2.5,5.5-3.8,8.2s-2.5,5.4-3.6,8
			c-3.7-8.8-7.5-17.6-11.2-26.4c-3.7-8.7-7.4-17.5-11.2-26.4h6c2.6,6.2,5.3,12.4,7.8,18.5c2.6,6.1,5.2,12.3,7.8,18.5l0.6,2.4
			c0.6-2.2,1.3-4.3,2.1-6.4c0.8-2.1,1.7-4.3,2.7-6.4c0.9-2.1,1.9-4.3,2.9-6.4c1-2.1,1.9-4.2,2.8-6.3c-1-2.4-1.9-4.7-3-7
			c-1-2.3-2-4.6-3-7h6c2.6,6.2,5.3,12.4,7.8,18.5c2.6,6.1,5.2,12.3,7.8,18.5l0.6,2.4l0.6-2.4c2.6-6.2,5.3-12.4,7.8-18.5
			C60.3-380,62.9-386.2,65.5-392.5z"/>
		<path class="st0" d="M66.3-355.6c0-1.9,0.4-3.7,1.1-5.5c0.7-1.7,1.8-3.2,3.1-4.5c1.3-1.3,2.8-2.3,4.6-3c1.8-0.7,3.6-1.1,5.7-1.1
			c2,0,3.9,0.4,5.7,1.1c1.8,0.7,3.3,1.8,4.6,3c1.3,1.3,2.3,2.8,3.1,4.5c0.7,1.7,1.1,3.6,1.1,5.5c0,2-0.4,3.8-1.1,5.5
			s-1.8,3.2-3.1,4.5c-1.3,1.3-2.8,2.3-4.6,3.1c-1.8,0.7-3.7,1.1-5.7,1.1c-2,0-3.9-0.4-5.7-1.1c-1.8-0.7-3.3-1.8-4.6-3.1
			c-1.3-1.3-2.3-2.8-3.1-4.5S66.3-353.6,66.3-355.6z M72.3-355.5c0,1.2,0.2,2.2,0.6,3.2c0.4,1,1,1.9,1.8,2.6
			c0.7,0.7,1.6,1.3,2.6,1.8c1,0.4,2.1,0.6,3.2,0.6s2.2-0.2,3.2-0.6c1-0.4,1.9-1,2.7-1.8c0.8-0.7,1.4-1.6,1.8-2.6
			c0.4-1,0.6-2.1,0.6-3.2s-0.2-2.2-0.6-3.2c-0.4-1-1-1.9-1.8-2.7c-0.8-0.8-1.7-1.4-2.7-1.8c-1-0.4-2.1-0.6-3.2-0.6s-2.2,0.2-3.2,0.6
			c-1,0.4-1.9,1-2.6,1.8c-0.7,0.8-1.3,1.7-1.8,2.7C72.5-357.8,72.3-356.7,72.3-355.5z"/>
		<path class="st0" d="M118.3-363.8c-2.9,0-5.3,0.8-7.1,2.4c-1.8,1.6-2.7,3.7-2.7,6.2v13.1h-6v-27h5.3v0.6c0.1,1.2,0.2,2.2,0.3,3.1
			s0.2,2,0.3,3.1c0.6-1.2,1.3-2.3,2.2-3.2c0.9-0.9,1.8-1.7,2.8-2.4c1-0.6,1.9-1.1,2.9-1.5c0.9-0.3,1.8-0.5,2.5-0.5L118.3-363.8z"/>
		<path class="st0" d="M145.6-369.7l3.5,3.5c-1.6,1.5-3.2,3-4.6,4.4s-3,2.8-4.6,4.4c1.9,2.6,3.7,5.2,5.6,7.7
			c1.9,2.5,3.7,5.1,5.6,7.7h-6.9c-1.4-1.9-2.8-3.8-4.2-5.8c-1.4-1.9-2.9-3.8-4.2-5.8c-0.6,0.5-1.2,1.1-1.8,1.7
			c-0.6,0.6-1.2,1.1-1.8,1.7v8.2h-6v-54h6v38.8c2.3-2.2,4.5-4.2,6.7-6.2C141-365.5,143.3-367.6,145.6-369.7z"/>
		<path class="st0" d="M158.5-379.5c0-1.1,0.4-2,1.2-2.7s1.6-1.1,2.6-1.1c0.9,0,1.8,0.4,2.5,1.1s1.2,1.6,1.2,2.7
			c0,1.1-0.4,2-1.2,2.7c-0.8,0.7-1.6,1-2.5,1c-1,0-1.8-0.3-2.6-1C158.9-377.5,158.5-378.4,158.5-379.5z M165.2-342.1h-6v-27h6
			V-342.1z"/>
		<path class="st0" d="M173.4-369.1h5.3v0.6c0.1,1.2,0.2,2.2,0.3,3.1s0.2,2,0.3,3.1c1-2.3,2.5-4.1,4.6-5.5c2.1-1.4,4.5-2.1,7.1-2.1
			c2.8,0,5.1,0.7,6.7,2.2c1.6,1.5,2.5,3.4,2.6,5.8v19.6h-6v-16.8c-0.1-1.3-0.6-2.4-1.4-3.3c-0.8-0.9-2.2-1.5-4-1.5
			c-1.2,0-2.4,0.2-3.6,0.6c-1.1,0.4-2.1,1-3,1.8c-0.9,0.8-1.6,1.7-2.1,2.7c-0.5,1.1-0.8,2.2-0.8,3.5v13.1h-6V-369.1z"/>
		<path class="st0" d="M231.5-369.1h5v28.2v3.2c0,1.9-0.4,3.7-1.1,5.4c-0.7,1.7-1.8,3.1-3.1,4.3c-1.3,1.2-2.8,2.2-4.5,2.9
			c-1.7,0.7-3.6,1.1-5.6,1.1c-2.2,0-4.2-0.5-6.3-1.4c-2-0.9-3.7-1.9-5.2-2.9c0.7-0.8,1.3-1.6,2-2.4c0.6-0.8,1.3-1.6,2-2.4
			c1,0.7,2.1,1.4,3.3,2.1c1.3,0.6,2.6,1,4,1c1.2,0,2.4-0.2,3.4-0.6c1-0.4,1.9-1,2.7-1.8c0.8-0.7,1.4-1.6,1.8-2.7
			c0.4-1,0.6-2.1,0.6-3.3v-4.8c0.1-0.2,0.2-0.5,0.3-0.7s0.2-0.4,0.3-0.7c-0.1,0.2-0.5,0.5-0.9,0.9c-0.5,0.4-1.1,0.8-1.9,1.1
			c-0.8,0.4-1.7,0.7-2.7,1c-1.1,0.3-2.2,0.4-3.5,0.4c-2,0-3.9-0.4-5.7-1.1c-1.8-0.7-3.3-1.8-4.6-3c-1.3-1.3-2.3-2.8-3.1-4.5
			s-1.1-3.5-1.1-5.4c0-1.9,0.4-3.7,1.1-5.4c0.7-1.7,1.8-3.2,3.1-4.5c1.3-1.3,2.8-2.3,4.6-3.1c1.8-0.8,3.7-1.2,5.7-1.2
			c1.3,0,2.5,0.2,3.6,0.6c1.1,0.4,2.1,0.8,2.9,1.3s1.5,0.9,1.9,1.3c0.5,0.4,0.7,0.7,0.7,0.9c0-0.5,0-1.1,0.1-1.7
			C231.5-367.9,231.5-368.5,231.5-369.1z M213.7-355.6c0,2.4,0.8,4.3,2.3,5.9c1.6,1.6,3.6,2.4,6.1,2.4s4.5-0.8,6.1-2.4
			c1.6-1.6,2.3-3.6,2.3-5.9c0-2.4-0.8-4.4-2.3-5.9c-1.6-1.6-3.6-2.3-6.1-2.3s-4.5,0.8-6.1,2.3C214.5-360,213.7-358,213.7-355.6z"/>
	</g>
	<g>
		<path class="st0" d="M271.8-386.6h6v16.9h7.1v5.8h-7.1v21.8h-6v-21.8h-6v-5.8h6V-386.6z"/>
		<path class="st0" d="M288.2-355.6c0-1.9,0.4-3.7,1.1-5.5c0.7-1.7,1.8-3.2,3.1-4.5c1.3-1.3,2.8-2.3,4.6-3c1.8-0.7,3.6-1.1,5.7-1.1
			c2,0,3.9,0.4,5.7,1.1c1.8,0.7,3.3,1.8,4.6,3c1.3,1.3,2.3,2.8,3.1,4.5c0.7,1.7,1.1,3.6,1.1,5.5c0,2-0.4,3.8-1.1,5.5
			s-1.8,3.2-3.1,4.5c-1.3,1.3-2.8,2.3-4.6,3.1c-1.8,0.7-3.7,1.1-5.7,1.1c-2,0-3.9-0.4-5.7-1.1c-1.8-0.7-3.3-1.8-4.6-3.1
			c-1.3-1.3-2.3-2.8-3.1-4.5S288.2-353.6,288.2-355.6z M294.2-355.5c0,1.2,0.2,2.2,0.6,3.2c0.4,1,1,1.9,1.8,2.6
			c0.7,0.7,1.6,1.3,2.6,1.8c1,0.4,2.1,0.6,3.2,0.6s2.2-0.2,3.2-0.6c1-0.4,1.9-1,2.7-1.8c0.8-0.7,1.4-1.6,1.8-2.6
			c0.4-1,0.6-2.1,0.6-3.2s-0.2-2.2-0.6-3.2c-0.4-1-1-1.9-1.8-2.7c-0.8-0.8-1.7-1.4-2.7-1.8c-1-0.4-2.1-0.6-3.2-0.6s-2.2,0.2-3.2,0.6
			c-1,0.4-1.9,1-2.6,1.8c-0.7,0.8-1.3,1.7-1.8,2.7C294.4-357.8,294.2-356.7,294.2-355.5z"/>
	</g>
	<g>
		<path class="st0" d="M479.5-342.1h-6c-1.4-3.3-2.8-6.6-4.2-10c-1.4-3.3-2.8-6.7-4.2-10h-15.8c-1.4,3.3-2.8,6.6-4.2,10
			c-1.4,3.3-2.8,6.7-4.2,10h-6c3.7-8.8,7.5-17.6,11.2-26.4c3.7-8.7,7.4-17.5,11.2-26.4c3.7,8.8,7.5,17.6,11.2,26.4
			C472-359.7,475.7-350.9,479.5-342.1z M457.8-379.2l-0.6-2.4c-0.7,2.4-1.5,4.7-2.5,7c-1,2.3-2,4.5-3,6.8h10.9
			c-0.8-1.9-1.6-3.8-2.4-5.7C459.4-375.3,458.6-377.2,457.8-379.2z"/>
		<path class="st0" d="M497.2-365.7c-0.3-0.6-0.6-1.1-0.8-1.7c-0.3-0.6-0.5-1.1-0.8-1.7h6c1.4,3,2.9,6.1,4.5,9.1
			c1.6,3,2.9,6.1,4,9.3c1.1-3.1,2.4-6.2,4-9.3c1.6-3,3.1-6.1,4.5-9.1h6c-2.4,4.8-4.9,9.6-7.2,14.3c-2.4,4.8-4.8,9.5-7.2,14.3
			c-1.6-3.3-3.3-6.5-4.9-9.7c-1.6-3.2-3.3-6.4-4.9-9.7c-1.6,3.3-3.3,6.5-4.9,9.7c-1.6,3.2-3.3,6.4-4.9,9.7
			c-2.4-4.8-4.9-9.6-7.2-14.3c-2.4-4.8-4.8-9.5-7.2-14.3h6c1.4,3,2.9,6.1,4.5,9.1c1.6,3,2.9,6.1,4,9.3c0.9-2.6,1.9-5.1,3.2-7.6
			C494.9-360.8,496.1-363.2,497.2-365.7z"/>
		<path class="st0" d="M557.5-357.8c-3.3,1.2-6.5,2.4-9.8,3.6c-3.2,1.2-6.5,2.4-9.8,3.6c0.7,1,1.7,1.8,2.8,2.4
			c1.2,0.6,2.5,0.9,4,0.9c2.2,0,4-0.8,5.5-2.3l3.7,4.3c-1.2,1.2-2.6,2.1-4.1,2.8c-1.5,0.7-3.2,1-5,1c-2,0-3.9-0.4-5.7-1.1
			c-1.8-0.7-3.3-1.8-4.6-3.1c-1.3-1.3-2.3-2.8-3.1-4.5s-1.1-3.5-1.1-5.5c0-1.9,0.4-3.7,1.1-5.5c0.7-1.7,1.8-3.2,3.1-4.5
			c1.3-1.3,2.8-2.3,4.6-3c1.8-0.7,3.6-1.1,5.7-1.1c1.5,0,2.9,0.3,4.3,0.9c1.4,0.6,2.6,1.4,3.7,2.5c1.1,1.1,2,2.3,2.8,3.8
			C556.5-361.1,557.1-359.5,557.5-357.8z M544.8-363.9c-1.9,0-3.6,0.5-5,1.4c-1.4,1-2.4,2.2-3,3.7c-0.2,0.7-0.4,1.6-0.5,2.5
			c2.3-0.8,4.5-1.6,6.7-2.5c2.2-0.8,4.5-1.7,6.7-2.5c-0.7-0.8-1.4-1.5-2.3-2S545.9-363.9,544.8-363.9z"/>
		<path class="st0" d="M580.7-366.7c-0.5,0.8-1.1,1.5-1.7,2.2s-1.1,1.5-1.7,2.2c-0.2-0.2-0.7-0.6-1.4-1c-0.7-0.4-1.6-0.6-2.8-0.6
			c-1.1,0-1.8,0.2-2.3,0.7c-0.5,0.5-0.7,1.1-0.6,1.8c0.1,0.6,0.5,1,1.1,1.4c0.6,0.4,1.4,0.7,2.2,1c0.8,0.3,1.7,0.7,2.7,1.2
			c1,0.4,1.8,1,2.7,1.6c0.8,0.6,1.5,1.5,2,2.4c0.5,1,0.8,2.2,0.8,3.7c0,0.7-0.1,1.5-0.4,2.4c-0.3,1-0.7,1.9-1.4,2.8
			c-0.7,0.9-1.6,1.7-2.8,2.3c-1.2,0.6-2.8,0.9-4.7,0.9c-1.8,0-3.5-0.3-5.1-0.9c-1.6-0.6-2.9-1.4-3.9-2.5c0.6-0.7,1.2-1.5,1.8-2.2
			c0.6-0.7,1.2-1.5,1.8-2.2c1.1,0.7,1.9,1.2,2.7,1.5c0.7,0.3,1.7,0.5,2.8,0.5c0,0,0.2,0,0.5,0c0.3,0,0.7-0.1,1-0.3
			c0.4-0.2,0.7-0.4,1-0.8c0.3-0.3,0.5-0.8,0.5-1.5c0-0.9-0.2-1.5-0.7-2c-0.5-0.5-1.2-0.8-2.1-1.2c-0.8-0.3-1.8-0.6-2.8-0.9
			c-1-0.3-2-0.7-2.8-1.3c-0.9-0.6-1.6-1.3-2.2-2.3s-0.9-2.4-0.9-4c0-1.5,0.3-2.7,0.9-3.7c0.6-1,1.3-1.8,2.2-2.5
			c0.9-0.6,1.8-1.1,2.8-1.4s1.9-0.4,2.7-0.4c0.5,0,1.1,0,1.8,0.1c0.7,0.1,1.4,0.3,2.1,0.5c0.7,0.2,1.4,0.6,2.1,0.9
			C579.5-367.7,580.1-367.3,580.7-366.7z"/>
		<path class="st0" d="M587.7-355.6c0-1.9,0.4-3.7,1.1-5.5c0.7-1.7,1.8-3.2,3.1-4.5c1.3-1.3,2.8-2.3,4.6-3c1.8-0.7,3.6-1.1,5.7-1.1
			c2,0,3.9,0.4,5.7,1.1c1.8,0.7,3.3,1.8,4.6,3c1.3,1.3,2.3,2.8,3.1,4.5c0.7,1.7,1.1,3.6,1.1,5.5c0,2-0.4,3.8-1.1,5.5
			s-1.8,3.2-3.1,4.5c-1.3,1.3-2.8,2.3-4.6,3.1c-1.8,0.7-3.7,1.1-5.7,1.1c-2,0-3.9-0.4-5.7-1.1c-1.8-0.7-3.3-1.8-4.6-3.1
			c-1.3-1.3-2.3-2.8-3.1-4.5S587.7-353.6,587.7-355.6z M593.7-355.5c0,1.2,0.2,2.2,0.6,3.2c0.4,1,1,1.9,1.8,2.6
			c0.7,0.7,1.6,1.3,2.6,1.8c1,0.4,2.1,0.6,3.2,0.6s2.2-0.2,3.2-0.6c1-0.4,1.9-1,2.7-1.8c0.8-0.7,1.4-1.6,1.8-2.6
			c0.4-1,0.6-2.1,0.6-3.2s-0.2-2.2-0.6-3.2c-0.4-1-1-1.9-1.8-2.7c-0.8-0.8-1.7-1.4-2.7-1.8c-1-0.4-2.1-0.6-3.2-0.6s-2.2,0.2-3.2,0.6
			c-1,0.4-1.9,1-2.6,1.8c-0.7,0.8-1.3,1.7-1.8,2.7C593.9-357.8,593.7-356.7,593.7-355.5z"/>
		<path class="st0" d="M622.5-369.1h5.3v0.6c0.1,1.2,0.2,2.2,0.3,3.1s0.2,2,0.3,3.1c1-2.3,2.5-4.1,4.6-5.4c2-1.3,4.4-2,7.2-2.1
			c2.6,0,4.8,0.7,6.4,2c1.6,1.3,2.6,3.1,2.8,5.2c1.1-2.2,2.6-3.9,4.6-5.2c2-1.2,4.3-1.9,7-2c2.8,0,5.1,0.7,6.7,2.2
			c1.6,1.5,2.5,3.4,2.6,5.8v19.6h-6v-16.8c-0.1-1.3-0.6-2.4-1.4-3.3c-0.8-0.9-2.2-1.5-4-1.5c-1.2,0-2.4,0.2-3.6,0.6
			c-1.1,0.4-2.1,1-3,1.8c-0.9,0.8-1.6,1.7-2.1,2.7c-0.5,1.1-0.8,2.2-0.8,3.5v13.1h-6v-16.8c-0.1-1.3-0.6-2.4-1.4-3.3
			c-0.8-0.9-2.2-1.5-4-1.5c-1.2,0-2.4,0.2-3.6,0.6c-1.1,0.4-2.1,1-3,1.8c-0.9,0.8-1.6,1.7-2.1,2.7c-0.5,1.1-0.8,2.2-0.8,3.5v13.1h-6
			V-369.1z"/>
		<path class="st0" d="M703.1-357.8c-3.3,1.2-6.5,2.4-9.8,3.6c-3.2,1.2-6.5,2.4-9.8,3.6c0.7,1,1.7,1.8,2.8,2.4
			c1.2,0.6,2.5,0.9,4,0.9c2.2,0,4-0.8,5.5-2.3l3.7,4.3c-1.2,1.2-2.6,2.1-4.1,2.8c-1.5,0.7-3.2,1-5,1c-2,0-3.9-0.4-5.7-1.1
			s-3.3-1.8-4.6-3.1c-1.3-1.3-2.3-2.8-3.1-4.5c-0.7-1.7-1.1-3.5-1.1-5.5c0-1.9,0.4-3.7,1.1-5.5c0.7-1.7,1.8-3.2,3.1-4.5
			c1.3-1.3,2.8-2.3,4.6-3c1.8-0.7,3.6-1.1,5.7-1.1c1.5,0,2.9,0.3,4.3,0.9c1.4,0.6,2.6,1.4,3.7,2.5c1.1,1.1,2,2.3,2.8,3.8
			C702.1-361.1,702.7-359.5,703.1-357.8z M690.5-363.9c-1.9,0-3.6,0.5-5,1.4c-1.4,1-2.4,2.2-3,3.7c-0.2,0.7-0.4,1.6-0.5,2.5
			c2.3-0.8,4.5-1.6,6.7-2.5c2.2-0.8,4.5-1.7,6.7-2.5c-0.7-0.8-1.4-1.5-2.3-2S691.5-363.9,690.5-363.9z"/>
	</g>
	<path class="st1" d="M-280.1-326.5c0,0,0-0.1,0-0.1c0.2-1.9-1.1-3.5-3.3-3.5h0c-2.1,0-3.4,1.6-3.3,3.5c0,0,0,0.1,0,0.1
		c1,0.2,2.1,0.3,3.3,0.3C-282.1-326.2-281-326.3-280.1-326.5z"/>
	<path class="st1" d="M-283.3-323.5c0.8,0,1.5-0.1,2.2-0.2c0.3-0.5,0.6-1,0.8-1.5c-0.9,0.2-1.9,0.3-2.9,0.3s-2.1-0.1-2.9-0.3
		c0.2,0.5,0.5,1.1,0.8,1.5C-284.8-323.6-284.1-323.5-283.3-323.5z"/>
	<path class="st2" d="M-284.3-322.2c0.6,0.6,1,1,1,1h0c0,0,0.4-0.4,1-1c-0.3,0-0.7,0-1,0S-284-322.2-284.3-322.2z"/>
	<g>
		<path class="st3" d="M-282.4-330.3c0,0,3.3-2.1,4.6-2.1s2.4,0.9,2.4,2.1s-1.1,2.1-2.4,2.1S-282.4-330.3-282.4-330.3z"/>
		<path class="st3" d="M-284.2-330.3c0,0-3.3-2.1-4.6-2.1s-2.4,0.9-2.4,2.1s1.1,2.1,2.4,2.1S-284.2-330.3-284.2-330.3z"/>
	</g>
	<g>
		<circle class="st1" cx="-283.3" cy="-332.8" r="2.4"/>
		<circle class="st1" cx="-286" cy="-335.3" r="0.9"/>
		<circle class="st1" cx="-280.6" cy="-335.3" r="0.9"/>
	</g>
	<g>
		<path class="st3" d="M-271.2-293.5c0,0,7.4-4.7,10.4-4.7s5.5,2.1,5.5,4.7s-2.5,4.7-5.5,4.7S-271.2-293.5-271.2-293.5z"/>
		<path class="st3" d="M-275.4-293.5c0,0-7.4-4.7-10.4-4.7s-5.5,2.1-5.5,4.7s2.5,4.7,5.5,4.7S-275.4-293.5-275.4-293.5z"/>
	</g>
	<g>
		<circle class="st0" cx="-273.3" cy="-299.2" r="5.4"/>
		<circle class="st0" cx="-279.4" cy="-304.8" r="2"/>
		<circle class="st0" cx="-267.2" cy="-304.8" r="2"/>
	</g>
	<g>
		<path class="st3" d="M-184.7-293.5c0-2.9,5.4-4.7,8.4-4.7s5.5,2.1,5.5,4.7s-2.5,4.7-5.5,4.7S-184.7-290.7-184.7-293.5z"/>
		<path class="st3" d="M-192.9-293.5c0-2.9-5.4-4.7-8.4-4.7c-3,0-5.5,2.1-5.5,4.7s2.5,4.7,5.5,4.7
			C-198.3-288.9-192.9-290.7-192.9-293.5z"/>
	</g>
	<g>
		<circle class="st0" cx="-188.8" cy="-299.2" r="5.4"/>
		<circle class="st0" cx="-194.9" cy="-304.8" r="2"/>
		<circle class="st0" cx="-182.7" cy="-304.8" r="2"/>
	</g>
	<path class="st3" d="M-62.2-289.2c-0.5,0.4-1.2,0.7-1.9,1.1c0.4,0.2,0.7,0.3,1,0.5c2.2,1.4,3,4,1.8,5.8c-1.2,1.8-3.9,2.2-6.1,0.8
		c-1.7-1.1-3.4-3.8-4.2-5.7c-0.7-1.8-0.6-2.3-0.6-2.8c-0.2-2.5,2.6-5.9,4.6-7.4c2.5-1.7,5.7-1.5,7.2,0.6
		C-58.9-294.1-59.7-290.9-62.2-289.2z"/>
	<path class="st3" d="M-90.5-289.2c0.5,0.4,1.2,0.7,1.9,1.1c-0.4,0.2-0.7,0.3-1,0.5c-2.2,1.4-3,4-1.8,5.8c1.2,1.8,3.9,2.2,6.1,0.8
		c1.7-1.1,3.4-3.8,4.2-5.7c0.7-1.8,0.6-2.3,0.6-2.8c0.2-2.5-2.6-5.9-4.6-7.4c-2.5-1.7-5.7-1.5-7.2,0.6
		C-93.8-294.1-93-290.9-90.5-289.2z"/>
	<g>
		<circle class="st0" cx="-76.3" cy="-295.3" r="5.4"/>
		<circle class="st0" cx="-82.4" cy="-300.9" r="2"/>
		<circle class="st0" cx="-70.2" cy="-300.9" r="2"/>
	</g>
	<path d="M-280.1-254.8c0,0,0-0.1,0-0.1c0.2-1.9-1.1-3.5-3.3-3.5h0c-2.1,0-3.4,1.6-3.3,3.5c0,0,0,0.1,0,0.1c1,0.2,2.1,0.3,3.3,0.3
		C-282.1-254.5-281-254.7-280.1-254.8z"/>
	<path d="M-283.3-251.8c0.8,0,1.5-0.1,2.2-0.2c0.3-0.5,0.6-1,0.8-1.5c-0.9,0.2-1.9,0.3-2.9,0.3s-2.1-0.1-2.9-0.3
		c0.2,0.5,0.5,1.1,0.8,1.5C-284.8-251.9-284.1-251.8-283.3-251.8z"/>
	<path class="st4" d="M-284.3-250.5c0.6,0.6,1,1,1,1h0c0,0,0.4-0.4,1-1c-0.3,0-0.7,0-1,0S-284-250.5-284.3-250.5z"/>
	<g>
		<path d="M-282.4-258.6c0,0,3.3-2.1,4.6-2.1s2.4,0.9,2.4,2.1s-1.1,2.1-2.4,2.1S-282.4-258.6-282.4-258.6z"/>
		<path d="M-284.2-258.6c0,0-3.3-2.1-4.6-2.1s-2.4,0.9-2.4,2.1s1.1,2.1,2.4,2.1S-284.2-258.6-284.2-258.6z"/>
	</g>
	<g>
		<circle cx="-283.3" cy="-261.1" r="2.4"/>
		<circle cx="-286" cy="-263.6" r="0.9"/>
		<circle cx="-280.6" cy="-263.6" r="0.9"/>
	</g>
	<g>
		<path class="st1" d="M-82.1-380.7c0-0.4,0.1-0.9,0.1-1.3c1.8-22.7-13.2-41.2-38.1-41.2h0c-24.9,0-39.9,18.4-38.1,41.2
			c0,0.3,0.1,0.6,0.1,0.9c11.8,2.5,24.9,4,38.9,4C-105.9-377.2-93.3-378.4-82.1-380.7z"/>
		<path class="st1" d="M-120-345.7c8.9,0,17.4-0.7,25.3-2c3.5-5.5,6.6-11.5,9-17.8c-10.3,2.4-21.9,3.7-34.3,3.7s-24-1.4-34.3-3.7
			c2.3,6.4,5.5,12.4,9,17.8C-137.4-346.4-128.9-345.7-120-345.7z"/>
		<path class="st5" d="M-131.8-330.1c6.6,7.3,11.8,11.7,11.8,11.7h0c0,0,5.2-4.4,11.8-11.7c-3.9,0.3-7.8,0.4-11.8,0.4
			S-128-329.8-131.8-330.1z"/>
		<g>
			<path class="st3" d="M-109.3-424.7c0,0,38.4-24.1,54.1-24.1s28.5,10.8,28.5,24.1c0,13.3-12.8,24.1-28.5,24.1
				S-109.3-424.7-109.3-424.7z"/>
			<path class="st3" d="M-130.7-424.7c0,0-38.4-24.1-54.1-24.1s-28.5,10.8-28.5,24.1c0,13.3,12.8,24.1,28.5,24.1
				S-130.7-424.7-130.7-424.7z"/>
		</g>
		<g>
			<circle class="st1" cx="-120" cy="-454.1" r="28"/>
			<circle class="st1" cx="-151.6" cy="-483.4" r="10.2"/>
			<circle class="st1" cx="-88.4" cy="-483.4" r="10.2"/>
		</g>
	</g>
</g>
<g id="Layer_2">
	<g>
		<path class="st0" d="M-266.2-279.8c0.3-1,0.4-2.1,0.4-3.3c0-0.3,0-0.5,0-0.7c-2.2,0.5-4.7,0.8-7.5,0.8s-5.3-0.3-7.5-0.8
			c0,0.2,0,0.5,0,0.7c0,1.2,0.2,2.3,0.4,3.3c2.1,0.4,4.5,0.7,7.1,0.7S-268.3-279.4-266.2-279.8z"/>
		<path class="st0" d="M-273.3-277.4c-2.3,0-4.5-0.2-6.4-0.5c1.3,2.9,3.7,4.9,6.4,4.9s5.1-2,6.4-4.9
			C-268.8-277.6-271-277.4-273.3-277.4z"/>
		<path class="st0" d="M-273.3-284.9c2.7,0,5.2-0.3,7.3-0.7c-0.8-4.4-3.8-7.6-7.3-7.6s-6.4,3.2-7.3,7.6
			C-278.5-285.2-276-284.9-273.3-284.9z"/>
	</g>
	<g>
		<path class="st0" d="M-181.7-279.8c0.3-1,0.4-2.1,0.4-3.3c0-0.3,0-0.5,0-0.7c-2.2,0.5-4.7,0.8-7.5,0.8s-5.3-0.3-7.5-0.8
			c0,0.2,0,0.5,0,0.7c0,1.2,0.2,2.3,0.4,3.3c2.1,0.4,4.5,0.7,7.1,0.7S-183.8-279.4-181.7-279.8z"/>
		<path class="st0" d="M-188.8-277.4c-2.3,0-4.5-0.2-6.4-0.5c1.3,2.9,3.7,4.9,6.4,4.9s5.1-2,6.4-4.9
			C-184.3-277.6-186.5-277.4-188.8-277.4z"/>
		<path class="st0" d="M-188.8-284.9c2.7,0,5.2-0.3,7.3-0.7c-0.8-4.4-3.8-7.6-7.3-7.6s-6.4,3.2-7.3,7.6
			C-194-285.2-191.5-284.9-188.8-284.9z"/>
	</g>
	<g>
		<path class="st3" d="M-205.6-109.6c-0.2,0.2-0.5,0.5-0.8,0.7c0.2,0,0.3,0.1,0.5,0.1c1.1,0.4,1.8,1.5,1.4,2.5c-0.3,1-1.5,1.4-2.7,1
			c-0.9-0.3-1.9-1.4-2.5-2.2c-0.5-0.7-0.5-1-0.5-1.2c-0.3-1.1,0.6-3,1.4-3.8c1-1,2.4-1.2,3.3-0.4
			C-204.6-112.1-204.6-110.6-205.6-109.6z"/>
		<path class="st3" d="M-219.1-109.6c0.2,0.2,0.5,0.5,0.8,0.7c-0.2,0-0.3,0.1-0.5,0.1c-1.1,0.4-1.8,1.5-1.4,2.5c0.3,1,1.5,1.4,2.7,1
			c0.9-0.3,1.9-1.4,2.5-2.2c0.5-0.7,0.5-1,0.5-1.2c0.3-1.1-0.6-3-1.4-3.8c-1-1-2.4-1.2-3.3-0.4
			C-220.1-112.1-220.1-110.6-219.1-109.6z"/>
		<g>
			<circle class="st0" cx="-212.3" cy="-111.8" r="2.5"/>
			<circle class="st0" cx="-215.2" cy="-114.4" r="0.9"/>
			<circle class="st0" cx="-209.5" cy="-114.4" r="0.9"/>
		</g>
		<g>
			<path class="st0" d="M-209.1-102.8c0.1-0.5,0.2-1,0.2-1.5c0-0.1,0-0.2,0-0.3c-1,0.2-2.2,0.4-3.4,0.4c-1.3,0-2.4-0.1-3.4-0.4
				c0,0.1,0,0.2,0,0.3c0,0.5,0.1,1.1,0.2,1.5c1,0.2,2.1,0.3,3.3,0.3C-211.1-102.5-210-102.6-209.1-102.8z"/>
			<path class="st0" d="M-212.3-101.7c-1.1,0-2.1-0.1-3-0.3c0.6,1.4,1.7,2.3,3,2.3s2.4-0.9,3-2.3
				C-210.3-101.7-211.3-101.7-212.3-101.7z"/>
			<path class="st0" d="M-212.3-105.2c1.2,0,2.4-0.1,3.3-0.3c-0.4-2-1.7-3.6-3.3-3.6s-3,1.5-3.3,3.6
				C-214.7-105.3-213.6-105.2-212.3-105.2z"/>
		</g>
	</g>
	<g>
		<path class="st3" d="M-36.3-18.5c-2.5,2.7-5.7,5.6-9.5,8.3c2.3,0.5,4.3,1.1,6.2,1.8c13.9,5.1,21.8,18.8,17.4,30.7
			c-4.3,11.8-19.2,17.2-33.2,12.1c-11.1-4.1-23.8-17.1-30.9-27.1c-6.4-9.1-6-12.2-6.8-14.8c-3.9-13.7,7.2-36.6,17.1-47.4
			c11.8-12.9,30.3-15.2,41.2-5.2C-23.6-50-24.4-31.4-36.3-18.5z"/>
		<path class="st3" d="M-203.7-18.5c2.5,2.7,5.7,5.6,9.5,8.3c-2.3,0.5-4.3,1.1-6.2,1.8c-13.9,5.1-21.8,18.8-17.4,30.7
			c4.3,11.8,19.2,17.2,33.2,12.1c11.1-4.1,23.8-17.1,30.9-27.1c6.4-9.1,6-12.2,6.8-14.8c3.9-13.7-7.2-36.6-17.1-47.4
			c-11.8-12.9-30.3-15.2-41.2-5.2C-216.4-50-215.6-31.4-203.7-18.5z"/>
		<g>
			<circle class="st0" cx="-120" cy="-46.4" r="31.1"/>
			<circle class="st0" cx="-155.2" cy="-79" r="11.4"/>
			<circle class="st0" cx="-84.8" cy="-79" r="11.4"/>
		</g>
		<g>
			<path class="st0" d="M-79.6,65.4c1.5-6,2.4-12.4,2.4-19.1c0-1.4-0.1-2.9-0.2-4.3c-12.3,2.7-26.9,4.4-42.7,4.4s-30.3-1.6-42.7-4.4
				c-0.1,1.4-0.2,2.8-0.2,4.3c0,6.7,0.9,13.1,2.4,19.1c11.8,2.5,25.6,3.9,40.4,3.9S-91.4,67.8-79.6,65.4z"/>
			<path class="st0" d="M-120,79.5c-13.2,0-25.7-1.1-36.6-3.1c7.5,16.9,21.1,28.2,36.6,28.2s29.1-11.3,36.6-28.2
				C-94.3,78.4-106.8,79.5-120,79.5z"/>
			<path class="st0" d="M-120,36.1c15.2,0,29.4-1.5,41.5-4.1C-83.2,6.7-100-12-120-12s-36.8,18.7-41.5,44
				C-149.4,34.6-135.2,36.1-120,36.1z"/>
		</g>
	</g>
	<g>
		<path class="st3" d="M416.3-379.9c-1.2,1.3-2.8,2.7-4.6,4c1.1,0.3,2.1,0.5,3,0.9c6.7,2.5,10.5,9.1,8.4,14.8
			c-2.1,5.7-9.2,8.3-16,5.8c-5.3-2-11.5-8.2-14.9-13.1c-3.1-4.4-2.9-5.9-3.3-7.1c-1.9-6.6,3.5-17.6,8.3-22.8
			c5.7-6.2,14.6-7.3,19.9-2.5C422.3-395.1,422-386.1,416.3-379.9z"/>
		<path class="st3" d="M335.6-379.9c1.2,1.3,2.8,2.7,4.6,4c-1.1,0.3-2.1,0.5-3,0.9c-6.7,2.5-10.5,9.1-8.4,14.8
			c2.1,5.7,9.2,8.3,16,5.8c5.3-2,11.5-8.2,14.9-13.1c3.1-4.4,2.9-5.9,3.3-7.1c1.9-6.6-3.5-17.6-8.3-22.8c-5.7-6.2-14.6-7.3-19.9-2.5
			C329.5-395.1,329.9-386.1,335.6-379.9z"/>
		<g>
			<circle class="st0" cx="375.9" cy="-393.3" r="15"/>
			<circle class="st0" cx="359" cy="-409" r="5.5"/>
			<circle class="st0" cx="392.9" cy="-409" r="5.5"/>
		</g>
		<g>
			<path class="st0" d="M395.4-339.6c0.7-2.9,1.2-6,1.2-9.2c0-0.7,0-1.4-0.1-2.1c-5.9,1.3-13,2.1-20.5,2.1s-14.6-0.8-20.5-2.1
				c0,0.7-0.1,1.4-0.1,2.1c0,3.2,0.4,6.3,1.2,9.2c5.7,1.2,12.3,1.9,19.5,1.9S389.7-338.4,395.4-339.6z"/>
			<path class="st0" d="M375.9-332.7c-6.4,0-12.4-0.6-17.6-1.5c3.6,8.1,10.1,13.6,17.6,13.6s14-5.5,17.6-13.6
				C388.3-333.3,382.3-332.7,375.9-332.7z"/>
			<path class="st0" d="M375.9-353.6c7.3,0,14.2-0.7,20-2c-2.3-12.2-10.3-21.2-20-21.2s-17.7,9-20,21.2
				C361.8-354.4,368.6-353.6,375.9-353.6z"/>
		</g>
	</g>
	<g>
		<g>
			<path d="M41.3,80.4l-10-32.8L21.3,80.4H14l-13.9-42h7.6l10.2,34.1L28,38.5l7-0.1l10.2,34.1l10.1-34.1h7.3l-14,42H41.3z"/>
			<path d="M94.2,64.2c0,9.6-6.8,16.2-16.6,16.2c-9.9,0-16.7-6.6-16.7-16.2c0-9.7,6.8-16.2,16.7-16.2C87.4,48,94.2,54.5,94.2,64.2z
				 M67.8,64.3c0,6.2,4,10.4,9.8,10.4c5.7,0,9.7-4.2,9.7-10.4c0-6.1-4-10.3-9.7-10.3C71.8,53.9,67.8,58.1,67.8,64.3z"/>
			<path d="M108.3,54.8c2.2-4.3,6-6.6,11-6.6v6.6c-6.4-0.4-10.5,3.4-11,8.9v16.7h-6.9V48.5h6.9V54.8z"/>
			<path d="M132.2,71.5v8.9h-6.9V35.9h6.9v26.9l14.1-14.3h7.9l-11.8,12.4l12.7,19.6H147l-9.4-14.6L132.2,71.5z"/>
			<path d="M168.2,39.4c0,2.4-1.7,4.1-4,4.1c-2.3,0-4-1.7-4-4.1c0-2.5,1.7-4.2,4-4.2C166.4,35.2,168.2,36.9,168.2,39.4z M160.7,80.4
				V48.5h6.8v31.9H160.7z"/>
			<path d="M208.3,60.5v19.9h-6.9V62.5c0-4.8-2.9-7.7-7.7-7.7c-5.3,0.1-8.6,3.7-9.1,8.7v17h-6.9V48.5h6.9v6.1
				c2.3-4.4,6.4-6.4,11.8-6.4C203.9,48.2,208.3,52.9,208.3,60.5z"/>
			<path d="M246.4,77.3c0,9.2-6.5,14.9-16.6,14.9c-5,0-9.4-1.6-13.3-4.2l2.9-5c3,2.2,6.1,3.5,10,3.5c6.1,0,10-3.5,10-9.1v-4
				c-2.2,3.5-5.8,5.4-10.6,5.4c-8.6,0-14.4-6.2-14.4-15.4c0-9,5.7-15.1,14.2-15.2c4.9-0.1,8.6,1.9,10.8,5.4v-5.2h6.8V77.3z
				 M239.5,63.6c0-5.8-3.8-9.8-9.2-9.8c-5.5,0-9.2,4.1-9.3,9.8c0.1,5.8,3.8,9.8,9.3,9.8C235.7,73.4,239.5,69.4,239.5,63.6z"/>
		</g>
		<g>
			<path d="M289.6,78.1c-2.5,1.5-5.2,2.3-7.9,2.3c-4.8,0-8.9-2.8-8.9-9.3V54.5h-4.5v-5.2h4.5v-8.8h6.8v8.8h9.4v5.2h-9.4v15.3
				c0,3.3,1.3,4.3,3.4,4.3c1.4,0,2.9-0.5,4.8-1.4L289.6,78.1z"/>
			<path d="M325.9,64.1c0,9.6-6.8,16.2-16.6,16.2c-9.9,0-16.7-6.6-16.7-16.2c0-9.7,6.8-16.2,16.7-16.2
				C319.1,47.9,325.9,54.5,325.9,64.1z M299.5,64.2c0,6.2,4,10.4,9.8,10.4c5.7,0,9.7-4.2,9.7-10.4c0-6.1-4-10.3-9.7-10.3
				C303.5,53.9,299.5,58.1,299.5,64.2z"/>
		</g>
		<g>
			<path d="M443.5,70.7l-4,9.5h-7.4l18.5-42h7.3l18.4,42h-7.6l-4-9.5H443.5z M454,45.7l-7.9,18.7h15.8L454,45.7z"/>
			<path d="M509.9,80.2l-8.1-23.6l-8.1,23.6h-7.1l-11.8-31.9h7.1l8.3,25.1l8-25.1h7.1l8.1,25.1l8.2-25.1h7l-11.6,31.9H509.9z"/>
			<path d="M560.4,66.8h-24.1c1.1,4.9,4.9,8,9.9,8c3.5,0,6.7-1.3,9-3.7l3.7,3.9c-3.1,3.4-7.7,5.4-13.2,5.4
				c-9.8,0-16.3-6.5-16.3-16.1c0-9.7,6.7-16.2,16.1-16.3C556.7,48,561.2,55.3,560.4,66.8z M554.4,61.8c-0.2-5.2-3.7-8.3-8.9-8.3
				c-5,0-8.6,3.2-9.4,8.3H554.4z"/>
			<path d="M588.3,51.2l-2.5,5.1c-2.8-1.7-6.4-2.8-9.2-2.8c-2.7,0-4.7,0.9-4.7,3.2c0,5.9,17,2.7,16.9,14.3c0,6.5-5.8,9.5-12.2,9.5
				c-4.7,0-9.7-1.6-12.8-4.4l2.5-4.9c2.8,2.5,7.2,4,10.7,4c2.9,0,5.2-1,5.2-3.4c0-6.5-16.8-2.9-16.7-14.4c0-6.5,5.6-9.2,11.8-9.2
				C581.2,47.9,585.4,49.1,588.3,51.2z"/>
			<path d="M626.1,64.2c0,9.6-6.8,16.2-16.6,16.2c-9.9,0-16.7-6.6-16.7-16.2c0-9.7,6.8-16.2,16.7-16.2
				C619.3,48,626.1,54.5,626.1,64.2z M599.7,64.3c0,6.2,4,10.4,9.8,10.4c5.7,0,9.7-4.2,9.7-10.4c0-6.1-4-10.3-9.7-10.3
				C603.7,53.9,599.7,58.1,599.7,64.3z"/>
			<path d="M686.6,60.3v19.9h-6.9V62.2c0-4.9-2.9-7.8-7.6-7.8c-5.5,0.2-8.8,4.4-8.8,10v15.8h-6.9V62.2c0-4.9-2.8-7.8-7.5-7.8
				c-5.5,0.2-8.9,4.4-8.9,10v15.8h-6.8V48.2h6.8v6.2c2.2-4.5,6.3-6.4,11.6-6.4c5.7,0,9.6,2.8,11.1,7.7c2-5.3,6.3-7.7,12.1-7.7
				C682.3,48,686.6,52.7,686.6,60.3z"/>
			<path d="M724,66.8h-24.1c1.1,4.9,4.9,8,9.9,8c3.5,0,6.7-1.3,9-3.7l3.7,3.9c-3.1,3.4-7.7,5.4-13.2,5.4c-9.8,0-16.3-6.5-16.3-16.1
				c0-9.7,6.7-16.2,16.1-16.3C720.2,48,724.8,55.3,724,66.8z M718,61.8c-0.2-5.2-3.7-8.3-8.9-8.3c-5,0-8.6,3.2-9.4,8.3H718z"/>
		</g>
		<g>
			<path class="st3" d="M419.3,38.2c-1.2,1.3-2.8,2.7-4.6,4c1.1,0.3,2.1,0.5,3,0.9c6.7,2.5,10.5,9.1,8.4,14.8
				c-2.1,5.7-9.2,8.3-16,5.8c-5.3-2-11.5-8.2-14.9-13.1c-3.1-4.4-2.9-5.9-3.3-7.1c-1.9-6.6,3.5-17.6,8.3-22.8
				c5.7-6.2,14.6-7.3,19.9-2.5C425.4,23,425,31.9,419.3,38.2z"/>
			<path class="st3" d="M338.7,38.2c1.2,1.3,2.8,2.7,4.6,4c-1.1,0.3-2.1,0.5-3,0.9c-6.7,2.5-10.5,9.1-8.4,14.8
				c2.1,5.7,9.2,8.3,16,5.8c5.3-2,11.5-8.2,14.9-13.1c3.1-4.4,2.9-5.9,3.3-7.1c1.9-6.6-3.5-17.6-8.3-22.8
				c-5.7-6.2-14.6-7.3-19.9-2.5C332.6,23,332.9,31.9,338.7,38.2z"/>
			<g>
				<circle class="st0" cx="379" cy="24.7" r="15"/>
				<circle class="st0" cx="362" cy="9.1" r="5.5"/>
				<circle class="st0" cx="395.9" cy="9.1" r="5.5"/>
			</g>
			<g>
				<path class="st0" d="M398.5,78.5c0.7-2.9,1.2-6,1.2-9.2c0-0.7,0-1.4-0.1-2.1c-5.9,1.3-13,2.1-20.5,2.1s-14.6-0.8-20.5-2.1
					c0,0.7-0.1,1.4-0.1,2.1c0,3.2,0.4,6.3,1.2,9.2c5.7,1.2,12.3,1.9,19.5,1.9S392.8,79.7,398.5,78.5z"/>
				<path class="st0" d="M379,85.3c-6.4,0-12.4-0.6-17.6-1.5C365,92,371.5,97.4,379,97.4s14-5.5,17.6-13.6
					C391.3,84.8,385.4,85.3,379,85.3z"/>
				<path class="st0" d="M379,64.4c7.3,0,14.2-0.7,20-2c-2.3-12.2-10.3-21.2-20-21.2s-17.7,9-20,21.2
					C364.8,63.7,371.7,64.4,379,64.4z"/>
			</g>
		</g>
	</g>
	<g>
		<path class="st0" d="M-70.7-275.9c0.2-1,0.3-2.1,0.3-3.3c0-0.3,0-0.5,0-0.7c-1.7,0.5-3.8,0.8-6,0.8c-2.2,0-4.2-0.3-6-0.8
			c0,0.2,0,0.5,0,0.7c0,1.2,0.1,2.3,0.3,3.3c1.7,0.4,3.6,0.7,5.7,0.7S-72.3-275.5-70.7-275.9z"/>
		<path class="st0" d="M-76.3-273.5c-1.9,0-3.6-0.2-5.1-0.5c1.1,2.9,2.9,4.9,5.1,4.9s4.1-2,5.1-4.9
			C-72.8-273.7-74.5-273.5-76.3-273.5z"/>
		<path class="st0" d="M-76.3-281c2.1,0,4.1-0.3,5.8-0.7c-0.7-4.4-3-7.6-5.8-7.6s-5.1,3.2-5.8,7.6C-80.5-281.2-78.5-281-76.3-281z"
			/>
	</g>
</g>
</svg>
