<svg id="web_logo_header" xmlns="http://www.w3.org/2000/svg" viewBox="0 0 241.67 50"><title>redesign-light</title><path d="M26.32,39.66l-0.53,1.09q-0.41.83-1,1.9t-1.48,2.24A14.86,14.86,0,0,1,21.39,47a10.29,10.29,0,0,1-2.24,1.6,5.34,5.34,0,0,1-2.53.63,4.45,4.45,0,0,1-3.16-1.2,7,7,0,0,1-1.86-3A9.53,9.53,0,0,1,9,48a5.23,5.23,0,0,1-3,1.09,5.23,5.23,0,0,1-2.17-.44A4.68,4.68,0,0,1,2.1,47.39,5.72,5.72,0,0,1,1,45.53a7,7,0,0,1-.37-2.33,10.86,10.86,0,0,1,.86-4.46,10.29,10.29,0,0,1,2.19-3.23,9,9,0,0,1,2.93-1.95,8.25,8.25,0,0,1,3.1-.65,6,6,0,0,1,1.85.28,8.94,8.94,0,0,1,1.44.6,5.53,5.53,0,0,1,.92.6l0.36,0.31a1.35,1.35,0,0,1,.36.88,1.21,1.21,0,0,1-.36.86,1.13,1.13,0,0,1-.84.37,1.19,1.19,0,0,1-.88-0.36l-0.29-.24a3.69,3.69,0,0,0-.62-0.37,5,5,0,0,0-.92-0.34,4.61,4.61,0,0,0-1.22-.15,5.78,5.78,0,0,0-2.14.45,6.07,6.07,0,0,0-2.08,1.41,7.9,7.9,0,0,0-1.57,2.4A8.48,8.48,0,0,0,3.14,43a6.18,6.18,0,0,0,.13,1.25,3.46,3.46,0,0,0,.45,1.15,2.51,2.51,0,0,0,.88.84A2.64,2.64,0,0,0,6,46.6a3,3,0,0,0,1.35-.39A4.89,4.89,0,0,0,8.76,45,8.71,8.71,0,0,0,10,43,10.24,10.24,0,0,0,10.82,40a1.2,1.2,0,0,1,.42-0.76A1.25,1.25,0,0,1,12.09,39a1.07,1.07,0,0,1,.79.36,1.28,1.28,0,0,1,.37.81q0,0.62.13,1.74a10.64,10.64,0,0,0,.44,2.22,5.42,5.42,0,0,0,1,1.91,2.32,2.32,0,0,0,1.88.81,3.15,3.15,0,0,0,1.54-.42,7.23,7.23,0,0,0,1.49-1.12,12.59,12.59,0,0,0,1.39-1.59q0.66-.89,1.22-1.8t1-1.75q0.42-.84.71-1.46a1.24,1.24,0,0,1,.47-0.55,1.22,1.22,0,0,1,.66-0.19,1.11,1.11,0,0,1,.89.41,1.32,1.32,0,0,1,.34.86A1.14,1.14,0,0,1,26.32,39.66Z" style="fill:#011627"/><path d="M42.53,39.72q-0.36.75-.89,1.77t-1.22,2.12A24.83,24.83,0,0,1,38.9,45.8a13.59,13.59,0,0,1-1.83,1.95A9.36,9.36,0,0,1,35,49.14a5.45,5.45,0,0,1-2.38.54,5,5,0,0,1-3.34-1.2,9.94,9.94,0,0,1-2.37-3.14,20.82,20.82,0,0,1-1.57-4.43,45.72,45.72,0,0,1-.92-5.06q-0.32-2.58-.44-5t-0.11-4.31q0-2.72.18-5.64t0.57-5.71q0.39-2.79,1-5.28A26,26,0,0,1,27,5.51a10.07,10.07,0,0,1,1.9-3,3.31,3.31,0,0,1,2.43-1.1,3.76,3.76,0,0,1,1.93.5,3.88,3.88,0,0,1,1.44,1.64,10.61,10.61,0,0,1,.91,3A25.83,25.83,0,0,1,35.92,11a34.58,34.58,0,0,1-.68,6.7,56.62,56.62,0,0,1-1.85,7,71,71,0,0,1-2.76,7q-1.59,3.49-3.4,6.79a21.32,21.32,0,0,0,2.17,6.47q1.36,2.35,3.27,2.35a3.82,3.82,0,0,0,2.5-1,13.61,13.61,0,0,0,2.2-2.41,24.12,24.12,0,0,0,1.77-2.84q0.76-1.44,1.18-2.32a1.21,1.21,0,0,1,1.1-.68,1.13,1.13,0,0,1,.89.39,1.3,1.3,0,0,1,.34.88A1.5,1.5,0,0,1,42.53,39.72Zm-16.24-13q0,2.08.1,4t0.26,3.66q1.36-2.63,2.59-5.59t2.17-6a54.77,54.77,0,0,0,1.51-6A30.82,30.82,0,0,0,33.49,11a17.28,17.28,0,0,0-.62-5.48q-0.62-1.65-1.65-1.65a1.71,1.71,0,0,0-1.31.94,11,11,0,0,0-1.18,2.56,32.16,32.16,0,0,0-1,3.83q-0.45,2.21-.76,4.73t-0.49,5.29Q26.29,24,26.29,26.69Z" style="fill:#011627"/><path d="M44.22,45.14A5,5,0,0,0,46,46.64a6.07,6.07,0,0,0,5.51-.19,9.51,9.51,0,0,0,2.37-2,16,16,0,0,0,1.91-2.76q0.84-1.52,1.52-3a1.17,1.17,0,0,1,.45-0.53,1.22,1.22,0,0,1,.65-0.18,1.13,1.13,0,0,1,.89.39,1.26,1.26,0,0,1,.34.84,1,1,0,0,1,0,.28,1.44,1.44,0,0,1-.1.24,23.55,23.55,0,0,1-4.88,7.43,8.75,8.75,0,0,1-6,2.56,7.55,7.55,0,0,1-6.26-3,9,9,0,0,1-1.49-3,11.67,11.67,0,0,1-.49-3.31,10.87,10.87,0,0,1,.41-3A7.7,7.7,0,0,1,42,35a5.62,5.62,0,0,1,1.82-1.62,4.7,4.7,0,0,1,2.32-.58,3.77,3.77,0,0,1,1.48.31,4.25,4.25,0,0,1,1.31.88,4.33,4.33,0,0,1,.94,1.38,4.55,4.55,0,0,1,.36,1.85,6.83,6.83,0,0,1-.45,2.5,8.4,8.4,0,0,1-1.25,2.17,10.63,10.63,0,0,1-1.9,1.85A13.92,13.92,0,0,1,44.22,45.14Zm-1-2.11A7.87,7.87,0,0,0,45.08,42a7.64,7.64,0,0,0,1.41-1.43,6.62,6.62,0,0,0,.91-1.64,4.89,4.89,0,0,0,.32-1.74,2,2,0,0,0-.49-1.48,1.53,1.53,0,0,0-1.13-.5,2.33,2.33,0,0,0-1.49.49,3.68,3.68,0,0,0-1,1.26A6.52,6.52,0,0,0,43,38.67a10.32,10.32,0,0,0-.18,1.9A7.1,7.1,0,0,0,43,41.8Q43.08,42.45,43.25,43Z" style="fill:#011627"/><path d="M62.57,23.25a3,3,0,1,1-5.9,0,2.92,2.92,0,0,1,.86-2.09,3,3,0,0,1,4.81.94A2.92,2.92,0,0,1,62.57,23.25Zm-5.25,19a74.45,74.45,0,0,1,.58-9.31,1.38,1.38,0,0,1,.41-0.79,1.21,1.21,0,0,1,.89-0.34,1,1,0,0,1,.81.37,1.27,1.27,0,0,1,.32.86q0,0.19-.08,1.17l-0.19,2.32q-0.11,1.35-.19,2.85t-0.08,2.77a9.25,9.25,0,0,0,.34,2.77A4.4,4.4,0,0,0,61,46.56a2.68,2.68,0,0,0,1.13.78,3.72,3.72,0,0,0,1.15.19,3.4,3.4,0,0,0,1.88-.65,10.35,10.35,0,0,0,2-1.82,22.86,22.86,0,0,0,2.06-2.8,41.53,41.53,0,0,0,2-3.65,1.21,1.21,0,0,1,.45-0.5,1.22,1.22,0,0,1,.65-0.18,1.09,1.09,0,0,1,.86.39,1.26,1.26,0,0,1,.34.84,1.1,1.1,0,0,1-.13.55q-0.39.75-1,1.82t-1.33,2.2Q70.38,44.88,69.49,46a16.06,16.06,0,0,1-1.9,2,9.75,9.75,0,0,1-2.11,1.44,5,5,0,0,1-2.24.55,5.16,5.16,0,0,1-2.56-.62,5.8,5.8,0,0,1-1.86-1.65,7.18,7.18,0,0,1-1.13-2.45A11.81,11.81,0,0,1,57.32,42.25Zm3.44-19a1.16,1.16,0,0,0-1.13-1.13,1,1,0,0,0-.78.34,1.12,1.12,0,0,0-.32.79,1.11,1.11,0,0,0,1.1,1.1A1.11,1.11,0,0,0,60.41,24,1,1,0,0,0,60.75,23.25Z" style="fill:#011627"/><path d="M96.29,39.66l-0.53,1.09q-0.41.83-1,1.9t-1.48,2.24A14.86,14.86,0,0,1,91.36,47a10.29,10.29,0,0,1-2.24,1.6,5.34,5.34,0,0,1-2.53.63,4.45,4.45,0,0,1-3.16-1.2,7,7,0,0,1-1.86-3A9.53,9.53,0,0,1,78.94,48a5.11,5.11,0,0,1-5.22.65,4.68,4.68,0,0,1-1.65-1.23A5.72,5.72,0,0,1,71,45.53a7,7,0,0,1-.37-2.33,10.86,10.86,0,0,1,.86-4.46,10.29,10.29,0,0,1,2.19-3.23,9,9,0,0,1,2.93-1.95,8.25,8.25,0,0,1,3.1-.65,6,6,0,0,1,1.85.28,8.94,8.94,0,0,1,1.44.6,5.53,5.53,0,0,1,.92.6l0.36,0.31a1.35,1.35,0,0,1,.36.88,1.21,1.21,0,0,1-.36.86,1.13,1.13,0,0,1-.84.37,1.19,1.19,0,0,1-.88-0.36l-0.29-.24a3.69,3.69,0,0,0-.62-0.37,5,5,0,0,0-.92-0.34,4.61,4.61,0,0,0-1.22-.15,5.78,5.78,0,0,0-2.14.45,6.07,6.07,0,0,0-2.08,1.41,7.9,7.9,0,0,0-1.57,2.4A8.48,8.48,0,0,0,73.11,43a6.18,6.18,0,0,0,.13,1.25,3.46,3.46,0,0,0,.45,1.15,2.51,2.51,0,0,0,.88.84,2.64,2.64,0,0,0,1.36.32,3,3,0,0,0,1.35-.39A4.89,4.89,0,0,0,78.73,45,8.71,8.71,0,0,0,80,43,10.24,10.24,0,0,0,80.79,40a1.2,1.2,0,0,1,.42-0.76A1.25,1.25,0,0,1,82.06,39a1.07,1.07,0,0,1,.79.36,1.28,1.28,0,0,1,.37.81q0,0.62.13,1.74a10.64,10.64,0,0,0,.44,2.22,5.42,5.42,0,0,0,1,1.91,2.32,2.32,0,0,0,1.88.81,3.15,3.15,0,0,0,1.54-.42,7.23,7.23,0,0,0,1.49-1.12,12.59,12.59,0,0,0,1.39-1.59q0.66-.89,1.22-1.8t1-1.75q0.42-.84.71-1.46a1.24,1.24,0,0,1,.47-0.55,1.22,1.22,0,0,1,.66-0.19,1.11,1.11,0,0,1,.89.41,1.32,1.32,0,0,1,.34.86A1.14,1.14,0,0,1,96.29,39.66Z" style="fill:#011627"/><path d="M95,39.54a1.5,1.5,0,0,1-.67-1.07,0.46,0.46,0,0,1,0-.26l1.2-2.89-3.2-1.51L93,32.57a0.31,0.31,0,0,1,.32-0.17l2.85,0.36a0.61,0.61,0,0,0,.64-0.37l1.55-3.72-9.14-2,1-2a0.31,0.31,0,0,1,.29-0.18l9.12,0.31a0.46,0.46,0,0,0,.44-0.28l2.16-5.08c0.72-1.75,1.89-2.78,3.34-2.09s1.41,2.24.51,3.91l-2.55,4.9a0.46,0.46,0,0,0,.06.52l6,6.85a0.31,0.31,0,0,1,0,.33l-1,2-7.34-5.79-1.88,3.56a0.61,0.61,0,0,0,.12.73l2.08,2a0.31,0.31,0,0,1,.07.35l-0.59,1.24-3.2-1.51-1.47,2.76a0.46,0.46,0,0,1-.18.19,1.51,1.51,0,0,1-1.25.16" style="fill:#efffe9"/><path d="M131,39.69a23,23,0,0,1-.45,3.39,10.76,10.76,0,0,1-1.12,3.06,6.59,6.59,0,0,1-2,2.22,5.2,5.2,0,0,1-3,.86,5.38,5.38,0,0,1-2-.34A4.93,4.93,0,0,1,120.9,48a5.28,5.28,0,0,1-1.05-1.3,9.49,9.49,0,0,1-.71-1.54,9,9,0,0,1-2.68,2.9,5.52,5.52,0,0,1-3.06,1,5.27,5.27,0,0,1-2.22-.45,4.79,4.79,0,0,1-1.69-1.28,6,6,0,0,1-1.09-2A8.28,8.28,0,0,1,108,42.7a17.64,17.64,0,0,1,.44-4.2,15.89,15.89,0,0,1,1-2.9,11.53,11.53,0,0,1,1.44-2.27,1,1,0,0,1,.41-0.29,1.34,1.34,0,0,1,.5-0.1,1.12,1.12,0,0,1,.86.37,1.24,1.24,0,0,1,.34.86,1.5,1.5,0,0,1-.26.78l-0.5.75a8.56,8.56,0,0,0-.76,1.49,14.4,14.4,0,0,0-.7,2.3,14.67,14.67,0,0,0-.31,3.21,4.62,4.62,0,0,0,.78,2.9,2.61,2.61,0,0,0,2.17,1,3.6,3.6,0,0,0,1.49-.37,4.82,4.82,0,0,0,1.52-1.15,7,7,0,0,0,1.23-2,8.89,8.89,0,0,0,.65-2.82l0.42-5.58a1.13,1.13,0,0,1,.41-0.81,1.27,1.27,0,0,1,.86-0.32,1.06,1.06,0,0,1,.88.4,1.44,1.44,0,0,1,.32.92l-0.36,5.35a13.28,13.28,0,0,0,.11,3,5.71,5.71,0,0,0,.7,2,3.08,3.08,0,0,0,1.2,1.17,3.37,3.37,0,0,0,1.59.37,3,3,0,0,0,2-.68,4.74,4.74,0,0,0,1.3-1.85,10.88,10.88,0,0,0,.7-2.71,24.08,24.08,0,0,0,.21-3.26,21.31,21.31,0,0,0-.23-3.4,13.88,13.88,0,0,1-.23-1.82,1.2,1.2,0,0,1,.36-0.86,1.23,1.23,0,0,1,1.65-.1,1.28,1.28,0,0,1,.42.73l0.19,0.75q0.16,0.62.45,1.48a15.3,15.3,0,0,0,.76,1.82,9.1,9.1,0,0,0,1.14,1.77A6.18,6.18,0,0,0,134.64,40a3.63,3.63,0,0,0,2,.54,2.14,2.14,0,0,0,1.05-.24,2.8,2.8,0,0,0,.73-0.57,2.84,2.84,0,0,0,.44-0.62l0.18-.36a1.35,1.35,0,0,1,.47-0.57,1.15,1.15,0,0,1,.66-0.21,1.11,1.11,0,0,1,.89.41,1.32,1.32,0,0,1,.34.86,2.43,2.43,0,0,1-.34,1,5,5,0,0,1-1,1.25,5.82,5.82,0,0,1-1.51,1,4.4,4.4,0,0,1-2,.44,5.39,5.39,0,0,1-1.75-.28,6.63,6.63,0,0,1-1.51-.73,7.87,7.87,0,0,1-1.28-1A11.45,11.45,0,0,1,131,39.69Z" style="fill:#011627"/><path d="M164.1,39.66l-0.53,1.09q-0.41.83-1,1.9t-1.48,2.24A14.86,14.86,0,0,1,159.17,47a10.29,10.29,0,0,1-2.24,1.6,5.34,5.34,0,0,1-2.53.63,4.45,4.45,0,0,1-3.16-1.2,7,7,0,0,1-1.86-3A9.53,9.53,0,0,1,146.75,48a5.11,5.11,0,0,1-5.22.65,4.68,4.68,0,0,1-1.65-1.23,5.72,5.72,0,0,1-1.05-1.86,7,7,0,0,1-.37-2.33,10.86,10.86,0,0,1,.86-4.46,10.29,10.29,0,0,1,2.19-3.23,9,9,0,0,1,2.93-1.95,8.25,8.25,0,0,1,3.1-.65,6,6,0,0,1,1.85.28,8.94,8.94,0,0,1,1.44.6,5.53,5.53,0,0,1,.92.6l0.36,0.31a1.35,1.35,0,0,1,.36.88,1.21,1.21,0,0,1-.36.86,1.13,1.13,0,0,1-.84.37,1.19,1.19,0,0,1-.88-0.36l-0.29-.24a3.69,3.69,0,0,0-.62-0.37,5,5,0,0,0-.92-0.34,4.61,4.61,0,0,0-1.22-.15,5.78,5.78,0,0,0-2.14.45,6.07,6.07,0,0,0-2.08,1.41,7.9,7.9,0,0,0-1.57,2.4,8.48,8.48,0,0,0-.63,3.42,6.18,6.18,0,0,0,.13,1.25,3.46,3.46,0,0,0,.45,1.15,2.51,2.51,0,0,0,.88.84,2.64,2.64,0,0,0,1.36.32,3,3,0,0,0,1.35-.39,4.89,4.89,0,0,0,1.46-1.2,8.71,8.71,0,0,0,1.26-2A10.24,10.24,0,0,0,148.6,40a1.2,1.2,0,0,1,.42-0.76,1.25,1.25,0,0,1,.84-0.31,1.07,1.07,0,0,1,.79.36,1.28,1.28,0,0,1,.37.81q0,0.62.13,1.74a10.64,10.64,0,0,0,.44,2.22,5.42,5.42,0,0,0,1,1.91,2.32,2.32,0,0,0,1.88.81A3.15,3.15,0,0,0,156,46.4a7.23,7.23,0,0,0,1.49-1.12,12.59,12.59,0,0,0,1.39-1.59q0.66-.89,1.22-1.8t1-1.75q0.42-.84.71-1.46a1.24,1.24,0,0,1,.47-0.55,1.22,1.22,0,0,1,.66-0.19,1.11,1.11,0,0,1,.89.41,1.32,1.32,0,0,1,.34.86A1.14,1.14,0,0,1,164.1,39.66Z" style="fill:#011627"/><path d="M180.31,39.72q-0.36.75-.89,1.77t-1.22,2.12a24.83,24.83,0,0,1-1.52,2.19,13.59,13.59,0,0,1-1.83,1.95,9.36,9.36,0,0,1-2.11,1.39,5.45,5.45,0,0,1-2.38.54,5,5,0,0,1-3.34-1.2,9.94,9.94,0,0,1-2.37-3.14,20.82,20.82,0,0,1-1.57-4.43,45.72,45.72,0,0,1-.92-5.06q-0.32-2.58-.44-5t-0.11-4.31q0-2.72.18-5.64t0.57-5.71q0.39-2.79,1-5.28a26,26,0,0,1,1.43-4.38,10.07,10.07,0,0,1,1.9-3,3.31,3.31,0,0,1,2.43-1.1,3.76,3.76,0,0,1,1.93.5,3.88,3.88,0,0,1,1.44,1.64,10.61,10.61,0,0,1,.91,3A25.83,25.83,0,0,1,173.7,11a34.58,34.58,0,0,1-.68,6.7,56.62,56.62,0,0,1-1.85,7,71,71,0,0,1-2.76,7q-1.59,3.49-3.4,6.79a21.32,21.32,0,0,0,2.17,6.47q1.36,2.35,3.27,2.35a3.82,3.82,0,0,0,2.5-1,13.61,13.61,0,0,0,2.2-2.41,24.12,24.12,0,0,0,1.77-2.84q0.76-1.44,1.18-2.32a1.21,1.21,0,0,1,1.1-.68,1.13,1.13,0,0,1,.89.39,1.3,1.3,0,0,1,.34.88A1.5,1.5,0,0,1,180.31,39.72Zm-16.24-13q0,2.08.1,4t0.26,3.66q1.36-2.63,2.59-5.59t2.17-6a54.77,54.77,0,0,0,1.51-6,30.82,30.82,0,0,0,.57-5.72,17.28,17.28,0,0,0-.62-5.48Q170,3.86,169,3.86a1.71,1.71,0,0,0-1.31.94,11,11,0,0,0-1.18,2.56,32.16,32.16,0,0,0-1,3.83q-0.45,2.21-.76,4.73t-0.49,5.29Q164.07,24,164.07,26.69Z" style="fill:#011627"/><path d="M186.28,44.71a4.24,4.24,0,0,0,1.82,2,5.61,5.61,0,0,0,2.85.73,13.88,13.88,0,0,0,1.59-.15,7.22,7.22,0,0,0,2.55-1,13.21,13.21,0,0,0,3.06-2.61,20.43,20.43,0,0,0,3.15-5,1.17,1.17,0,0,1,.45-0.53,1.22,1.22,0,0,1,.65-0.18,1.13,1.13,0,0,1,.89.39,1.26,1.26,0,0,1,.34.84,1.49,1.49,0,0,1-.13.52A25.36,25.36,0,0,1,201,43.92a17.66,17.66,0,0,1-3,3.18,12.92,12.92,0,0,1-3.39,2,9.79,9.79,0,0,1-3.62.7,8.15,8.15,0,0,1-2.74-.45,7.22,7.22,0,0,1-2.2-1.22,6.05,6.05,0,0,1-1.46-1.72,4,4,0,0,1-.53-2,2.63,2.63,0,0,1,0-.36,1.56,1.56,0,0,1,.18-0.5,1.87,1.87,0,0,1,.42-0.52,2.19,2.19,0,0,1,.76-0.4,14.2,14.2,0,0,0,2.45-1,9.2,9.2,0,0,0,1.93-1.28A5.54,5.54,0,0,0,191,38.86,3.93,3.93,0,0,0,191.5,37a1.87,1.87,0,0,0-.58-1.43,2,2,0,0,0-1.43-.55,2.94,2.94,0,0,0-1.72.6,8.31,8.31,0,0,0-1.64,1.59,16.16,16.16,0,0,0-1.51,2.27,29.19,29.19,0,0,0-1.31,2.67q-0.6,1.39-1.05,2.77t-0.75,2.55l-0.21.78A3.07,3.07,0,0,1,181,49a2.17,2.17,0,0,1-.55.62,1.37,1.37,0,0,1-.84.24,1.41,1.41,0,0,1-.94-0.4,1.78,1.78,0,0,1-.45-1.38q0-.19,0-1.49t0-3.39q0-2.09.08-4.8t0.08-5.74q0-3,.1-6.24t0.1-6.26q0-3,.08-5.79t0.08-4.86q0-2.12,0-3.47t0-1.6a1.09,1.09,0,0,1,.39-0.86,1.26,1.26,0,0,1,.84-0.34,1.22,1.22,0,0,1,.88.34,1.18,1.18,0,0,1,.36.89s0,0.47,0,1.28,0,1.9,0,3.26,0,3-.08,4.77-0.06,3.75-.1,5.79-0.06,4.15-.1,6.31-0.06,4.27-.1,6.32-0.06,4-.08,5.87,0,3.5-.06,4.93A33.24,33.24,0,0,1,182,39.54a19.46,19.46,0,0,1,1.91-3.39,11,11,0,0,1,2.48-2.56,5.08,5.08,0,0,1,3.06-1,4.48,4.48,0,0,1,1.75.34,4.32,4.32,0,0,1,2.35,2.35,4.48,4.48,0,0,1,.34,1.75,5.59,5.59,0,0,1-.65,2.68,7.86,7.86,0,0,1-1.72,2.17,11.75,11.75,0,0,1-2.45,1.67A17.37,17.37,0,0,1,186.28,44.71Z" style="fill:#011627"/><path d="M205.18,45.14a5,5,0,0,0,1.75,1.51,6.07,6.07,0,0,0,5.51-.19,9.51,9.51,0,0,0,2.37-2,16,16,0,0,0,1.91-2.76q0.84-1.52,1.52-3a1.17,1.17,0,0,1,.45-0.53,1.22,1.22,0,0,1,.65-0.18,1.13,1.13,0,0,1,.89.39,1.26,1.26,0,0,1,.34.84,1,1,0,0,1,0,.28,1.44,1.44,0,0,1-.1.24,23.55,23.55,0,0,1-4.88,7.43,8.75,8.75,0,0,1-6,2.56,7.55,7.55,0,0,1-6.26-3,9,9,0,0,1-1.49-3,11.67,11.67,0,0,1-.49-3.31,10.87,10.87,0,0,1,.41-3A7.7,7.7,0,0,1,202.93,35a5.62,5.62,0,0,1,1.82-1.62,4.7,4.7,0,0,1,2.32-.58,3.77,3.77,0,0,1,1.48.31,4.25,4.25,0,0,1,1.31.88,4.33,4.33,0,0,1,.94,1.38,4.55,4.55,0,0,1,.36,1.85,6.83,6.83,0,0,1-.45,2.5,8.4,8.4,0,0,1-1.25,2.17,10.63,10.63,0,0,1-1.9,1.85A13.92,13.92,0,0,1,205.18,45.14Zm-1-2.11A7.87,7.87,0,0,0,206,42a7.64,7.64,0,0,0,1.41-1.43,6.62,6.62,0,0,0,.91-1.64,4.89,4.89,0,0,0,.32-1.74,2,2,0,0,0-.49-1.48,1.53,1.53,0,0,0-1.13-.5,2.33,2.33,0,0,0-1.49.49,3.68,3.68,0,0,0-1,1.26,6.52,6.52,0,0,0-.57,1.73,10.32,10.32,0,0,0-.18,1.9,7.1,7.1,0,0,0,.11,1.23Q204,42.45,204.21,43Z" style="fill:#011627"/><path d="M221.65,35.38a16.22,16.22,0,0,1-.32,1.64q-0.19.76-.37,1.33t-0.31.92a2.1,2.1,0,0,1-.16.39,1.15,1.15,0,0,1-1.13.75,1.26,1.26,0,0,1-.84-0.34,1.09,1.09,0,0,1-.39-0.86,0.53,0.53,0,0,1,.06-0.29,3.16,3.16,0,0,0,.19-0.39,8.27,8.27,0,0,0,.32-1q0.19-.68.49-2.11-0.55,0-1.13,0a3.52,3.52,0,0,1-1.09-.23,1.73,1.73,0,0,1-1.15-1.78,5.13,5.13,0,0,1,.31-1.49,10,10,0,0,1,.83-1.85,7.69,7.69,0,0,1,1.17-1.57,1.85,1.85,0,0,1,1.3-.66,1.53,1.53,0,0,1,1.22.55,3.94,3.94,0,0,1,.73,1.35,9.2,9.2,0,0,1,.37,1.67,12.12,12.12,0,0,1,.11,1.52l1.09,0,1,0a4.3,4.3,0,0,1,2.82.81,3.28,3.28,0,0,1,1,2.66,13.06,13.06,0,0,1-.1,1.56q-0.1.81-.23,1.67t-0.23,1.7a14.43,14.43,0,0,0-.1,1.65,5,5,0,0,0,.32,1.93,3.51,3.51,0,0,0,.81,1.22,2.75,2.75,0,0,0,1,.63,3.27,3.27,0,0,0,1,.18A4.35,4.35,0,0,0,232.9,46a12.35,12.35,0,0,0,2.27-2.19A21,21,0,0,0,237,41.08q0.83-1.43,1.38-2.5a1.15,1.15,0,0,1,.45-0.45,1.25,1.25,0,0,1,.62-0.16,1.14,1.14,0,0,1,.91.37,1.23,1.23,0,0,1,.32.83,1.29,1.29,0,0,1-.13.58q-0.75,1.33-1.73,3a21.44,21.44,0,0,1-2.25,3.13,13,13,0,0,1-2.84,2.46,6.29,6.29,0,0,1-3.45,1,5.62,5.62,0,0,1-2.2-.44,5.14,5.14,0,0,1-1.8-1.26,6.14,6.14,0,0,1-1.22-2,7.77,7.77,0,0,1-.45-2.74,16.24,16.24,0,0,1,.32-3.23,15.52,15.52,0,0,0,.32-3.06,1.35,1.35,0,0,0-.28-0.92,1.68,1.68,0,0,0-1.22-.31h-1Q222.27,35.34,221.65,35.38ZM219.48,33q0-.23,0-0.6c0-.25,0-0.49-0.06-0.73a3.87,3.87,0,0,0-.13-0.62,0.3,0.3,0,0,0-.18-0.26,0.41,0.41,0,0,0-.24.24q-0.15.24-.31,0.58a6.34,6.34,0,0,0-.29.73q-0.13.39-.19,0.65h1.43Z" style="fill:#011627"/></svg>