<svg id="icon" xmlns="http://www.w3.org/2000/svg" xmlns:xlink="http://www.w3.org/1999/xlink" viewBox="0 0 144.2 164.66"><defs><clipPath id="clip-path"><path d="M72.12,0c2.2,0,5.18,1.82,7.11,4.57a3.1,3.1,0,0,1,.56,1.64c0.11,2.47.46,10.25,1,20.93h23.69v9.21a2.06,2.06,0,0,1-1.42,2l-18.27,6a4.12,4.12,0,0,0-2.83,4.1c0.38,8.57.79,17.78,1.23,27l61.05-14.1V76.4A2.06,2.06,0,0,1,143,78.29L86.81,102.52a3.09,3.09,0,0,0-1.86,3c0.31,8,1.37,35.7,1.44,37,0.64,12.7-3.49,22.22-14.29,22.22s-14.92-9.52-14.29-22.22c0.06-1.25,1.13-29,1.44-37a3.09,3.09,0,0,0-1.86-3L1.24,78.29A2.06,2.06,0,0,1,0,76.4V61.24l61.05,14.1c0.44-9.17.85-18.38,1.23-27a4.12,4.12,0,0,0-2.83-4.09l-18.27-6a2.06,2.06,0,0,1-1.42-2V27.14H63.45c0.51-10.68.86-18.46,1-20.93A3.1,3.1,0,0,1,65,4.58C66.92,1.83,69.92,0,72.12,0" style="fill:none"/></clipPath></defs><title>redesign-light</title><g style="clip-path:url(#clip-path)"><circle cx="72.11" cy="-0.56" r="13.26" style="fill:none;stroke:#000;stroke-miterlimit:10;stroke-width:0.595558626713493px"/><circle cx="72.11" cy="-0.56" r="10.17" style="fill:none;stroke:#000;stroke-miterlimit:10;stroke-width:0.595558626713493px"/><circle cx="72.11" cy="-0.56" r="7.07" style="fill:none;stroke:#000;stroke-miterlimit:10;stroke-width:0.595558626713493px"/><circle cx="72.11" cy="-0.56" r="3.98" style="fill:none;stroke:#000;stroke-miterlimit:10;stroke-width:0.595558626713493px"/><circle cx="72.11" cy="12.69" r="13.26" style="fill:none;stroke:#000;stroke-miterlimit:10;stroke-width:0.595558626713493px"/><circle cx="72.11" cy="12.69" r="10.17" style="fill:none;stroke:#000;stroke-miterlimit:10;stroke-width:0.595558626713493px"/><circle cx="72.11" cy="12.69" r="7.07" style="fill:none;stroke:#000;stroke-miterlimit:10;stroke-width:0.595558626713493px"/><circle cx="72.11" cy="12.69" r="3.98" style="fill:none;stroke:#000;stroke-miterlimit:10;stroke-width:0.595558626713493px"/><circle cx="72.11" cy="25.95" r="13.26" style="fill:none;stroke:#000;stroke-miterlimit:10;stroke-width:0.595558626713493px"/><circle cx="72.11" cy="25.95" r="10.17" style="fill:none;stroke:#000;stroke-miterlimit:10;stroke-width:0.595558626713493px"/><circle cx="72.11" cy="25.95" r="7.07" style="fill:none;stroke:#000;stroke-miterlimit:10;stroke-width:0.595558626713493px"/><circle cx="72.11" cy="25.95" r="3.98" style="fill:none;stroke:#000;stroke-miterlimit:10;stroke-width:0.595558626713493px"/><circle cx="98.62" cy="25.95" r="13.26" style="fill:none;stroke:#000;stroke-miterlimit:10;stroke-width:0.595558626713493px"/><circle cx="98.62" cy="25.95" r="10.17" style="fill:none;stroke:#000;stroke-miterlimit:10;stroke-width:0.595558626713493px"/><circle cx="98.62" cy="25.95" r="7.07" style="fill:none;stroke:#000;stroke-miterlimit:10;stroke-width:0.595558626713493px"/><circle cx="98.62" cy="25.95" r="3.98" style="fill:none;stroke:#000;stroke-miterlimit:10;stroke-width:0.595558626713493px"/><circle cx="45.59" cy="25.95" r="13.26" style="fill:none;stroke:#000;stroke-miterlimit:10;stroke-width:0.595558626713493px"/><circle cx="45.59" cy="25.95" r="10.17" style="fill:none;stroke:#000;stroke-miterlimit:10;stroke-width:0.595558626713493px"/><circle cx="45.59" cy="25.95" r="7.07" style="fill:none;stroke:#000;stroke-miterlimit:10;stroke-width:0.595558626713493px"/><circle cx="45.59" cy="25.95" r="3.98" style="fill:none;stroke:#000;stroke-miterlimit:10;stroke-width:0.595558626713493px"/><circle cx="72.11" cy="39.21" r="13.26" style="fill:none;stroke:#000;stroke-miterlimit:10;stroke-width:0.595558626713493px"/><circle cx="72.11" cy="39.21" r="10.17" style="fill:none;stroke:#000;stroke-miterlimit:10;stroke-width:0.595558626713493px"/><circle cx="72.11" cy="39.21" r="7.07" style="fill:none;stroke:#000;stroke-miterlimit:10;stroke-width:0.595558626713493px"/><circle cx="72.11" cy="39.21" r="3.98" style="fill:none;stroke:#000;stroke-miterlimit:10;stroke-width:0.595558626713493px"/><circle cx="72.11" cy="52.47" r="13.26" style="fill:none;stroke:#000;stroke-miterlimit:10;stroke-width:0.595558626713493px"/><circle cx="72.11" cy="52.47" r="10.17" style="fill:none;stroke:#000;stroke-miterlimit:10;stroke-width:0.595558626713493px"/><circle cx="72.11" cy="52.47" r="7.07" style="fill:none;stroke:#000;stroke-miterlimit:10;stroke-width:0.595558626713493px"/><circle cx="72.11" cy="52.47" r="3.98" style="fill:none;stroke:#000;stroke-miterlimit:10;stroke-width:0.595558626713493px"/><circle cx="72.11" cy="65.72" r="13.26" style="fill:none;stroke:#000;stroke-miterlimit:10;stroke-width:0.595558626713493px"/><circle cx="72.11" cy="65.72" r="10.17" style="fill:none;stroke:#000;stroke-miterlimit:10;stroke-width:0.595558626713493px"/><circle cx="72.11" cy="65.72" r="7.07" style="fill:none;stroke:#000;stroke-miterlimit:10;stroke-width:0.595558626713493px"/><circle cx="72.11" cy="65.72" r="3.98" style="fill:none;stroke:#000;stroke-miterlimit:10;stroke-width:0.595558626713493px"/><circle cx="45.59" cy="65.72" r="13.26" style="fill:none;stroke:#000;stroke-miterlimit:10;stroke-width:0.595558626713493px"/><circle cx="45.59" cy="65.72" r="10.17" style="fill:none;stroke:#000;stroke-miterlimit:10;stroke-width:0.595558626713493px"/><circle cx="45.59" cy="65.72" r="7.07" style="fill:none;stroke:#000;stroke-miterlimit:10;stroke-width:0.595558626713493px"/><circle cx="45.59" cy="65.72" r="3.98" style="fill:none;stroke:#000;stroke-miterlimit:10;stroke-width:0.595558626713493px"/><circle cx="19.08" cy="65.72" r="13.26" style="fill:none;stroke:#000;stroke-miterlimit:10;stroke-width:0.595558626713493px"/><circle cx="19.08" cy="65.72" r="10.17" style="fill:none;stroke:#000;stroke-miterlimit:10;stroke-width:0.595558626713493px"/><circle cx="19.08" cy="65.72" r="7.07" style="fill:none;stroke:#000;stroke-miterlimit:10;stroke-width:0.595558626713493px"/><circle cx="19.08" cy="65.72" r="3.98" style="fill:none;stroke:#000;stroke-miterlimit:10;stroke-width:0.595558626713493px"/><circle cx="-7.44" cy="65.72" r="13.26" style="fill:none;stroke:#000;stroke-miterlimit:10;stroke-width:0.595558626713493px"/><circle cx="-7.44" cy="65.72" r="10.17" style="fill:none;stroke:#000;stroke-miterlimit:10;stroke-width:0.595558626713493px"/><circle cx="-7.44" cy="78.98" r="13.26" style="fill:none;stroke:#000;stroke-miterlimit:10;stroke-width:0.595558626713493px"/><circle cx="-7.44" cy="78.98" r="10.17" style="fill:none;stroke:#000;stroke-miterlimit:10;stroke-width:0.595558626713493px"/><circle cx="151.65" cy="65.72" r="13.26" style="fill:none;stroke:#000;stroke-miterlimit:10;stroke-width:0.595558626713493px"/><circle cx="151.65" cy="65.72" r="10.17" style="fill:none;stroke:#000;stroke-miterlimit:10;stroke-width:0.595558626713493px"/><circle cx="125.13" cy="65.72" r="13.26" style="fill:none;stroke:#000;stroke-miterlimit:10;stroke-width:0.595558626713493px"/><circle cx="125.13" cy="65.72" r="10.17" style="fill:none;stroke:#000;stroke-miterlimit:10;stroke-width:0.595558626713493px"/><circle cx="125.13" cy="65.72" r="7.07" style="fill:none;stroke:#000;stroke-miterlimit:10;stroke-width:0.595558626713493px"/><circle cx="125.13" cy="65.72" r="3.98" style="fill:none;stroke:#000;stroke-miterlimit:10;stroke-width:0.595558626713493px"/><circle cx="98.62" cy="65.72" r="13.26" style="fill:none;stroke:#000;stroke-miterlimit:10;stroke-width:0.595558626713493px"/><circle cx="98.62" cy="65.72" r="10.17" style="fill:none;stroke:#000;stroke-miterlimit:10;stroke-width:0.595558626713493px"/><circle cx="98.62" cy="65.72" r="7.07" style="fill:none;stroke:#000;stroke-miterlimit:10;stroke-width:0.595558626713493px"/><circle cx="98.62" cy="65.72" r="3.98" style="fill:none;stroke:#000;stroke-miterlimit:10;stroke-width:0.595558626713493px"/><circle cx="72.11" cy="78.98" r="13.26" style="fill:none;stroke:#000;stroke-miterlimit:10;stroke-width:0.595558626713493px"/><circle cx="72.11" cy="78.98" r="10.17" style="fill:none;stroke:#000;stroke-miterlimit:10;stroke-width:0.595558626713493px"/><circle cx="72.11" cy="78.98" r="7.07" style="fill:none;stroke:#000;stroke-miterlimit:10;stroke-width:0.595558626713493px"/><circle cx="72.11" cy="78.98" r="3.98" style="fill:none;stroke:#000;stroke-miterlimit:10;stroke-width:0.595558626713493px"/><circle cx="45.59" cy="78.98" r="13.26" style="fill:none;stroke:#000;stroke-miterlimit:10;stroke-width:0.595558626713493px"/><circle cx="45.59" cy="78.98" r="10.17" style="fill:none;stroke:#000;stroke-miterlimit:10;stroke-width:0.595558626713493px"/><circle cx="45.59" cy="78.98" r="7.07" style="fill:none;stroke:#000;stroke-miterlimit:10;stroke-width:0.595558626713493px"/><circle cx="45.59" cy="78.98" r="3.98" style="fill:none;stroke:#000;stroke-miterlimit:10;stroke-width:0.595558626713493px"/><circle cx="19.08" cy="78.98" r="13.26" style="fill:none;stroke:#000;stroke-miterlimit:10;stroke-width:0.595558626713493px"/><circle cx="19.08" cy="78.98" r="10.17" style="fill:none;stroke:#000;stroke-miterlimit:10;stroke-width:0.595558626713493px"/><circle cx="19.08" cy="78.98" r="7.07" style="fill:none;stroke:#000;stroke-miterlimit:10;stroke-width:0.595558626713493px"/><circle cx="19.08" cy="78.98" r="3.98" style="fill:none;stroke:#000;stroke-miterlimit:10;stroke-width:0.595558626713493px"/><circle cx="151.65" cy="78.98" r="13.26" style="fill:none;stroke:#000;stroke-miterlimit:10;stroke-width:0.595558626713493px"/><circle cx="151.65" cy="78.98" r="10.17" style="fill:none;stroke:#000;stroke-miterlimit:10;stroke-width:0.595558626713493px"/><circle cx="125.13" cy="78.98" r="13.26" style="fill:none;stroke:#000;stroke-miterlimit:10;stroke-width:0.595558626713493px"/><circle cx="125.13" cy="78.98" r="10.17" style="fill:none;stroke:#000;stroke-miterlimit:10;stroke-width:0.595558626713493px"/><circle cx="125.13" cy="78.98" r="7.07" style="fill:none;stroke:#000;stroke-miterlimit:10;stroke-width:0.595558626713493px"/><circle cx="125.13" cy="78.98" r="3.98" style="fill:none;stroke:#000;stroke-miterlimit:10;stroke-width:0.595558626713493px"/><circle cx="98.62" cy="78.98" r="13.26" style="fill:none;stroke:#000;stroke-miterlimit:10;stroke-width:0.595558626713493px"/><circle cx="98.62" cy="78.98" r="10.17" style="fill:none;stroke:#000;stroke-miterlimit:10;stroke-width:0.595558626713493px"/><circle cx="98.62" cy="78.98" r="7.07" style="fill:none;stroke:#000;stroke-miterlimit:10;stroke-width:0.595558626713493px"/><circle cx="98.62" cy="78.98" r="3.98" style="fill:none;stroke:#000;stroke-miterlimit:10;stroke-width:0.595558626713493px"/><circle cx="72.11" cy="92.24" r="13.26" style="fill:none;stroke:#000;stroke-miterlimit:10;stroke-width:0.595558626713493px"/><circle cx="72.11" cy="92.24" r="10.17" style="fill:none;stroke:#000;stroke-miterlimit:10;stroke-width:0.595558626713493px"/><circle cx="72.11" cy="92.24" r="7.07" style="fill:none;stroke:#000;stroke-miterlimit:10;stroke-width:0.595558626713493px"/><circle cx="72.11" cy="92.24" r="3.98" style="fill:none;stroke:#000;stroke-miterlimit:10;stroke-width:0.595558626713493px"/><circle cx="45.59" cy="92.24" r="13.26" style="fill:none;stroke:#000;stroke-miterlimit:10;stroke-width:0.595558626713493px"/><circle cx="45.59" cy="92.24" r="10.17" style="fill:none;stroke:#000;stroke-miterlimit:10;stroke-width:0.595558626713493px"/><circle cx="45.59" cy="92.24" r="7.07" style="fill:none;stroke:#000;stroke-miterlimit:10;stroke-width:0.595558626713493px"/><circle cx="45.59" cy="92.24" r="3.98" style="fill:none;stroke:#000;stroke-miterlimit:10;stroke-width:0.595558626713493px"/><circle cx="19.08" cy="92.24" r="13.26" style="fill:none;stroke:#000;stroke-miterlimit:10;stroke-width:0.595558626713493px"/><circle cx="19.08" cy="92.24" r="10.17" style="fill:none;stroke:#000;stroke-miterlimit:10;stroke-width:0.595558626713493px"/><circle cx="19.08" cy="92.24" r="7.07" style="fill:none;stroke:#000;stroke-miterlimit:10;stroke-width:0.595558626713493px"/><circle cx="19.08" cy="92.24" r="3.98" style="fill:none;stroke:#000;stroke-miterlimit:10;stroke-width:0.595558626713493px"/><circle cx="151.65" cy="92.24" r="13.26" style="fill:none;stroke:#000;stroke-miterlimit:10;stroke-width:0.595558626713493px"/><circle cx="151.65" cy="92.24" r="10.17" style="fill:none;stroke:#000;stroke-miterlimit:10;stroke-width:0.595558626713493px"/><circle cx="125.13" cy="92.24" r="13.26" style="fill:none;stroke:#000;stroke-miterlimit:10;stroke-width:0.595558626713493px"/><circle cx="125.13" cy="92.24" r="10.17" style="fill:none;stroke:#000;stroke-miterlimit:10;stroke-width:0.595558626713493px"/><circle cx="125.13" cy="92.24" r="7.07" style="fill:none;stroke:#000;stroke-miterlimit:10;stroke-width:0.595558626713493px"/><circle cx="125.13" cy="92.24" r="3.98" style="fill:none;stroke:#000;stroke-miterlimit:10;stroke-width:0.595558626713493px"/><circle cx="98.62" cy="92.24" r="13.26" style="fill:none;stroke:#000;stroke-miterlimit:10;stroke-width:0.595558626713493px"/><circle cx="98.62" cy="92.24" r="10.17" style="fill:none;stroke:#000;stroke-miterlimit:10;stroke-width:0.595558626713493px"/><circle cx="98.62" cy="92.24" r="7.07" style="fill:none;stroke:#000;stroke-miterlimit:10;stroke-width:0.595558626713493px"/><circle cx="98.62" cy="92.24" r="3.98" style="fill:none;stroke:#000;stroke-miterlimit:10;stroke-width:0.595558626713493px"/><circle cx="72.11" cy="105.49" r="13.26" style="fill:none;stroke:#000;stroke-miterlimit:10;stroke-width:0.595558626713493px"/><circle cx="72.11" cy="105.49" r="10.17" style="fill:none;stroke:#000;stroke-miterlimit:10;stroke-width:0.595558626713493px"/><circle cx="72.11" cy="105.49" r="7.07" style="fill:none;stroke:#000;stroke-miterlimit:10;stroke-width:0.595558626713493px"/><circle cx="72.11" cy="105.49" r="3.98" style="fill:none;stroke:#000;stroke-miterlimit:10;stroke-width:0.595558626713493px"/><circle cx="45.59" cy="105.49" r="13.26" style="fill:none;stroke:#000;stroke-miterlimit:10;stroke-width:0.595558626713493px"/><circle cx="45.59" cy="105.49" r="10.17" style="fill:none;stroke:#000;stroke-miterlimit:10;stroke-width:0.595558626713493px"/><circle cx="45.59" cy="105.49" r="7.07" style="fill:none;stroke:#000;stroke-miterlimit:10;stroke-width:0.595558626713493px"/><circle cx="45.59" cy="105.49" r="3.98" style="fill:none;stroke:#000;stroke-miterlimit:10;stroke-width:0.595558626713493px"/><circle cx="98.62" cy="105.49" r="13.26" style="fill:none;stroke:#000;stroke-miterlimit:10;stroke-width:0.595558626713493px"/><circle cx="98.62" cy="105.49" r="10.17" style="fill:none;stroke:#000;stroke-miterlimit:10;stroke-width:0.595558626713493px"/><circle cx="98.62" cy="105.49" r="7.07" style="fill:none;stroke:#000;stroke-miterlimit:10;stroke-width:0.595558626713493px"/><circle cx="98.62" cy="105.49" r="3.98" style="fill:none;stroke:#000;stroke-miterlimit:10;stroke-width:0.595558626713493px"/><circle cx="72.11" cy="118.75" r="13.26" style="fill:none;stroke:#000;stroke-miterlimit:10;stroke-width:0.595558626713493px"/><circle cx="72.11" cy="118.75" r="10.17" style="fill:none;stroke:#000;stroke-miterlimit:10;stroke-width:0.595558626713493px"/><circle cx="72.11" cy="118.75" r="7.07" style="fill:none;stroke:#000;stroke-miterlimit:10;stroke-width:0.595558626713493px"/><circle cx="72.11" cy="118.75" r="3.98" style="fill:none;stroke:#000;stroke-miterlimit:10;stroke-width:0.595558626713493px"/><circle cx="45.59" cy="118.75" r="13.26" style="fill:none;stroke:#000;stroke-miterlimit:10;stroke-width:0.595558626713493px"/><circle cx="45.59" cy="118.75" r="10.17" style="fill:none;stroke:#000;stroke-miterlimit:10;stroke-width:0.595558626713493px"/><circle cx="45.59" cy="118.75" r="7.07" style="fill:none;stroke:#000;stroke-miterlimit:10;stroke-width:0.595558626713493px"/><circle cx="45.59" cy="118.75" r="3.98" style="fill:none;stroke:#000;stroke-miterlimit:10;stroke-width:0.595558626713493px"/><circle cx="98.62" cy="118.75" r="13.26" style="fill:none;stroke:#000;stroke-miterlimit:10;stroke-width:0.595558626713493px"/><circle cx="98.62" cy="118.75" r="10.17" style="fill:none;stroke:#000;stroke-miterlimit:10;stroke-width:0.595558626713493px"/><circle cx="98.62" cy="118.75" r="7.07" style="fill:none;stroke:#000;stroke-miterlimit:10;stroke-width:0.595558626713493px"/><circle cx="98.62" cy="118.75" r="3.98" style="fill:none;stroke:#000;stroke-miterlimit:10;stroke-width:0.595558626713493px"/><circle cx="72.11" cy="132.01" r="13.26" style="fill:none;stroke:#000;stroke-miterlimit:10;stroke-width:0.595558626713493px"/><circle cx="72.11" cy="132.01" r="10.17" style="fill:none;stroke:#000;stroke-miterlimit:10;stroke-width:0.595558626713493px"/><circle cx="72.11" cy="132.01" r="7.07" style="fill:none;stroke:#000;stroke-miterlimit:10;stroke-width:0.595558626713493px"/><circle cx="72.11" cy="132.01" r="3.98" style="fill:none;stroke:#000;stroke-miterlimit:10;stroke-width:0.595558626713493px"/><circle cx="45.59" cy="132.01" r="13.26" style="fill:none;stroke:#000;stroke-miterlimit:10;stroke-width:0.595558626713493px"/><circle cx="45.59" cy="132.01" r="10.17" style="fill:none;stroke:#000;stroke-miterlimit:10;stroke-width:0.595558626713493px"/><circle cx="45.59" cy="132.01" r="7.07" style="fill:none;stroke:#000;stroke-miterlimit:10;stroke-width:0.595558626713493px"/><circle cx="45.59" cy="132.01" r="3.98" style="fill:none;stroke:#000;stroke-miterlimit:10;stroke-width:0.595558626713493px"/><circle cx="98.62" cy="132.01" r="13.26" style="fill:none;stroke:#000;stroke-miterlimit:10;stroke-width:0.595558626713493px"/><circle cx="98.62" cy="132.01" r="10.17" style="fill:none;stroke:#000;stroke-miterlimit:10;stroke-width:0.595558626713493px"/><circle cx="98.62" cy="132.01" r="7.07" style="fill:none;stroke:#000;stroke-miterlimit:10;stroke-width:0.595558626713493px"/><circle cx="98.62" cy="132.01" r="3.98" style="fill:none;stroke:#000;stroke-miterlimit:10;stroke-width:0.595558626713493px"/><circle cx="72.11" cy="145.27" r="13.26" style="fill:none;stroke:#000;stroke-miterlimit:10;stroke-width:0.595558626713493px"/><circle cx="72.11" cy="145.27" r="10.17" style="fill:none;stroke:#000;stroke-miterlimit:10;stroke-width:0.595558626713493px"/><circle cx="72.11" cy="145.27" r="7.07" style="fill:none;stroke:#000;stroke-miterlimit:10;stroke-width:0.595558626713493px"/><circle cx="72.11" cy="145.27" r="3.98" style="fill:none;stroke:#000;stroke-miterlimit:10;stroke-width:0.595558626713493px"/><circle cx="72.11" cy="158.52" r="13.26" style="fill:none;stroke:#000;stroke-miterlimit:10;stroke-width:0.595558626713493px"/><circle cx="72.11" cy="158.52" r="10.17" style="fill:none;stroke:#000;stroke-miterlimit:10;stroke-width:0.595558626713493px"/><circle cx="72.11" cy="158.52" r="7.07" style="fill:none;stroke:#000;stroke-miterlimit:10;stroke-width:0.595558626713493px"/><circle cx="72.11" cy="158.52" r="3.98" style="fill:none;stroke:#000;stroke-miterlimit:10;stroke-width:0.595558626713493px"/><circle cx="45.59" cy="145.27" r="13.26" style="fill:none;stroke:#000;stroke-miterlimit:10;stroke-width:0.595558626713493px"/><circle cx="45.59" cy="145.27" r="10.17" style="fill:none;stroke:#000;stroke-miterlimit:10;stroke-width:0.595558626713493px"/><circle cx="45.59" cy="145.27" r="7.07" style="fill:none;stroke:#000;stroke-miterlimit:10;stroke-width:0.595558626713493px"/><circle cx="45.59" cy="145.27" r="3.98" style="fill:none;stroke:#000;stroke-miterlimit:10;stroke-width:0.595558626713493px"/><circle cx="98.62" cy="145.27" r="13.26" style="fill:none;stroke:#000;stroke-miterlimit:10;stroke-width:0.595558626713493px"/><circle cx="98.62" cy="145.27" r="10.17" style="fill:none;stroke:#000;stroke-miterlimit:10;stroke-width:0.595558626713493px"/><circle cx="98.62" cy="145.27" r="7.07" style="fill:none;stroke:#000;stroke-miterlimit:10;stroke-width:0.595558626713493px"/><circle cx="98.62" cy="145.27" r="3.98" style="fill:none;stroke:#000;stroke-miterlimit:10;stroke-width:0.595558626713493px"/><circle cx="98.62" cy="39.21" r="13.26" style="fill:none;stroke:#000;stroke-miterlimit:10;stroke-width:0.595558626713493px"/><circle cx="98.62" cy="39.21" r="10.17" style="fill:none;stroke:#000;stroke-miterlimit:10;stroke-width:0.595558626713493px"/><circle cx="98.62" cy="39.21" r="7.07" style="fill:none;stroke:#000;stroke-miterlimit:10;stroke-width:0.595558626713493px"/><circle cx="98.62" cy="39.21" r="3.98" style="fill:none;stroke:#000;stroke-miterlimit:10;stroke-width:0.595558626713493px"/><circle cx="45.59" cy="39.21" r="13.26" style="fill:none;stroke:#000;stroke-miterlimit:10;stroke-width:0.595558626713493px"/><circle cx="45.59" cy="39.21" r="10.17" style="fill:none;stroke:#000;stroke-miterlimit:10;stroke-width:0.595558626713493px"/><circle cx="45.59" cy="39.21" r="7.07" style="fill:none;stroke:#000;stroke-miterlimit:10;stroke-width:0.595558626713493px"/><circle cx="45.59" cy="39.21" r="3.98" style="fill:none;stroke:#000;stroke-miterlimit:10;stroke-width:0.595558626713493px"/></g></svg>