<?xml version="1.0" encoding="utf-8"?>
<!-- Generator: Adobe Illustrator 19.2.1, SVG Export Plug-In . SVG Version: 6.00 Build 0)  -->
<!DOCTYPE svg PUBLIC "-//W3C//DTD SVG 1.1//EN" "http://www.w3.org/Graphics/SVG/1.1/DTD/svg11.dtd">
<svg version="1.1" xmlns="http://www.w3.org/2000/svg" xmlns:xlink="http://www.w3.org/1999/xlink" x="0px" y="0px"
	 viewBox="0 0 100 50" style="enable-background:new 0 0 100 50;" xml:space="preserve">
<style type="text/css">
	.st0{display:none;}
	.st1{display:inline;fill:#E3E3E3;}
	.st2{display:inline;fill:#011627;}
	.st3{fill:#E3E3E3;}
	.st4{fill:#EFFFE9;}
	.st5{fill:#011627;}
	.st6{fill:#FFFFFF;}
	.st7{fill:#2EC4B6;}
</style>
<g id="background" class="st0">
	<rect x="-150" y="-100" class="st1" width="100" height="50"/>
	<rect x="-150" y="-362" class="st1" width="250" height="50"/>
	<rect x="-150" y="-232" class="st1" width="250" height="50"/>
	<rect x="150" y="-100" class="st1" width="100" height="50"/>
	<rect x="-150" class="st1" width="100" height="50"/>
	<rect x="150" class="st1" width="100" height="50"/>
	<rect y="0" class="st2" width="100" height="50"/>
</g>
<g id="logo">
	<path class="st3" d="M-110.7-59.2c-0.4-0.2-0.7-0.7-0.8-1.3c0-0.1,0-0.2,0-0.3c0.2-0.4,0.7-1.8,1.5-3.6l-4-1.9l0.7-1.6
		c0.1-0.2,0.2-0.2,0.4-0.2l3.6,0.4c0.3,0,0.7-0.1,0.8-0.5c0.6-1.5,1.3-3.1,2-4.7l-11.5-2.5l1.2-2.6c0.1-0.1,0.2-0.2,0.4-0.2
		l11.5,0.4c0.2,0,0.5-0.1,0.6-0.4c0.6-1.4,2.6-6.2,2.7-6.4c0.9-2.2,2.4-3.5,4.2-2.6s1.8,2.8,0.6,4.9c-0.1,0.2-2.5,4.8-3.2,6.2
		c-0.1,0.2-0.1,0.5,0.1,0.7l7.6,8.6c0.1,0.1,0.1,0.3,0.1,0.4l-1.2,2.6l-9.2-7.3c-0.8,1.5-1.6,3.1-2.4,4.5c-0.2,0.3-0.1,0.7,0.2,0.9
		l2.6,2.5c0.1,0.1,0.2,0.3,0.1,0.4l-0.7,1.6l-4-1.9c-0.9,1.8-1.6,3.1-1.8,3.5c-0.1,0.1-0.1,0.2-0.2,0.2
		C-109.7-59.1-110.3-59.1-110.7-59.2"/>
	<path class="st4" d="M-79.8,39.1c-0.4-0.2-0.7-0.7-0.8-1.3c0-0.1,0-0.2,0-0.3c0.2-0.4,0.7-1.8,1.5-3.6l-4-1.9l0.7-1.6
		c0.1-0.2,0.2-0.2,0.4-0.2l3.6,0.4c0.3,0,0.7-0.1,0.8-0.5c0.6-1.5,1.3-3.1,2-4.7l-11.5-2.5l1.2-2.6c0.1-0.1,0.2-0.2,0.4-0.2
		l11.5,0.4c0.2,0,0.5-0.1,0.6-0.4c0.6-1.4,2.6-6.2,2.7-6.4c0.9-2.2,2.4-3.5,4.2-2.6c1.8,0.9,1.8,2.8,0.6,4.9
		c-0.1,0.2-2.5,4.8-3.2,6.2c-0.1,0.2-0.1,0.5,0.1,0.7l7.6,8.6c0.1,0.1,0.1,0.3,0.1,0.4l-1.2,2.6l-9.2-7.3c-0.8,1.5-1.6,3.1-2.4,4.5
		c-0.2,0.3-0.1,0.7,0.2,0.9l2.6,2.5c0.1,0.1,0.2,0.3,0.1,0.4l-0.7,1.6l-4-1.9c-0.9,1.8-1.6,3.1-1.8,3.5c-0.1,0.1-0.1,0.2-0.2,0.2
		C-78.8,39.2-79.5,39.2-79.8,39.1"/>
	<path class="st5" d="M-135.3-59.3v0.1h-7.7v-0.1h0.2c0.5,0,1-0.1,1.4-0.4c0.4-0.3,0.8-0.6,1.1-1.1c0.3-0.5,0.6-1,0.9-1.6
		c0.3-0.6,0.5-1.2,0.7-1.9l9.7-26.6h1.7l12.3,31.6h2.5v0.1h-9.5v-0.1h3l-5.3-13.4h-11.2l-3.1,8.5c-0.2,0.7-0.4,1.3-0.4,1.9
		c0,0.6,0,1.1,0.3,1.6c0.2,0.5,0.6,0.8,1.1,1.1c0.5,0.3,1.1,0.4,1.9,0.4H-135.3z M-135.4-72.9h11.1l-5.7-14.7L-135.4-72.9z"/>
	<path class="st5" d="M-64.6-90.7v-0.1h7.7v0.1h-0.2c-1.1,0-1.9,0.5-2.6,1.5c-0.7,1-1.2,2.2-1.6,3.5l-7.4,26.6h-1.7l-7.3-24.9
		l-7.5,24.9H-87l-9.1-31.6h-2.5v-0.1h9.4v0.1h-3l7.8,27.7l6.4-21.4l-1.9-6.3h-2.5v-0.1h9.2v0.1h-3l8.1,27.8l6.4-22.9
		c0.2-0.7,0.3-1.3,0.3-1.9c0-0.6,0-1.1-0.2-1.6c-0.2-0.5-0.5-0.8-1-1.1c-0.5-0.3-1.1-0.4-1.9-0.4H-64.6z"/>
	<path class="st4" d="M-51-323.9c-0.4-0.2-0.7-0.7-0.8-1.3c0-0.1,0-0.2,0-0.3c0.2-0.4,0.7-1.8,1.5-3.6l-4-1.9l0.7-1.6
		c0.1-0.2,0.2-0.2,0.4-0.2l3.6,0.4c0.3,0,0.7-0.1,0.8-0.5c0.6-1.5,1.3-3.1,2-4.7l-11.5-2.5l1.2-2.6c0.1-0.1,0.2-0.2,0.4-0.2
		l11.5,0.4c0.2,0,0.5-0.1,0.6-0.4c0.6-1.4,2.6-6.2,2.7-6.4c0.9-2.2,2.4-3.5,4.2-2.6s1.8,2.8,0.6,4.9c-0.1,0.2-2.5,4.8-3.2,6.2
		c-0.1,0.2-0.1,0.5,0.1,0.7l7.6,8.6c0.1,0.1,0.1,0.3,0.1,0.4l-1.2,2.6l-9.2-7.3c-0.8,1.5-1.6,3.1-2.4,4.5c-0.2,0.3-0.1,0.7,0.2,0.9
		l2.6,2.5c0.1,0.1,0.2,0.3,0.1,0.4l-0.7,1.6l-4-1.9c-0.9,1.8-1.6,3.1-1.8,3.5c-0.1,0.1-0.1,0.2-0.2,0.2
		C-50-323.8-50.6-323.7-51-323.9"/>
	<path class="st5" d="M39.3-59.2c-0.4-0.2-0.7-0.7-0.8-1.3c0-0.1,0-0.2,0-0.3c0.2-0.4,0.7-1.8,1.5-3.6l-4-1.9l0.7-1.6
		c0.1-0.2,0.2-0.2,0.4-0.2l3.6,0.4c0.3,0,0.7-0.1,0.8-0.5c0.6-1.5,1.3-3.1,2-4.7L32-75.4l1.2-2.6c0.1-0.1,0.2-0.2,0.4-0.2L45-77.8
		c0.2,0,0.5-0.1,0.6-0.4c0.6-1.4,2.6-6.2,2.7-6.4c0.9-2.2,2.4-3.5,4.2-2.6s1.8,2.8,0.6,4.9c-0.1,0.2-2.5,4.8-3.2,6.2
		c-0.1,0.2-0.1,0.5,0.1,0.7l7.6,8.6c0.1,0.1,0.1,0.3,0.1,0.4l-1.2,2.6l-9.2-7.3c-0.8,1.5-1.6,3.1-2.4,4.5c-0.2,0.3-0.1,0.7,0.2,0.9
		l2.6,2.5c0.1,0.1,0.2,0.3,0.1,0.4L47-61.3l-4-1.9c-0.9,1.8-1.6,3.1-1.8,3.5c-0.1,0.1-0.1,0.2-0.2,0.2
		C40.3-59.1,39.7-59.1,39.3-59.2"/>
	<path class="st5" d="M14.7-59.3v0.1H7v-0.1h0.2c0.5,0,1-0.1,1.4-0.4C9-60,9.3-60.3,9.7-60.8c0.3-0.5,0.6-1,0.9-1.6
		c0.3-0.6,0.5-1.2,0.7-1.9L21-90.8h1.7L35-59.3h2.5v0.1H28v-0.1h3l-5.3-13.4H14.6l-3.1,8.5c-0.2,0.7-0.4,1.3-0.4,1.9
		c0,0.6,0,1.1,0.3,1.6c0.2,0.5,0.6,0.8,1.1,1.1c0.5,0.3,1.1,0.4,1.9,0.4H14.7z M14.6-72.9h11.1L20-87.6L14.6-72.9z"/>
	<path class="st5" d="M85.4-90.7v-0.1H93v0.1h-0.2c-1.1,0-1.9,0.5-2.6,1.5c-0.7,1-1.2,2.2-1.6,3.5l-7.4,26.6h-1.7l-7.3-24.9
		l-7.5,24.9H63l-9.1-31.6h-2.5v-0.1h9.4v0.1h-3L65.7-63l6.4-21.4l-1.9-6.3h-2.5v-0.1h9.2v0.1h-3L82-62.9l6.4-22.9
		c0.2-0.7,0.3-1.3,0.3-1.9c0-0.6,0-1.1-0.2-1.6c-0.2-0.5-0.5-0.8-1-1.1c-0.5-0.3-1.1-0.4-1.9-0.4H85.4z"/>
	<path class="st5" d="M189.3-59.2c-0.4-0.2-0.7-0.7-0.8-1.3c0-0.1,0-0.2,0-0.3c0.2-0.4,0.7-1.8,1.5-3.6l-4-1.9l0.7-1.6
		c0.1-0.2,0.2-0.2,0.4-0.2l3.6,0.4c0.3,0,0.7-0.1,0.8-0.5c0.6-1.5,1.3-3.1,2-4.7L182-75.4l1.2-2.6c0.1-0.1,0.2-0.2,0.4-0.2l11.5,0.4
		c0.2,0,0.5-0.1,0.6-0.4c0.6-1.4,2.6-6.2,2.7-6.4c0.9-2.2,2.4-3.5,4.2-2.6s1.8,2.8,0.6,4.9c-0.1,0.2-2.5,4.8-3.2,6.2
		c-0.1,0.2-0.1,0.5,0.1,0.7l7.6,8.6c0.1,0.1,0.1,0.3,0.1,0.4l-1.2,2.6l-9.2-7.3c-0.8,1.5-1.6,3.1-2.4,4.5c-0.2,0.3-0.1,0.7,0.2,0.9
		l2.6,2.5c0.1,0.1,0.2,0.3,0.1,0.4l-0.7,1.6l-4-1.9c-0.9,1.8-1.6,3.1-1.8,3.5c-0.1,0.1-0.1,0.2-0.2,0.2
		C190.3-59.1,189.7-59.1,189.3-59.2"/>
	<path class="st5" d="M164.7-59.3v0.1H157v-0.1h0.2c0.5,0,1-0.1,1.4-0.4c0.4-0.3,0.8-0.6,1.1-1.1c0.3-0.5,0.6-1,0.9-1.6
		c0.3-0.6,0.5-1.2,0.7-1.9l9.7-26.6h1.7L185-59.3h2.5v0.1H178v-0.1h3l-5.3-13.4h-11.2l-3.1,8.5c-0.2,0.7-0.4,1.3-0.4,1.9
		c0,0.6,0,1.1,0.3,1.6c0.2,0.5,0.6,0.8,1.1,1.1c0.5,0.3,1.1,0.4,1.9,0.4H164.7z M164.6-72.9h11.1L170-87.6L164.6-72.9z"/>
	<path class="st5" d="M235.4-90.7v-0.1h7.7v0.1h-0.2c-1.1,0-1.9,0.5-2.6,1.5c-0.7,1-1.2,2.2-1.6,3.5l-7.4,26.6h-1.7l-7.3-24.9
		l-7.5,24.9H213l-9.1-31.6h-2.5v-0.1h9.4v0.1h-3l7.8,27.7l6.4-21.4l-1.9-6.3h-2.5v-0.1h9.2v0.1h-3l8.1,27.8l6.4-22.9
		c0.2-0.7,0.3-1.3,0.3-1.9c0-0.6,0-1.1-0.2-1.6c-0.2-0.5-0.5-0.8-1-1.1c-0.5-0.3-1.1-0.4-1.9-0.4H235.4z"/>
	<path class="st5" d="M-135.3,40.7v0.1h-7.7v-0.1h0.2c0.5,0,1-0.1,1.4-0.4c0.4-0.3,0.8-0.6,1.1-1.1c0.3-0.5,0.6-1,0.9-1.6
		c0.3-0.6,0.5-1.2,0.7-1.9l9.7-26.6h1.7l12.3,31.6h2.5v0.1h-9.5v-0.1h3l-5.3-13.4h-11.2l-3.1,8.5c-0.2,0.7-0.4,1.3-0.4,1.9
		c0,0.6,0,1.1,0.3,1.6c0.2,0.5,0.6,0.8,1.1,1.1c0.5,0.3,1.1,0.4,1.9,0.4H-135.3z M-135.4,27.1h11.1l-5.7-14.7L-135.4,27.1z"/>
	<path class="st5" d="M-87.9,9.3V9.2h7.7v0.1h-0.2c-1.1,0-1.9,0.5-2.6,1.5c-0.7,1-1.2,2.2-1.6,3.5l-7.4,26.6h-1.7l-7.3-24.9
		l-7.5,24.9h-1.7l-9.1-31.6h-2.5V9.2h9.4v0.1h-3l7.8,27.7l6.4-21.4l-1.9-6.3h-2.5V9.2h9.2v0.1h-3l8.1,27.8l6.4-22.9
		c0.2-0.7,0.3-1.3,0.3-1.9s0-1.1-0.2-1.6c-0.2-0.5-0.5-0.8-1-1.1c-0.5-0.3-1.1-0.4-1.9-0.4H-87.9z"/>
	<path class="st5" d="M189.3,40.8c-0.4-0.2-0.7-0.7-0.8-1.3c0-0.1,0-0.2,0-0.3c0.2-0.4,0.7-1.8,1.5-3.6l-4-1.9l0.7-1.6
		c0.1-0.2,0.2-0.2,0.4-0.2l3.6,0.4c0.3,0,0.7-0.1,0.8-0.5c0.6-1.5,1.3-3.1,2-4.7L182,24.6l1.2-2.6c0.1-0.1,0.2-0.2,0.4-0.2l11.5,0.4
		c0.2,0,0.5-0.1,0.6-0.4c0.6-1.4,2.6-6.2,2.7-6.4c0.9-2.2,2.4-3.5,4.2-2.6s1.8,2.8,0.6,4.9c-0.1,0.2-2.5,4.8-3.2,6.2
		c-0.1,0.2-0.1,0.5,0.1,0.7l7.6,8.6c0.1,0.1,0.1,0.3,0.1,0.4l-1.2,2.6l-9.2-7.3c-0.8,1.5-1.6,3.1-2.4,4.5c-0.2,0.3-0.1,0.7,0.2,0.9
		l2.6,2.5c0.1,0.1,0.2,0.3,0.1,0.4l-0.7,1.6l-4-1.9c-0.9,1.8-1.6,3.1-1.8,3.5c-0.1,0.1-0.1,0.2-0.2,0.2
		C190.3,40.9,189.7,40.9,189.3,40.8"/>
	<path class="st5" d="M164.7,40.7v0.1H157v-0.1h0.2c0.5,0,1-0.1,1.4-0.4c0.4-0.3,0.8-0.6,1.1-1.1c0.3-0.5,0.6-1,0.9-1.6
		c0.3-0.6,0.5-1.2,0.7-1.9L171,9.2h1.7L185,40.7h2.5v0.1H178v-0.1h3l-5.3-13.4h-11.2l-3.1,8.5c-0.2,0.7-0.4,1.3-0.4,1.9
		c0,0.6,0,1.1,0.3,1.6c0.2,0.5,0.6,0.8,1.1,1.1c0.5,0.3,1.1,0.4,1.9,0.4H164.7z M164.6,27.1h11.1L170,12.4L164.6,27.1z"/>
	<path class="st5" d="M235.4,9.3V9.2h7.7v0.1h-0.2c-1.1,0-1.9,0.5-2.6,1.5c-0.7,1-1.2,2.2-1.6,3.5l-7.4,26.6h-1.7l-7.3-24.9
		l-7.5,24.9H213l-9.1-31.6h-2.5V9.2h9.4v0.1h-3l7.8,27.7l6.4-21.4l-1.9-6.3h-2.5V9.2h9.2v0.1h-3l8.1,27.8l6.4-22.9
		c0.2-0.7,0.3-1.3,0.3-1.9s0-1.1-0.2-1.6c-0.2-0.5-0.5-0.8-1-1.1c-0.5-0.3-1.1-0.4-1.9-0.4H235.4z"/>
	<path d="M-141.2-325.5v0.1h-6.1v-0.1h0.1c0.4,0,0.8-0.1,1.1-0.3c0.3-0.2,0.6-0.5,0.9-0.9c0.3-0.4,0.5-0.8,0.7-1.3
		c0.2-0.5,0.4-1,0.6-1.5l7.7-21.1h1.3l9.8,25.1h2v0.1h-7.6v-0.1h2.4l-4.2-10.7h-8.9l-2.4,6.8c-0.2,0.5-0.3,1-0.3,1.5
		c0,0.5,0,0.9,0.2,1.3c0.2,0.4,0.5,0.6,0.8,0.8c0.4,0.2,0.9,0.3,1.5,0.3H-141.2z M-141.2-336.3h8.8l-4.5-11.7L-141.2-336.3z"/>
	<path d="M-117-325.5h5.8c1.1,0,1.9-0.1,2.7-0.3c0.7-0.2,1.3-0.6,1.8-1.1c0.5-0.5,0.9-1.1,1.2-1.9c0.3-0.8,0.5-1.7,0.7-2.8h0.1v6.3
		h-17.4v-0.1h2.3v-25h-2.3v-0.1h7.5v0.1h-2.3V-325.5z"/>
	<path d="M-97.8-337.9v12.5h5.8c1.1,0,1.9-0.1,2.7-0.3c0.7-0.2,1.3-0.6,1.8-1.1c0.5-0.5,0.9-1.1,1.2-1.9c0.3-0.8,0.5-1.7,0.7-2.8
		h0.1v6.3H-103v-0.1h2.3v-25h-2.3v-0.1H-86v6.3H-86c-0.2-1.1-0.4-2-0.7-2.8c-0.3-0.8-0.7-1.4-1.2-1.9c-0.5-0.5-1.1-0.9-1.8-1.1
		c-0.7-0.2-1.6-0.3-2.7-0.3h-5.4v12.4h3.5c1.6,0,2.8-0.3,3.5-1c0.7-0.7,1.1-1.6,1.3-2.9h0.1v7.9h-0.1c-0.2-1.2-0.6-2.2-1.3-2.9
		c-0.7-0.7-1.9-1-3.5-1H-97.8z"/>
	<path d="M-82.7-350.5v-0.1h7.5v0.1h-2.2v25h2.2v0.1h-7.5v-0.1h2.3v-25H-82.7z"/>
	<path d="M-68.4-325.5v0.1h-6.1v-0.1h0.1c0.4,0,0.8-0.1,1.1-0.3c0.3-0.2,0.6-0.5,0.9-0.9c0.3-0.4,0.5-0.8,0.7-1.3
		c0.2-0.5,0.4-1,0.6-1.5l7.7-21.1h1.3l9.8,25.1h2v0.1h-7.6v-0.1h2.4l-4.2-10.7h-8.9l-2.4,6.8c-0.2,0.5-0.3,1-0.3,1.5
		c0,0.5,0,0.9,0.2,1.3c0.2,0.4,0.5,0.6,0.8,0.8c0.4,0.2,0.9,0.3,1.5,0.3H-68.4z M-68.5-336.3h8.8l-4.5-11.7L-68.5-336.3z"/>
	<path d="M-13.7-350.5v-0.1h6.1v0.1h-0.1c-0.8,0-1.5,0.4-2.1,1.2c-0.6,0.8-1,1.7-1.3,2.8l-5.9,21.1h-1.3l-5.8-19.8l-5.9,19.8h-1.3
		l-7.2-25.1h-2v-0.1h7.5v0.1h-2.4l6.2,22l5.1-17l-1.5-5h-2v-0.1h7.3v0.1h-2.4l6.5,22.1l5.1-18.2c0.1-0.5,0.2-1,0.3-1.5
		c0-0.5,0-0.9-0.2-1.3s-0.4-0.6-0.8-0.8c-0.4-0.2-0.9-0.3-1.5-0.3H-13.7z"/>
	<path d="M-4.9-325.5v0.1H-11v-0.1h0.1c0.4,0,0.8-0.1,1.1-0.3c0.3-0.2,0.6-0.5,0.9-0.9c0.3-0.4,0.5-0.8,0.7-1.3
		c0.2-0.5,0.4-1,0.6-1.5l7.7-21.1h1.3l9.8,25.1h2v0.1H5.7v-0.1h2.4l-4.2-10.7H-5l-2.4,6.8c-0.2,0.5-0.3,1-0.3,1.5
		c0,0.5,0,0.9,0.2,1.3c0.2,0.4,0.5,0.6,0.8,0.8c0.4,0.2,0.9,0.3,1.5,0.3H-4.9z M-4.9-336.3h8.8L-0.6-348L-4.9-336.3z"/>
	<path d="M19.2-325.5H25c1.1,0,1.9-0.1,2.7-0.3c0.7-0.2,1.3-0.6,1.8-1.1c0.5-0.5,0.9-1.1,1.2-1.9c0.3-0.8,0.5-1.7,0.7-2.8h0.1v6.3
		H14v-0.1h2.3v-25H14v-0.1h7.5v0.1h-2.3V-325.5z"/>
	<path d="M47.3-350.5v-0.1h6.1v0.1h-0.1c-0.4,0-0.9,0.1-1.3,0.3c-0.4,0.2-0.8,0.5-1.3,0.9c-0.4,0.4-0.8,0.8-1.3,1.2
		c-0.4,0.5-0.8,0.9-1.3,1.4l-4.7,5.5l9.5,15.7h1.9v0.1h-7.7v-0.1h2.4l-8-13.3l-3,3.6v9.8h2.2v0.1h-7.5v-0.1h2.3v-25h-2.3v-0.1h7.5
		v0.1h-2.2v15l9.6-11.3c0.4-0.5,0.8-0.9,1-1.4c0.3-0.5,0.4-0.9,0.3-1.2c0-0.3-0.2-0.6-0.5-0.8c-0.3-0.2-0.8-0.3-1.4-0.3H47.3z"/>
	<path d="M60.9-337.9v12.5h5.8c1.1,0,1.9-0.1,2.7-0.3c0.7-0.2,1.3-0.6,1.8-1.1c0.5-0.5,0.9-1.1,1.2-1.9c0.3-0.8,0.5-1.7,0.7-2.8h0.1
		v6.3H55.7v-0.1H58v-25h-2.3v-0.1h17.1v6.3h-0.1c-0.2-1.1-0.4-2-0.7-2.8c-0.3-0.8-0.7-1.4-1.2-1.9c-0.5-0.5-1.1-0.9-1.8-1.1
		c-0.7-0.2-1.6-0.3-2.7-0.3h-5.4v12.4h3.5c1.6,0,2.8-0.3,3.5-1c0.7-0.7,1.1-1.6,1.3-2.9h0.1v7.9h-0.1c-0.2-1.2-0.6-2.2-1.3-2.9
		c-0.7-0.7-1.9-1-3.5-1H60.9z"/>
	<path d="M93.8-329.7c0,1.1,0.1,1.9,0.3,2.4c0.2,0.5,0.5,0.8,1.1,0.8c0.4,0,0.7-0.2,1-0.5c0.2-0.3,0.3-0.8,0.3-1.3v-0.8h0.1v0.8
		c0,0.4,0,0.8-0.1,1.2c-0.1,0.4-0.3,0.8-0.5,1.1c-0.2,0.3-0.5,0.6-0.8,0.8c-0.3,0.2-0.8,0.3-1.3,0.3c-0.6,0-1.1-0.1-1.5-0.3
		c-0.4-0.2-0.7-0.6-0.9-1c-0.2-0.4-0.3-0.9-0.4-1.5c-0.1-0.6-0.1-1.2-0.1-1.9c0-1.2-0.1-2.3-0.2-3.3c-0.1-1-0.4-1.8-0.8-2.5
		c-0.4-0.7-1-1.2-1.7-1.6c-0.7-0.4-1.7-0.6-2.8-0.6h-4.2v12.1h2.2v0.1H76v-0.1h2.3v-25H76v-0.1h10.3c1.3,0,2.5,0.2,3.5,0.5
		c1,0.3,1.9,0.7,2.7,1.3c0.7,0.6,1.3,1.2,1.7,2c0.4,0.8,0.6,1.6,0.6,2.6c0,0.9-0.2,1.7-0.6,2.4s-0.9,1.4-1.6,2
		c-0.7,0.6-1.5,1.1-2.4,1.4c-0.9,0.4-2,0.6-3.1,0.7c2.3,0.2,4,1,5,2.4C93.3-333.9,93.8-332.1,93.8-329.7z M81.3-337.7h4.2
		c1.1,0,2.1-0.2,2.9-0.5c0.8-0.3,1.5-0.8,2-1.4c0.5-0.6,0.9-1.3,1.1-2s0.4-1.6,0.4-2.5c0-0.9-0.1-1.7-0.4-2.4
		c-0.2-0.8-0.6-1.4-1.1-2c-0.5-0.6-1.1-1-1.9-1.4c-0.8-0.3-1.7-0.5-2.8-0.5h-4.3V-337.7z"/>
	<path class="st4" d="M-49.9-191.8c-0.4-0.2-0.8-0.8-1-1.5c0-0.1,0-0.3,0-0.4c0.2-0.5,0.9-2,1.7-4.2l-4.6-2.2l0.9-1.8
		c0.1-0.2,0.3-0.3,0.5-0.3l4.1,0.5c0.4,0,0.8-0.2,0.9-0.5c0.7-1.7,1.5-3.5,2.2-5.4l-13.2-2.9l1.4-3c0.1-0.2,0.2-0.3,0.4-0.3
		l13.2,0.4c0.3,0,0.5-0.2,0.6-0.4c0.7-1.6,3-7.1,3.1-7.4c1-2.5,2.7-4,4.8-3c2.1,1,2,3.2,0.7,5.7c-0.1,0.2-2.9,5.6-3.7,7.1
		c-0.1,0.2-0.1,0.5,0.1,0.7l8.7,9.9c0.1,0.1,0.1,0.3,0.1,0.5l-1.4,3l-10.6-8.4c-0.9,1.8-1.9,3.5-2.7,5.2c-0.2,0.4-0.1,0.8,0.2,1.1
		l3,2.9c0.1,0.1,0.2,0.3,0.1,0.5l-0.9,1.8l-4.6-2.2c-1.1,2-1.9,3.5-2.1,4c-0.1,0.1-0.2,0.2-0.3,0.3
		C-48.7-191.7-49.5-191.6-49.9-191.8"/>
	<g>
		<path class="st6" d="M-138-197L-138-197l-5.4,0.1v-0.1h0.1c0.4,0,0.7-0.1,1-0.3c0.3-0.2,0.5-0.4,0.8-0.8c0.2-0.3,0.4-0.7,0.6-1.1
			c0.2-0.4,0.4-0.9,0.5-1.3l6.8-18.5h1.2l8.6,22h1.8v0.1h-6.6v-0.1h2.1l-3.7-9.4h-7.8l-2.1,5.9c-0.2,0.5-0.3,0.9-0.3,1.3
			c0,0.4,0,0.8,0.2,1.1c0.2,0.3,0.4,0.6,0.7,0.7c0.3,0.2,0.8,0.3,1.4,0.3H-138z M-138-206.5h7.7l-4-10.3L-138-206.5z"/>
		<path class="st6" d="M-116.9-197h5.1c0.9,0,1.7-0.1,2.3-0.3c0.6-0.2,1.2-0.5,1.6-0.9c0.4-0.4,0.8-1,1-1.7c0.3-0.7,0.5-1.5,0.6-2.5
			h0.1v5.5h-15.3v-0.1h2v-21.9h-2v-0.1h6.6v0.1h-2V-197z"/>
		<path class="st6" d="M-100-207.9v10.9h5.1c0.9,0,1.7-0.1,2.3-0.3c0.6-0.2,1.2-0.5,1.6-0.9c0.4-0.4,0.8-1,1-1.7
			c0.3-0.7,0.5-1.5,0.6-2.5h0.1v5.5h-15.3v-0.1h2v-21.9h-2v-0.1h15v5.5h-0.1c-0.2-1-0.4-1.8-0.6-2.5c-0.3-0.7-0.6-1.2-1-1.7
			c-0.4-0.4-0.9-0.7-1.6-0.9c-0.6-0.2-1.4-0.3-2.3-0.3h-4.8V-207.9l3-0.1c1.4,0,2.5-0.3,3.1-0.9c0.6-0.6,1-1.4,1.2-2.5h0.1v6.9h-0.1
			c-0.1-1.1-0.5-1.9-1.2-2.5c-0.6-0.6-1.6-0.9-3.1-0.9H-100z"/>
		<path class="st6" d="M-86.8-218.9L-86.8-218.9l6.5-0.1v0.1h-2v21.9h2v0.1h-6.5v-0.1h2v-21.9H-86.8z"/>
		<path class="st6" d="M-74.3-197L-74.3-197l-5.4,0.1v-0.1h0.1c0.4,0,0.7-0.1,1-0.3c0.3-0.2,0.5-0.4,0.8-0.8
			c0.2-0.3,0.4-0.7,0.6-1.1c0.2-0.4,0.4-0.9,0.5-1.3l6.8-18.5h1.2l8.6,22h1.8v0.1H-65v-0.1h2.1l-3.7-9.4h-7.8l-2.1,5.9
			c-0.2,0.5-0.3,0.9-0.3,1.3c0,0.4,0,0.8,0.2,1.1c0.2,0.3,0.4,0.6,0.7,0.7c0.3,0.2,0.8,0.3,1.4,0.3H-74.3z M-74.3-206.5h7.7l-4-10.3
			L-74.3-206.5z"/>
	</g>
	<g>
		<path class="st6" d="M-5.1-218.9L-5.1-218.9l5.4-0.1v0.1H0.2c-0.7,0-1.3,0.3-1.8,1c-0.5,0.7-0.9,1.5-1.1,2.4L-8-196.9h-1.2
			l-5.1-17.4l-5.2,17.4h-1.2l-6.3-22h-1.8v-0.1h6.6v0.1h-2.1l5.5,19.3l4.5-14.9l-1.3-4.4h-1.8v-0.1h6.4v0.1H-13l5.7,19.4l4.4-15.9
			c0.1-0.5,0.2-0.9,0.2-1.3c0-0.4,0-0.8-0.2-1.1c-0.1-0.3-0.4-0.6-0.7-0.7c-0.3-0.2-0.8-0.3-1.3-0.3H-5.1z"/>
		<path class="st6" d="M2.7-197L2.7-197l-5.4,0.1v-0.1h0.1c0.4,0,0.7-0.1,1-0.3c0.3-0.2,0.5-0.4,0.8-0.8c0.2-0.3,0.4-0.7,0.6-1.1
			c0.2-0.4,0.4-0.9,0.5-1.3L7.1-219h1.2l8.6,22h1.8v0.1H12v-0.1h2.1l-3.7-9.4H2.6l-2.1,5.9c-0.2,0.5-0.3,0.9-0.3,1.3
			c0,0.4,0,0.8,0.2,1.1c0.2,0.3,0.4,0.6,0.7,0.7c0.3,0.2,0.8,0.3,1.4,0.3H2.7z M2.6-206.5h7.7l-4-10.3L2.6-206.5z"/>
		<path class="st6" d="M23.8-197h5.1c0.9,0,1.7-0.1,2.3-0.3c0.6-0.2,1.2-0.5,1.6-0.9c0.4-0.4,0.8-1,1-1.7c0.3-0.7,0.5-1.5,0.6-2.5
			h0.1v5.5H19.2v-0.1h2v-21.9h-2v-0.1h6.6v0.1h-2V-197z"/>
		<path class="st6" d="M48.4-218.9L48.4-218.9l5.4-0.1v0.1h-0.1c-0.4,0-0.8,0.1-1.1,0.3c-0.4,0.2-0.7,0.4-1.1,0.8
			c-0.4,0.3-0.7,0.7-1.1,1.1c-0.4,0.4-0.7,0.8-1.1,1.2l-4.1,4.8l8.3,13.7H55v0.1h-6.8v-0.1h2.1l-7-11.7l-2.7,3.1v8.5h2v0.1h-6.5
			v-0.1h2v-21.9h-2v-0.1h6.5v0.1h-2v13.2l8.4-9.9c0.4-0.4,0.7-0.8,0.9-1.2c0.2-0.4,0.3-0.8,0.3-1.1c0-0.3-0.2-0.6-0.4-0.7
			c-0.3-0.2-0.7-0.3-1.2-0.3H48.4z"/>
		<path class="st6" d="M60.4-207.9v10.9h5.1c0.9,0,1.7-0.1,2.3-0.3c0.6-0.2,1.2-0.5,1.6-0.9c0.4-0.4,0.8-1,1-1.7
			c0.3-0.7,0.5-1.5,0.6-2.5h0.1v5.5H55.8v-0.1h2v-21.9h-2v-0.1h15v5.5h-0.1c-0.2-1-0.4-1.8-0.6-2.5c-0.3-0.7-0.6-1.2-1-1.7
			c-0.4-0.4-0.9-0.7-1.6-0.9c-0.6-0.2-1.4-0.3-2.3-0.3h-4.8V-207.9l3-0.1c1.4,0,2.5-0.3,3.1-0.9c0.6-0.6,1-1.4,1.2-2.5h0.1v6.9h-0.1
			c-0.1-1.1-0.5-1.9-1.2-2.5c-0.6-0.6-1.6-0.9-3.1-0.9H60.4z"/>
		<path class="st6" d="M89.1-200.7c0,0.9,0.1,1.7,0.2,2.1c0.2,0.5,0.5,0.7,1,0.7c0.4,0,0.6-0.2,0.8-0.5c0.2-0.3,0.3-0.7,0.3-1.1
			v-0.7h0.1v0.7c0,0.3,0,0.7-0.1,1s-0.2,0.7-0.4,0.9c-0.2,0.3-0.4,0.5-0.7,0.7c-0.3,0.2-0.7,0.3-1.1,0.3c-0.5,0-1-0.1-1.3-0.3
			c-0.3-0.2-0.6-0.5-0.8-0.9c-0.2-0.4-0.3-0.8-0.4-1.3c-0.1-0.5-0.1-1.1-0.1-1.7c0-1.1-0.1-2-0.2-2.9c-0.1-0.9-0.4-1.6-0.7-2.2
			c-0.3-0.6-0.8-1.1-1.5-1.4c-0.6-0.3-1.5-0.5-2.5-0.5h-3.7v10.6h2v0.1h-6.5v-0.1h2v-21.9h-2v-0.1h9.1c1.2,0,2.2,0.1,3.1,0.4
			c0.9,0.3,1.7,0.6,2.3,1.1c0.6,0.5,1.1,1.1,1.5,1.8c0.3,0.7,0.5,1.4,0.5,2.3c0,0.8-0.2,1.5-0.5,2.1c-0.3,0.7-0.8,1.2-1.4,1.8
			c-0.6,0.5-1.3,0.9-2.1,1.2c-0.8,0.3-1.7,0.5-2.7,0.6c2,0.2,3.5,0.9,4.4,2.1C88.7-204.4,89.1-202.8,89.1-200.7z M78.2-207.7h3.7
			c1,0,1.8-0.1,2.5-0.4c0.7-0.3,1.3-0.7,1.7-1.2c0.4-0.5,0.8-1.1,1-1.8s0.3-1.4,0.3-2.2c0-0.8-0.1-1.5-0.3-2.1
			c-0.2-0.7-0.5-1.3-1-1.8c-0.4-0.5-1-0.9-1.7-1.2c-0.7-0.3-1.5-0.4-2.4-0.4h-3.8V-207.7z"/>
	</g>
	<path class="st7" d="M39.3,40.8c-0.4-0.2-0.7-0.7-0.8-1.3c0-0.1,0-0.2,0-0.3c0.2-0.4,0.7-1.8,1.5-3.6l-4-1.9l0.7-1.6
		c0.1-0.2,0.2-0.2,0.4-0.2l3.6,0.4c0.3,0,0.7-0.1,0.8-0.5c0.6-1.5,1.3-3.1,2-4.7L32,24.6l1.2-2.6c0.1-0.1,0.2-0.2,0.4-0.2L45,22.2
		c0.2,0,0.5-0.1,0.6-0.4c0.6-1.4,2.6-6.2,2.7-6.4c0.9-2.2,2.4-3.5,4.2-2.6s1.8,2.8,0.6,4.9c-0.1,0.2-2.5,4.8-3.2,6.2
		c-0.1,0.2-0.1,0.5,0.1,0.7l7.6,8.6c0.1,0.1,0.1,0.3,0.1,0.4l-1.2,2.6l-9.2-7.3c-0.8,1.5-1.6,3.1-2.4,4.5c-0.2,0.3-0.1,0.7,0.2,0.9
		l2.6,2.5c0.1,0.1,0.2,0.3,0.1,0.4L47,38.7l-4-1.9c-0.9,1.8-1.6,3.1-1.8,3.5c-0.1,0.1-0.1,0.2-0.2,0.2
		C40.3,40.9,39.7,40.9,39.3,40.8"/>
	<path class="st3" d="M14.7,40.7v0.1H7v-0.1h0.2c0.5,0,1-0.1,1.4-0.4C9,40,9.3,39.7,9.7,39.2c0.3-0.5,0.6-1,0.9-1.6
		c0.3-0.6,0.5-1.2,0.7-1.9L21,9.2h1.7L35,40.7h2.5v0.1H28v-0.1h3l-5.3-13.4H14.6l-3.1,8.5c-0.2,0.7-0.4,1.3-0.4,1.9
		c0,0.6,0,1.1,0.3,1.6c0.2,0.5,0.6,0.8,1.1,1.1c0.5,0.3,1.1,0.4,1.9,0.4H14.7z M14.6,27.1h11.1L20,12.4L14.6,27.1z"/>
	<path class="st3" d="M85.4,9.3V9.2H93v0.1h-0.2c-1.1,0-1.9,0.5-2.6,1.5c-0.7,1-1.2,2.2-1.6,3.5l-7.4,26.6h-1.7l-7.3-24.9l-7.5,24.9
		H63L53.9,9.3h-2.5V9.2h9.4v0.1h-3L65.7,37l6.4-21.4l-1.9-6.3h-2.5V9.2h9.2v0.1h-3L82,37.1l6.4-22.9c0.2-0.7,0.3-1.3,0.3-1.9
		c0-0.6,0-1.1-0.2-1.6c-0.2-0.5-0.5-0.8-1-1.1c-0.5-0.3-1.1-0.4-1.9-0.4H85.4z"/>
</g>
</svg>
