<svg id="logo" xmlns="http://www.w3.org/2000/svg" viewBox="0 0 100 50"><title>update-dark</title><path d="M39.28,40.75a1.89,1.89,0,0,1-.84-1.35,0.58,0.58,0,0,1,0-.32L40,35.45l-4-1.9L36.71,32a0.39,0.39,0,0,1,.4-0.22l3.58,0.45a0.77,0.77,0,0,0,.81-0.47c0.62-1.48,1.29-3.08,2-4.67L32,24.58,33.18,22a0.39,0.39,0,0,1,.36-0.22L45,22.17a0.58,0.58,0,0,0,.55-0.35l2.72-6.39c0.91-2.21,2.37-3.49,4.21-2.63s1.77,2.81.64,4.92l-3.21,6.16a0.58,0.58,0,0,0,.08.65l7.58,8.61a0.39,0.39,0,0,1,.06.42l-1.21,2.57L47.2,28.85l-2.37,4.48a0.77,0.77,0,0,0,.15.92l2.62,2.48a0.39,0.39,0,0,1,.08.45L47,38.74l-4-1.9-1.84,3.47a0.58,0.58,0,0,1-.23.23,1.9,1.9,0,0,1-1.58.2" style="fill:#2ec4b6"/><path d="M14.65,40.71v0.14H7V40.71H7.13a2.51,2.51,0,0,0,1.43-.41,4.46,4.46,0,0,0,1.11-1.09,7.9,7.9,0,0,0,.88-1.58q0.38-.91.75-1.9L21,9.15h1.68L35,40.71h2.53v0.14H28V40.71h3L25.74,27.26H14.56l-3.08,8.51a7.13,7.13,0,0,0-.43,1.9,3,3,0,0,0,.27,1.58,2.41,2.41,0,0,0,1.06,1.06,4.17,4.17,0,0,0,1.95.38h0.32Zm0-13.58H25.7L20,12.41Z" style="fill:#e3e3e3"/><path d="M85.35,9.29V9.15H93V9.29H92.87a3.11,3.11,0,0,0-2.63,1.47,11.57,11.57,0,0,0-1.63,3.51L81.19,40.85H79.51l-7.33-24.9-7.47,24.9H63L53.93,9.29H51.4V9.15h9.42V9.29h-3L65.66,37l6.43-21.41L70.23,9.29H67.69V9.15h9.19V9.29h-3L82,37.09l6.38-22.86a10.1,10.1,0,0,0,.34-1.9,3.32,3.32,0,0,0-.23-1.59,2.22,2.22,0,0,0-1-1.06,3.9,3.9,0,0,0-1.9-.38H85.35Z" style="fill:#e3e3e3"/></svg>